<svg xmlns="http://www.w3.org/2000/svg" xmlns:xlink="http://www.w3.org/1999/xlink" width="1024" zoomAndPan="magnify" viewBox="0 0 768 767.999994" height="1024" preserveAspectRatio="xMidYMid meet" version="1.0"><defs><clipPath id="72a5b2e42f"><path d="M 0 76.800781 L 768 76.800781 L 768 723.300781 L 0 723.300781 Z M 0 76.800781 " clip-rule="nonzero"/></clipPath></defs><path fill="#1ea6bc" d="M 726.769531 242.816406 L 726.753906 242.816406 C 708.121094 246.628906 707.191406 264.484375 713.167969 288.4375 L 719.648438 352.117188 L 719.648438 352.128906 L 711.1875 407.273438 C 707.191406 418.828125 701.792969 429.785156 695.085938 439.90625 C 683.605469 457.234375 668.554688 471.351562 651.632812 480.890625 L 690.3125 506.726562 C 734.695312 473.621094 762.402344 417.804688 762.402344 355.988281 C 762.402344 314.421875 749.546875 274.613281 726.769531 242.816406 Z M 726.769531 242.816406 " fill-opacity="1" fill-rule="nonzero"/><path fill="#087d99" d="M 470.597656 188.175781 C 559.699219 188.175781 638.199219 231.492188 684.09375 262.207031 C 697.824219 283.738281 694.355469 296.453125 668.632812 295.796875 L 668.3125 295.492188 C 621.320312 270.144531 550.195312 254.003906 470.605469 254.003906 C 390.773438 254.003906 319.460938 270.253906 272.472656 295.707031 C 223.101562 295.390625 227.328125 281.640625 257.101562 262.207031 C 303.011719 231.492188 381.480469 188.175781 470.597656 188.175781 Z M 470.597656 188.175781 " fill-opacity="1" fill-rule="nonzero"/><path fill="#087d99" d="M 719.648438 352.128906 C 719.679688 353.425781 719.695312 354.691406 719.695312 355.988281 C 719.695312 373.820312 716.796875 391.132812 711.1875 407.273438 C 675.203125 450.878906 581.070312 481.972656 470.605469 481.972656 C 329.097656 481.972656 214.378906 430.945312 214.378906 367.996094 C 214.378906 360.679688 215.9375 353.546875 218.878906 346.613281 C 241.351562 399.347656 349.878906 419.179688 474.964844 419.179688 C 595.644531 419.179688 692.476562 402.109375 719.648438 352.128906 Z M 719.648438 352.128906 " fill-opacity="1" fill-rule="nonzero"/><path fill="#0d87a3" d="M 713.167969 288.4375 C 722.011719 299.988281 726.816406 312.367188 726.816406 325.246094 C 726.816406 334.496094 724.328125 343.503906 719.648438 352.117188 L 719.648438 352.128906 C 692.476562 402.109375 591.285156 439.234375 470.605469 439.234375 C 345.519531 439.234375 241.351562 399.347656 218.878906 346.613281 C 215.921875 339.695312 214.378906 332.546875 214.378906 325.246094 C 214.378906 315.351562 217.214844 305.765625 222.539062 296.605469 C 249.585938 354.15625 344.25 372.921875 452.65625 372.921875 C 575.867188 372.921875 676.894531 351.171875 713.167969 288.4375 Z M 713.167969 288.4375 " fill-opacity="1" fill-rule="nonzero"/><path fill="#0d87a3" d="M 684.09375 262.207031 C 638.199219 231.492188 559.707031 211.253906 470.605469 211.253906 C 381.488281 211.253906 303.011719 231.492188 257.101562 262.207031 C 257.085938 261.839844 257.085938 261.488281 257.085938 261.125 C 257.085938 209.972656 350.839844 134.652344 468.761719 134.652344 C 585.765625 134.652344 682.613281 209.332031 684.09375 259.917969 C 684.109375 260.332031 684.109375 260.726562 684.109375 261.125 C 684.109375 261.488281 684.109375 261.839844 684.09375 262.207031 Z M 684.09375 262.207031 " fill-opacity="1" fill-rule="nonzero"/><path fill="#1498b7" d="M 449.246094 83.027344 C 331.292969 83.027344 230.527344 124.574219 190.335938 183.164062 C 182.214844 222.882812 186.078125 253.265625 214.457031 264.550781 C 214.929688 275.617188 217.71875 286.347656 222.539062 296.605469 C 249.585938 354.15625 340.839844 396.484375 449.246094 396.484375 C 572.453125 396.484375 676.894531 351.171875 713.167969 288.4375 C 721.492188 274.03125 726.21875 258.714844 726.753906 242.816406 C 726.800781 241.796875 726.816406 240.777344 726.816406 239.753906 C 726.816406 153.199219 602.550781 83.027344 449.246094 83.027344 Z M 684.09375 262.207031 C 683.789062 274.0625 678.328125 285.402344 668.632812 295.796875 C 637.011719 329.769531 560.257812 353.746094 470.605469 353.746094 C 380.878906 353.746094 304.0625 329.726562 272.472656 295.707031 C 262.835938 285.34375 257.40625 274.03125 257.101562 262.207031 C 257.085938 261.839844 257.085938 261.488281 257.085938 261.125 C 257.085938 209.972656 352.683594 168.515625 470.605469 168.515625 C 587.609375 168.515625 682.613281 209.332031 684.09375 259.917969 C 684.109375 260.332031 684.109375 260.726562 684.109375 261.125 C 684.109375 261.488281 684.109375 261.839844 684.09375 262.207031 Z M 684.09375 262.207031 " fill-opacity="1" fill-rule="nonzero"/><path fill="#1498b7" d="M 690.3125 506.726562 C 699.902344 521.296875 701.246094 537.558594 692.464844 546.597656 L 646.90625 593.480469 L 595 581.628906 L 584.5 535.089844 L 631.246094 486.988281 C 636.203125 481.898438 643.535156 479.945312 651.632812 480.890625 C 661.464844 482.003906 672.445312 487.339844 681.714844 496.359375 C 685.070312 499.621094 687.933594 503.128906 690.3125 506.726562 Z M 690.3125 506.726562 " fill-opacity="1" fill-rule="nonzero"/><path fill="#1ea6bc" d="M 215.019531 251.109375 L 215.019531 251.125 C 214.59375 254.417969 214.378906 257.753906 214.378906 261.125 C 214.378906 262.265625 214.410156 263.410156 214.457031 264.550781 L 184.296875 295.585938 L 150.320312 277.011719 L 121.894531 237.195312 L 168.640625 189.09375 C 173.855469 183.726562 181.722656 181.867188 190.335938 183.164062 C 199.835938 184.59375 210.25 189.867188 219.105469 198.480469 C 223.605469 202.855469 227.25 207.65625 229.964844 212.5625 C 221.867188 224.664062 216.730469 237.621094 215.019531 251.109375 Z M 215.019531 251.109375 " fill-opacity="1" fill-rule="nonzero"/><path fill="#f9b132" d="M 73.710938 391.316406 C 79.835938 392.253906 80.980469 403.226562 79.660156 419.179688 L 18.03125 403.203125 L 12.101562 375.34375 C 30.835938 369.019531 51.550781 375.484375 73.710938 391.316406 Z M 73.710938 391.316406 " fill-opacity="1" fill-rule="nonzero"/><path fill="#f9b132" d="M 536.320312 689.195312 C 543.820312 691.339844 544.125 702.804688 542.265625 717.074219 L 480.636719 701.101562 L 474.691406 673.222656 L 474.707031 673.222656 C 492.503906 661.019531 513.207031 667.425781 536.320312 689.195312 Z M 536.320312 689.195312 " fill-opacity="1" fill-rule="nonzero"/><path fill="#ffc05a" d="M 530.386719 661.335938 C 541.285156 664.097656 544.191406 672.703125 536.320312 689.195312 L 474.707031 673.222656 L 474.691406 673.222656 L 468.761719 645.363281 C 492.910156 636.882812 513.511719 641.992188 530.386719 661.335938 Z M 530.386719 661.335938 " fill-opacity="1" fill-rule="nonzero"/><path fill="#ffc05a" d="M 67.78125 363.441406 C 80.425781 367.941406 84.214844 376.417969 73.710938 391.316406 L 12.101562 375.34375 L 6.152344 347.464844 C 33.835938 342.148438 54.027344 347.992188 67.78125 363.441406 Z M 67.78125 363.441406 " fill-opacity="1" fill-rule="nonzero"/><path fill="#d6eae8" d="M 103.597656 326.660156 C 116.625 332.492188 122.769531 348 115.472656 382.398438 L 79.660156 419.179688 L 73.710938 391.316406 L 67.78125 363.441406 C 65.457031 339.042969 81.101562 329.9375 103.597656 326.660156 Z M 103.597656 326.660156 " fill-opacity="1" fill-rule="nonzero"/><path fill="#d6eae8" d="M 566.203125 624.542969 C 581.21875 628.84375 585.109375 647.511719 578.082031 680.28125 L 542.265625 717.074219 L 536.320312 689.195312 L 530.386719 661.335938 C 530.414062 636.832031 542.738281 624.964844 566.203125 624.542969 Z M 566.203125 624.542969 " fill-opacity="1" fill-rule="nonzero"/><path fill="#e7f2f1" d="M 566.203125 624.542969 L 530.386719 661.335938 L 468.761719 645.363281 L 504.589844 608.570312 C 535.660156 596.964844 557.988281 599.410156 566.203125 624.542969 Z M 566.203125 624.542969 " fill-opacity="1" fill-rule="nonzero"/><path fill="#e7f2f1" d="M 81.046875 282.597656 L 51.652344 294.136719 L 41.96875 310.671875 L 6.152344 347.464844 L 67.78125 363.441406 L 103.597656 326.660156 L 110.488281 290.21875 C 111.035156 273.226562 98.21875 274.898438 81.046875 282.597656 Z M 81.046875 282.597656 " fill-opacity="1" fill-rule="nonzero"/><path fill="#0d87a3" d="M 637.847656 550.972656 L 646.90625 593.480469 L 652.699219 620.640625 L 581.054688 694.226562 L 578.082031 680.28125 L 566.203125 624.542969 L 504.589844 608.570312 L 489.175781 604.574219 L 563.0625 528.703125 L 584.5 535.089844 Z M 637.847656 550.972656 " fill-opacity="1" fill-rule="nonzero"/><path fill="#1498b7" d="M 175.242188 253.074219 L 184.296875 295.585938 L 190.09375 322.746094 L 118.445312 396.332031 L 115.472656 382.398438 L 103.597656 326.660156 L 80.863281 320.761719 C 90.742188 310.582031 100.609375 300.402344 110.488281 290.21875 C 100.667969 287.675781 90.867188 285.144531 81.046875 282.597656 L 51.34375 313.113281 L 41.96875 310.671875 L 26.570312 306.679688 L 100.457031 230.808594 L 121.894531 237.195312 Z M 175.242188 253.074219 " fill-opacity="1" fill-rule="nonzero"/><g clip-path="url(#72a5b2e42f)"><path fill="#3a322b" d="M 732.914062 239.757812 C 732.914062 195.597656 702.941406 154.355469 648.519531 123.625 C 595.191406 93.511719 524.425781 76.929688 449.25 76.929688 C 391.386719 76.929688 335.761719 86.792969 288.394531 105.449219 C 243.191406 123.257812 208.367188 147.859375 187.402344 176.746094 C 186.488281 176.691406 185.582031 176.660156 184.683594 176.671875 C 176.417969 176.785156 169.359375 179.609375 164.273438 184.84375 L 120.097656 230.296875 L 102.195312 224.964844 C 100.019531 224.316406 97.664062 224.929688 96.082031 226.554688 L 22.199219 302.429688 C 20.683594 303.988281 20.109375 306.230469 20.695312 308.324219 C 21.28125 310.417969 22.9375 312.039062 25.039062 312.585938 L 30.28125 313.945312 L 1.785156 343.214844 C 0.363281 344.675781 -0.234375 346.746094 0.1875 348.738281 L 12.070312 404.476562 C 12.550781 406.734375 14.265625 408.527344 16.503906 409.109375 L 78.125 425.085938 C 78.632812 425.214844 79.148438 425.277344 79.65625 425.277344 C 81.28125 425.277344 82.867188 424.628906 84.027344 423.433594 L 111.890625 394.816406 L 112.484375 397.597656 C 112.957031 399.796875 114.597656 401.5625 116.757812 402.183594 C 117.316406 402.34375 117.886719 402.425781 118.449219 402.425781 C 120.074219 402.425781 121.65625 401.777344 122.820312 400.582031 L 194.464844 327.003906 C 195.886719 325.542969 196.484375 323.472656 196.058594 321.480469 L 190.949219 297.496094 L 209.953125 277.9375 C 211.195312 284.203125 213.113281 290.371094 215.714844 296.410156 C 210.804688 305.773438 208.292969 315.457031 208.292969 325.246094 C 208.292969 332.519531 209.652344 339.671875 212.308594 346.652344 C 209.648438 353.644531 208.292969 360.8125 208.292969 367.988281 C 208.292969 400.988281 236.226562 431.59375 286.953125 454.160156 C 336.109375 476.027344 401.332031 488.074219 470.605469 488.074219 C 524.765625 488.074219 576.691406 480.703125 620.761719 466.757812 C 649.785156 457.578125 674.023438 445.980469 692.507812 432.601562 C 691.695312 433.925781 690.867188 435.246094 690.007812 436.542969 C 679.488281 452.425781 665.753906 465.558594 650.210938 474.652344 C 649.230469 474.589844 648.257812 474.550781 647.292969 474.5625 C 639.027344 474.675781 631.96875 477.503906 626.882812 482.738281 L 582.707031 528.1875 L 564.804688 522.855469 C 562.625 522.207031 560.277344 522.824219 558.691406 524.445312 L 484.808594 600.324219 C 483.292969 601.878906 482.71875 604.125 483.304688 606.21875 C 483.890625 608.308594 485.542969 609.933594 487.648438 610.476562 L 492.890625 611.835938 L 464.390625 641.105469 C 462.972656 642.566406 462.375 644.636719 462.796875 646.628906 L 474.675781 702.367188 C 475.15625 704.625 476.875 706.417969 479.113281 707 L 540.734375 722.976562 C 541.242188 723.105469 541.753906 723.171875 542.265625 723.171875 C 543.890625 723.171875 545.472656 722.519531 546.636719 721.328125 L 574.5 692.710938 L 575.09375 695.492188 C 575.5625 697.691406 577.203125 699.453125 579.367188 700.078125 C 579.925781 700.238281 580.492188 700.316406 581.058594 700.316406 C 582.679688 700.316406 584.261719 699.667969 585.429688 698.472656 L 657.070312 624.894531 C 658.492188 623.4375 659.089844 621.363281 658.667969 619.371094 L 653.554688 595.386719 L 696.84375 550.847656 C 706.78125 540.625 706.8125 523.9375 698.339844 508.226562 C 742.371094 473.117188 768.5 416.648438 768.5 355.984375 C 768.5 314.535156 755.851562 273.789062 732.890625 240.964844 C 732.894531 240.5625 732.914062 240.160156 732.914062 239.757812 Z M 292.867188 116.796875 C 338.824219 98.691406 392.902344 89.121094 449.25 89.121094 C 598.9375 89.121094 720.714844 156.695312 720.714844 239.757812 C 720.714844 322.820312 598.9375 390.394531 449.25 390.394531 C 323.109375 390.394531 220.484375 332.40625 220.484375 261.132812 C 220.484375 189.855469 323.109375 131.867188 449.25 131.867188 C 543.332031 131.867188 624.320312 164.128906 659.414062 210.101562 C 649.734375 202.8125 637.890625 196.074219 624.003906 190.050781 C 582.929688 172.234375 528.449219 162.421875 470.601562 162.421875 C 412.753906 162.421875 358.273438 172.234375 317.199219 190.050781 C 274.503906 208.570312 250.992188 233.8125 250.992188 261.132812 C 250.992188 288.449219 274.503906 313.691406 317.199219 332.210938 C 358.273438 350.027344 412.753906 359.839844 470.601562 359.839844 C 528.449219 359.839844 582.929688 350.027344 624.003906 332.210938 C 666.699219 313.691406 690.210938 288.449219 690.210938 261.132812 C 690.210938 222.703125 664.695312 186.835938 618.371094 160.136719 C 573.097656 134.042969 513.039062 119.675781 449.25 119.675781 C 385.464844 119.675781 325.402344 134.046875 280.132812 160.136719 C 258.988281 172.320312 242.195312 186.421875 230.167969 201.796875 C 228.121094 199.113281 225.855469 196.539062 223.359375 194.109375 C 216.539062 187.464844 208.609375 182.488281 200.59375 179.585938 C 220.480469 154.441406 252.144531 132.835938 292.867188 116.796875 Z M 667.214844 288.027344 C 617.578125 262.5 546.277344 247.910156 470.601562 247.910156 C 394.890625 247.910156 323.625 262.492188 273.984375 288.027344 C 268.019531 280.679688 264.425781 273.039062 263.457031 265.355469 C 310.492188 235.261719 387.519531 217.359375 470.597656 217.359375 C 553.679688 217.359375 630.707031 235.261719 677.742188 265.355469 C 676.777344 273.039062 673.179688 280.679688 667.214844 288.027344 Z M 658.351562 297.21875 C 648.578125 305.902344 635.363281 313.992188 619.148438 321.023438 C 579.570312 338.191406 526.816406 347.644531 470.601562 347.644531 C 414.386719 347.644531 361.632812 338.191406 322.054688 321.023438 C 305.839844 313.988281 292.625 305.902344 282.855469 297.21875 C 330.648438 273.570312 398.425781 260.101562 470.601562 260.101562 C 542.746094 260.101562 610.554688 273.574219 658.351562 297.21875 Z M 676.21875 250.183594 C 626.859375 221.851562 551.351562 205.164062 470.601562 205.164062 C 389.855469 205.164062 314.34375 221.851562 264.984375 250.183594 C 270.839844 232.136719 290.910156 214.742188 322.054688 201.234375 C 361.632812 184.066406 414.386719 174.613281 470.601562 174.613281 C 526.816406 174.613281 579.570312 184.066406 619.148438 201.234375 C 650.292969 214.742188 670.363281 232.136719 676.21875 250.183594 Z M 49.808594 319.007812 C 51.933594 319.558594 54.183594 318.929688 55.710938 317.359375 L 82.945312 289.390625 L 98.816406 293.496094 L 76.492188 316.519531 C 74.980469 318.078125 74.414062 320.320312 75 322.410156 C 75.585938 324.5 77.238281 326.121094 79.339844 326.664062 L 91.910156 329.921875 L 65.878906 356.652344 L 17.847656 344.199219 L 43.875 317.46875 Z M 14.175781 355.84375 L 62.597656 368.398438 L 65.695312 382.933594 L 17.273438 370.378906 Z M 20.113281 383.714844 L 68.539062 396.269531 L 71.636719 410.804688 L 23.214844 398.25 Z M 83.246094 406.757812 L 74.421875 365.359375 L 100.011719 339.078125 L 108.835938 380.476562 Z M 122.039062 383.902344 L 109.5625 325.382812 C 109.082031 323.125 107.367188 321.332031 105.128906 320.753906 L 92.539062 317.488281 L 114.867188 294.460938 C 116.378906 292.902344 116.949219 290.65625 116.359375 288.566406 C 115.773438 286.476562 114.121094 284.859375 112.015625 284.3125 L 82.574219 276.695312 C 80.457031 276.148438 78.203125 276.777344 76.675781 278.347656 L 49.445312 306.316406 L 38.261719 303.414062 L 102.25 237.703125 L 163.84375 256.042969 L 117.140625 304.007812 C 114.792969 306.417969 114.84375 310.277344 117.257812 312.628906 C 118.441406 313.78125 119.976562 314.355469 121.511719 314.355469 C 123.101562 314.355469 124.6875 313.738281 125.882812 312.511719 L 171.660156 265.5 L 183.453125 320.832031 Z M 187.886719 283.144531 L 181.207031 251.808594 C 180.742188 249.625 179.121094 247.875 176.984375 247.238281 L 133.285156 234.226562 L 173.019531 193.34375 C 176.535156 189.726562 181.390625 188.910156 184.851562 188.863281 C 184.972656 188.863281 185.089844 188.863281 185.210938 188.863281 C 194.785156 188.863281 205.835938 194.066406 214.847656 202.84375 C 217.898438 205.8125 220.539062 209.023438 222.742188 212.410156 C 218.722656 218.914062 215.519531 225.605469 213.164062 232.445312 C 208.820312 225.296875 204.152344 220.125 201.027344 217.085938 C 197.421875 213.574219 193.453125 210.40625 189.238281 207.675781 C 186.414062 205.84375 182.636719 206.652344 180.804688 209.476562 C 178.972656 212.300781 179.777344 216.078125 182.605469 217.90625 C 186.148438 220.203125 189.484375 222.867188 192.519531 225.820312 C 196.765625 229.957031 204.414062 238.757812 208.8125 251.792969 C 208.480469 254.886719 208.292969 258 208.292969 261.128906 C 208.292969 261.464844 208.308594 261.796875 208.3125 262.132812 Z M 280.132812 362.125 C 325.402344 388.214844 385.464844 402.585938 449.25 402.585938 C 524.425781 402.585938 595.191406 386 648.515625 355.890625 C 677.195312 339.695312 699.078125 320.582031 713.367188 299.660156 C 718.242188 308.035156 720.714844 316.613281 720.714844 325.246094 C 720.714844 353.140625 695.347656 379.785156 649.292969 400.277344 C 601.664062 421.46875 538.203125 433.136719 470.601562 433.136719 C 403 433.136719 339.539062 421.46875 291.910156 400.277344 C 245.851562 379.785156 220.484375 353.140625 220.484375 325.246094 C 220.484375 320.234375 221.347656 315.226562 223.003906 310.261719 C 235.089844 329.625 254.390625 347.289062 280.132812 362.125 Z M 470.601562 475.882812 C 403 475.882812 339.542969 464.210938 291.910156 443.023438 C 245.851562 422.53125 220.488281 395.882812 220.488281 367.992188 C 220.488281 366.175781 220.609375 364.355469 220.828125 362.539062 C 233.65625 380.957031 256.070312 397.679688 286.953125 411.414062 C 336.109375 433.285156 401.328125 445.328125 470.601562 445.328125 C 539.875 445.328125 605.097656 433.285156 654.253906 411.414062 C 679.722656 400.082031 699.441406 386.726562 712.769531 372.058594 C 711.621094 383.148438 709.273438 393.921875 705.792969 404.214844 C 669.5 447.121094 575.273438 475.882812 470.601562 475.882812 Z M 554.515625 627.816406 L 528.488281 654.546875 L 480.453125 642.089844 L 506.484375 615.359375 Z M 476.785156 653.734375 L 525.207031 666.289062 L 528.304688 680.828125 L 479.882812 668.273438 Z M 482.722656 681.605469 L 531.144531 694.160156 L 534.246094 708.695312 L 485.820312 696.140625 Z M 545.851562 704.648438 L 537.03125 663.25 L 562.621094 636.96875 L 571.445312 678.367188 Z M 584.644531 681.796875 L 572.171875 623.277344 C 571.691406 621.019531 569.972656 619.226562 567.738281 618.644531 L 500.867188 601.308594 L 564.855469 535.59375 L 626.449219 553.9375 L 579.746094 601.898438 C 577.398438 604.3125 577.449219 608.171875 579.863281 610.519531 C 581.050781 611.675781 582.582031 612.25 584.117188 612.25 C 585.707031 612.25 587.292969 611.632812 588.488281 610.40625 L 634.265625 563.394531 L 646.058594 618.726562 Z M 688.09375 542.351562 L 650.496094 581.035156 L 643.816406 549.699219 C 643.351562 547.515625 641.730469 545.761719 639.59375 545.125 L 595.894531 532.113281 L 635.628906 491.230469 C 639.144531 487.617188 644 486.800781 647.457031 486.753906 C 657.058594 486.582031 668.332031 491.847656 677.457031 500.734375 C 691.683594 514.589844 696.554688 533.648438 688.09375 542.351562 Z M 756.300781 355.984375 C 756.300781 412.589844 732.1875 465.203125 691.511719 498.058594 C 689.816406 495.980469 687.972656 493.953125 685.96875 492 C 680.03125 486.214844 673.246094 481.699219 666.304688 478.707031 C 679.359375 469.304688 690.917969 457.25 700.175781 443.273438 C 716.9375 417.960938 725.796875 387.777344 725.796875 355.980469 C 725.796875 355.1875 725.78125 354.398438 725.769531 353.609375 C 730.476562 344.457031 732.914062 334.957031 732.914062 325.246094 C 732.914062 312.460938 728.707031 299.96875 720.421875 288.054688 C 725.238281 279.03125 728.699219 269.726562 730.738281 260.222656 C 747.292969 288.632812 756.300781 322.042969 756.300781 355.984375 Z M 673.265625 540.964844 C 673.789062 544.292969 671.511719 547.410156 668.183594 547.933594 C 667.867188 547.984375 667.546875 548.007812 667.234375 548.007812 C 664.28125 548.007812 661.6875 545.859375 661.214844 542.855469 C 659.886719 534.390625 655.273438 528.832031 652.644531 526.269531 C 646.511719 520.296875 639.492188 518.617188 635.851562 518.152344 C 632.511719 517.71875 630.152344 514.664062 630.582031 511.324219 C 631.011719 507.984375 634.066406 505.625 637.410156 506.054688 C 642.558594 506.722656 652.488281 509.09375 661.152344 517.535156 C 664.871094 521.152344 671.390625 529.007812 673.265625 540.964844 Z M 673.265625 540.964844 " fill-opacity="1" fill-rule="nonzero"/></g></svg>