<svg xmlns="http://www.w3.org/2000/svg" xmlns:xlink="http://www.w3.org/1999/xlink" width="1024" zoomAndPan="magnify" viewBox="0 0 768 767.999994" height="1024" preserveAspectRatio="xMidYMid meet" version="1.0"><defs><clipPath id="2eee32001c"><path d="M 18.851562 251 L 749.351562 251 L 749.351562 652 L 18.851562 652 Z M 18.851562 251 " clip-rule="nonzero"/></clipPath></defs><path fill="#748b9e" d="M 612.625 443.6875 L 155.785156 443.6875 C 137.886719 443.6875 123.265625 458.328125 123.265625 476.207031 L 123.265625 508.726562 L 645.144531 508.726562 L 645.144531 476.207031 C 645.144531 458.328125 630.523438 443.6875 612.625 443.6875 Z M 612.625 443.6875 " fill-opacity="1" fill-rule="evenodd"/><path fill="#f0ebeb" d="M 599.707031 508.742188 L 168.703125 508.742188 L 168.703125 715.257812 C 168.703125 739.976562 188.914062 760.1875 213.632812 760.1875 L 554.777344 760.1875 C 579.496094 760.1875 599.707031 739.976562 599.707031 715.257812 Z M 599.707031 508.742188 " fill-opacity="1" fill-rule="evenodd"/><path fill="#27a2db" d="M 247.773438 384.238281 C 265.773438 384.238281 280.363281 369.648438 280.363281 351.648438 C 280.363281 333.648438 265.773438 319.0625 247.773438 319.0625 C 229.773438 319.0625 215.183594 333.648438 215.183594 351.648438 C 215.183594 369.648438 229.773438 384.238281 247.773438 384.238281 Z M 247.773438 384.238281 " fill-opacity="1" fill-rule="evenodd"/><path fill="#fcd462" d="M 182.714844 351.648438 C 182.714844 333.648438 168.128906 319.0625 150.125 319.0625 C 132.125 319.0625 117.539062 333.648438 117.539062 351.648438 C 117.539062 369.648438 132.125 384.238281 150.125 384.238281 C 168.128906 384.238281 182.714844 369.648438 182.714844 351.648438 Z M 182.714844 351.648438 " fill-opacity="1" fill-rule="evenodd"/><path fill="#576d7e" d="M 247.773438 319.042969 C 265.773438 319.042969 280.363281 333.632812 280.363281 351.632812 C 280.363281 369.632812 265.773438 384.222656 247.773438 384.222656 C 229.773438 384.222656 215.183594 369.632812 215.183594 351.632812 C 215.183594 333.648438 229.773438 319.042969 247.773438 319.042969 Z M 150.125 319.042969 C 168.128906 319.042969 182.714844 333.632812 182.714844 351.632812 C 182.714844 369.632812 168.128906 384.222656 150.125 384.222656 C 132.125 384.222656 117.539062 369.632812 117.539062 351.632812 C 117.539062 333.648438 132.125 319.042969 150.125 319.042969 Z M 155.785156 443.6875 L 612.625 443.6875 C 630.523438 443.6875 645.144531 458.328125 645.144531 476.207031 L 645.144531 508.726562 L 599.707031 508.726562 L 599.707031 643.394531 L 693.996094 643.394531 C 719.917969 643.394531 741.101562 622.191406 741.101562 596.289062 L 741.101562 306.703125 C 741.101562 280.78125 719.898438 259.59375 693.996094 259.59375 L 74.414062 259.59375 C 48.492188 259.59375 27.308594 280.796875 27.308594 306.703125 L 27.308594 596.304688 C 27.308594 622.226562 48.511719 643.414062 74.414062 643.414062 L 168.703125 643.414062 L 168.703125 508.742188 L 123.265625 508.742188 L 123.265625 476.222656 C 123.265625 458.328125 137.886719 443.6875 155.785156 443.6875 Z M 155.785156 443.6875 " fill-opacity="1" fill-rule="evenodd"/><path fill="#f0ebeb" d="M 168.703125 259.59375 L 599.707031 259.59375 L 599.707031 53.082031 C 599.707031 28.359375 579.496094 8.148438 554.777344 8.148438 L 213.632812 8.148438 C 188.929688 8.148438 168.703125 28.359375 168.703125 53.082031 Z M 168.703125 259.59375 " fill-opacity="1" fill-rule="evenodd"/><path fill="#748b9e" d="M 599.707031 150.777344 L 599.707031 259.59375 L 660.222656 259.59375 L 638.667969 173.199219 C 635.691406 161.238281 628.574219 150.777344 616.246094 150.777344 Z M 599.707031 150.777344 " fill-opacity="1" fill-rule="evenodd"/><path fill="#748b9e" d="M 168.703125 259.59375 L 168.703125 150.777344 L 152.144531 150.777344 C 139.820312 150.777344 132.699219 161.238281 129.722656 173.199219 L 108.171875 259.59375 Z M 168.703125 259.59375 " fill-opacity="1" fill-rule="evenodd"/><g clip-path="url(#2eee32001c)"><path fill="#000000" d="M 693.996094 651.769531 L 599.707031 651.769531 C 595.09375 651.769531 591.351562 648.027344 591.351562 643.414062 C 591.351562 638.800781 595.09375 635.058594 599.707031 635.058594 L 693.996094 635.058594 C 715.371094 635.058594 732.746094 617.667969 732.746094 596.304688 L 732.746094 306.703125 C 732.746094 285.324219 715.355469 267.949219 693.996094 267.949219 L 74.414062 267.949219 C 53.039062 267.949219 35.664062 285.34375 35.664062 306.703125 L 35.664062 596.304688 C 35.664062 617.683594 53.054688 635.058594 74.414062 635.058594 L 168.703125 635.058594 C 173.316406 635.058594 177.058594 638.800781 177.058594 643.414062 C 177.058594 648.027344 173.316406 651.769531 168.703125 651.769531 L 74.414062 651.769531 C 43.828125 651.769531 18.953125 626.890625 18.953125 596.304688 L 18.953125 306.703125 C 18.953125 276.117188 43.828125 251.238281 74.414062 251.238281 L 693.996094 251.238281 C 724.582031 251.238281 749.460938 276.117188 749.460938 306.703125 L 749.460938 596.304688 C 749.460938 626.890625 724.582031 651.769531 693.996094 651.769531 Z M 693.996094 651.769531 " fill-opacity="1" fill-rule="nonzero"/></g><path fill="#000000" d="M 645.144531 517.097656 L 123.265625 517.097656 C 118.652344 517.097656 114.910156 513.355469 114.910156 508.742188 L 114.910156 476.222656 C 114.910156 453.679688 133.238281 435.347656 155.785156 435.347656 L 612.625 435.347656 C 635.171875 435.347656 653.503906 453.679688 653.503906 476.222656 L 653.503906 508.742188 C 653.503906 513.355469 649.757812 517.097656 645.144531 517.097656 Z M 131.621094 500.386719 L 636.808594 500.386719 L 636.808594 476.222656 C 636.808594 462.890625 625.960938 452.0625 612.644531 452.0625 L 155.785156 452.0625 C 142.449219 452.0625 131.621094 462.90625 131.621094 476.222656 Z M 131.621094 500.386719 " fill-opacity="1" fill-rule="nonzero"/><path fill="#000000" d="M 554.777344 768.542969 L 213.632812 768.542969 C 184.246094 768.542969 160.34375 744.640625 160.34375 715.257812 L 160.34375 508.742188 C 160.34375 504.128906 164.089844 500.386719 168.703125 500.386719 C 173.316406 500.386719 177.058594 504.128906 177.058594 508.742188 L 177.058594 715.257812 C 177.058594 735.414062 193.457031 751.832031 213.632812 751.832031 L 554.777344 751.832031 C 574.9375 751.832031 591.351562 735.433594 591.351562 715.257812 L 591.351562 508.742188 C 591.351562 504.128906 595.09375 500.386719 599.707031 500.386719 C 604.320312 500.386719 608.066406 504.128906 608.066406 508.742188 L 608.066406 715.257812 C 608.066406 744.640625 584.164062 768.542969 554.777344 768.542969 Z M 554.777344 768.542969 " fill-opacity="1" fill-rule="nonzero"/><path fill="#000000" d="M 660.222656 267.949219 C 656.480469 267.949219 653.066406 265.410156 652.125 261.613281 L 630.574219 175.21875 C 629.078125 169.210938 625.230469 159.132812 616.265625 159.132812 L 599.726562 159.132812 C 595.113281 159.132812 591.371094 155.390625 591.371094 150.777344 C 591.371094 146.164062 595.113281 142.417969 599.726562 142.417969 L 616.265625 142.417969 C 630.886719 142.417969 642.308594 153.160156 646.800781 171.179688 L 668.351562 257.574219 C 669.464844 262.050781 666.75 266.59375 662.257812 267.707031 C 661.5625 267.863281 660.882812 267.949219 660.222656 267.949219 Z M 108.1875 267.949219 C 107.527344 267.949219 106.832031 267.863281 106.152344 267.707031 C 101.679688 266.59375 98.945312 262.050781 100.058594 257.574219 L 121.609375 171.179688 C 126.101562 153.179688 137.503906 142.417969 152.144531 142.417969 L 168.683594 142.417969 C 173.296875 142.417969 177.039062 146.164062 177.039062 150.777344 C 177.039062 155.390625 173.296875 159.132812 168.683594 159.132812 L 152.144531 159.132812 C 143.179688 159.132812 139.332031 169.210938 137.835938 175.21875 L 116.285156 261.613281 C 115.34375 265.410156 111.933594 267.949219 108.1875 267.949219 Z M 108.1875 267.949219 " fill-opacity="1" fill-rule="nonzero"/><path fill="#000000" d="M 531.816406 585.582031 L 236.597656 585.582031 C 231.984375 585.582031 228.238281 581.839844 228.238281 577.226562 C 228.238281 572.613281 231.984375 568.871094 236.597656 568.871094 L 531.816406 568.871094 C 536.429688 568.871094 540.171875 572.613281 540.171875 577.226562 C 540.171875 581.839844 536.429688 585.582031 531.816406 585.582031 Z M 531.816406 585.582031 " fill-opacity="1" fill-rule="nonzero"/><path fill="#000000" d="M 531.816406 642.820312 L 236.597656 642.820312 C 231.984375 642.820312 228.238281 639.078125 228.238281 634.464844 C 228.238281 629.851562 231.984375 626.109375 236.597656 626.109375 L 531.816406 626.109375 C 536.429688 626.109375 540.171875 629.851562 540.171875 634.464844 C 540.171875 639.078125 536.429688 642.820312 531.816406 642.820312 Z M 531.816406 642.820312 " fill-opacity="1" fill-rule="nonzero"/><path fill="#000000" d="M 531.816406 700.058594 L 236.597656 700.058594 C 231.984375 700.058594 228.238281 696.316406 228.238281 691.703125 C 228.238281 687.089844 231.984375 683.347656 236.597656 683.347656 L 531.816406 683.347656 C 536.429688 683.347656 540.171875 687.089844 540.171875 691.703125 C 540.171875 696.316406 536.429688 700.058594 531.816406 700.058594 Z M 531.816406 700.058594 " fill-opacity="1" fill-rule="nonzero"/><path fill="#000000" d="M 599.707031 267.949219 C 595.09375 267.949219 591.351562 264.207031 591.351562 259.59375 L 591.351562 53.082031 C 591.351562 32.921875 574.953125 16.503906 554.777344 16.503906 L 213.632812 16.503906 C 193.472656 16.503906 177.058594 32.902344 177.058594 53.082031 L 177.058594 259.59375 C 177.058594 264.207031 173.316406 267.949219 168.703125 267.949219 C 164.089844 267.949219 160.34375 264.207031 160.34375 259.59375 L 160.34375 53.082031 C 160.34375 23.695312 184.246094 -0.207031 213.632812 -0.207031 L 554.777344 -0.207031 C 584.164062 -0.207031 608.066406 23.695312 608.066406 53.082031 L 608.066406 259.59375 C 608.066406 264.207031 604.324219 267.949219 599.707031 267.949219 Z M 599.707031 267.949219 " fill-opacity="1" fill-rule="nonzero"/><path fill="#000000" d="M 531.816406 199.464844 L 236.597656 199.464844 C 231.984375 199.464844 228.238281 195.722656 228.238281 191.109375 C 228.238281 186.496094 231.984375 182.753906 236.597656 182.753906 L 531.816406 182.753906 C 536.429688 182.753906 540.171875 186.496094 540.171875 191.109375 C 540.171875 195.722656 536.429688 199.464844 531.816406 199.464844 Z M 531.816406 199.464844 " fill-opacity="1" fill-rule="nonzero"/><path fill="#000000" d="M 531.816406 142.226562 L 236.597656 142.226562 C 231.984375 142.226562 228.238281 138.484375 228.238281 133.871094 C 228.238281 129.257812 231.984375 125.515625 236.597656 125.515625 L 531.816406 125.515625 C 536.429688 125.515625 540.171875 129.257812 540.171875 133.871094 C 540.171875 138.484375 536.429688 142.226562 531.816406 142.226562 Z M 531.816406 142.226562 " fill-opacity="1" fill-rule="nonzero"/><path fill="#000000" d="M 531.816406 84.988281 L 236.597656 84.988281 C 231.984375 84.988281 228.238281 81.246094 228.238281 76.632812 C 228.238281 72.019531 231.984375 68.277344 236.597656 68.277344 L 531.816406 68.277344 C 536.429688 68.277344 540.171875 72.019531 540.171875 76.632812 C 540.171875 81.246094 536.429688 84.988281 531.816406 84.988281 Z M 531.816406 84.988281 " fill-opacity="1" fill-rule="nonzero"/><path fill="#000000" d="M 150.125 392.59375 C 127.546875 392.59375 109.179688 374.230469 109.179688 351.648438 C 109.179688 329.070312 127.546875 310.707031 150.125 310.707031 C 172.707031 310.707031 191.070312 329.070312 191.070312 351.648438 C 191.070312 374.230469 172.707031 392.59375 150.125 392.59375 Z M 150.125 327.398438 C 136.757812 327.398438 125.894531 338.28125 125.894531 351.632812 C 125.894531 365.003906 136.773438 375.863281 150.125 375.863281 C 163.480469 375.863281 174.359375 364.984375 174.359375 351.632812 C 174.359375 338.28125 163.496094 327.398438 150.125 327.398438 Z M 150.125 327.398438 " fill-opacity="1" fill-rule="nonzero"/><path fill="#000000" d="M 247.773438 392.59375 C 225.191406 392.59375 206.828125 374.230469 206.828125 351.648438 C 206.828125 329.070312 225.191406 310.707031 247.773438 310.707031 C 270.351562 310.707031 288.71875 329.070312 288.71875 351.648438 C 288.71875 374.230469 270.351562 392.59375 247.773438 392.59375 Z M 247.773438 327.398438 C 234.402344 327.398438 223.539062 338.28125 223.539062 351.632812 C 223.539062 365.003906 234.421875 375.863281 247.773438 375.863281 C 261.140625 375.863281 272.003906 364.984375 272.003906 351.632812 C 272.003906 338.28125 261.140625 327.398438 247.773438 327.398438 Z M 247.773438 327.398438 " fill-opacity="1" fill-rule="nonzero"/></svg>