<svg xmlns="http://www.w3.org/2000/svg" xmlns:xlink="http://www.w3.org/1999/xlink" width="1024" zoomAndPan="magnify" viewBox="0 0 768 767.999994" height="1024" preserveAspectRatio="xMidYMid meet" version="1.0"><defs><clipPath id="6ac0f11b1c"><path d="M 152.152344 13.992188 L 618.148438 13.992188 L 618.148438 767.671875 L 152.152344 767.671875 Z M 152.152344 13.992188 " clip-rule="nonzero"/></clipPath></defs><rect x="-76.8" width="921.6" fill="#ffffff" y="-76.799999" height="921.599993" fill-opacity="1"/><g clip-path="url(#6ac0f11b1c)"><path fill="#3a2114" d="M 535.441406 726.371094 C 531.964844 752.507812 507.171875 770.820312 480.070312 767.222656 L 195.355469 729.449219 C 168.253906 725.859375 149.089844 701.738281 152.554688 675.589844 L 234.878906 55.308594 C 238.34375 29.144531 263.148438 10.851562 290.25 14.449219 L 574.957031 52.21875 C 602.054688 55.816406 621.222656 79.9375 617.75 106.097656 L 535.441406 726.371094 " fill-opacity="1" fill-rule="nonzero"/></g><path fill="#807060" d="M 197.355469 714.378906 C 178.613281 711.886719 165.269531 695.378906 167.636719 677.578125 L 249.976562 57.3125 C 252.308594 39.5 269.5 27.054688 288.246094 29.53125 L 572.960938 67.304688 C 591.699219 69.773438 605.050781 86.292969 602.675781 104.09375 L 520.371094 724.378906 C 518.011719 742.164062 500.820312 754.628906 482.074219 752.132812 L 197.355469 714.378906 " fill-opacity="1" fill-rule="nonzero"/><path fill="#4cade4" d="M 253.550781 122.894531 L 188.59375 612.425781 L 197.683594 613.621094 L 517.132812 656.007812 L 582.097656 166.476562 L 253.550781 122.894531 " fill-opacity="1" fill-rule="nonzero"/><path fill="#7ad1ec" d="M 582.097656 166.476562 L 501.765625 155.8125 L 197.222656 547.332031 L 188.59375 612.425781 L 197.683594 613.621094 L 287.539062 625.539062 L 569.238281 263.425781 L 582.097656 166.476562 " fill-opacity="1" fill-rule="nonzero"/><path fill="#3a2114" d="M 382.988281 687.898438 C 380.308594 708.097656 361.734375 722.304688 341.527344 719.628906 C 321.308594 716.957031 307.09375 698.386719 309.785156 678.191406 C 312.46875 657.972656 331.015625 643.75 351.242188 646.441406 C 371.457031 649.113281 385.671875 667.675781 382.988281 687.898438 " fill-opacity="1" fill-rule="nonzero"/><path fill="#3a2114" d="M 480.957031 106.671875 C 479.582031 117.089844 454.015625 113.707031 422.503906 109.507812 C 390.96875 105.335938 365.414062 101.9375 366.78125 91.535156 C 368.183594 81.140625 393.746094 84.527344 425.265625 88.699219 C 456.789062 92.882812 482.324219 96.273438 480.957031 106.671875 " fill-opacity="1" fill-rule="nonzero"/></svg>