<svg xmlns="http://www.w3.org/2000/svg" xmlns:xlink="http://www.w3.org/1999/xlink" width="1024" zoomAndPan="magnify" viewBox="0 0 768 767.999994" height="1024" preserveAspectRatio="xMidYMid meet" version="1.0"><defs><clipPath id="d60af44efb"><path d="M 12 34.265625 L 755 34.265625 L 755 549 L 12 549 Z M 12 34.265625 " clip-rule="nonzero"/></clipPath><clipPath id="77c449207e"><path d="M 196 643 L 572 643 L 572 733.84375 L 196 733.84375 Z M 196 643 " clip-rule="nonzero"/></clipPath></defs><g clip-path="url(#d60af44efb)"><path fill="#000000" d="M 57.734375 50.121094 C 41.707031 50.121094 28.6875 63.148438 28.6875 79.160156 L 28.6875 503.527344 C 28.6875 519.539062 41.707031 532.570312 57.734375 532.570312 L 709.742188 532.570312 C 725.769531 532.570312 738.789062 519.539062 738.789062 503.53125 L 738.789062 79.160156 C 738.789062 63.144531 725.769531 50.121094 709.742188 50.121094 Z M 709.742188 548.777344 L 57.734375 548.777344 C 32.773438 548.777344 12.476562 528.480469 12.476562 503.53125 L 12.476562 79.160156 C 12.476562 54.210938 32.773438 33.910156 57.734375 33.910156 L 709.742188 33.910156 C 734.703125 33.910156 755 54.210938 755 79.160156 L 755 503.527344 C 755 528.480469 734.703125 548.777344 709.742188 548.777344 Z M 709.742188 548.777344 " fill-opacity="1" fill-rule="evenodd"/></g><path fill="#000000" d="M 281.691406 660.085938 C 280.609375 660.085938 279.492188 659.871094 278.445312 659.410156 C 274.34375 657.613281 272.46875 652.839844 274.257812 648.738281 L 322.894531 537.429688 C 324.699219 533.324219 329.480469 531.453125 333.566406 533.246094 C 337.671875 535.039062 339.542969 539.816406 337.753906 543.917969 L 289.121094 655.226562 C 287.785156 658.269531 284.8125 660.089844 281.691406 660.085938 Z M 485.785156 660.085938 C 482.664062 660.085938 479.691406 658.273438 478.355469 655.226562 L 429.722656 543.917969 C 427.933594 539.8125 429.804688 535.039062 433.910156 533.246094 C 438.011719 531.453125 442.773438 533.324219 444.582031 537.429688 L 493.21875 648.734375 C 495.007812 652.835938 493.132812 657.617188 489.027344 659.410156 C 487.984375 659.871094 486.867188 660.089844 485.785156 660.085938 Z M 485.785156 660.085938 " fill-opacity="1" fill-rule="evenodd"/><g clip-path="url(#77c449207e)"><path fill="#000000" d="M 212.417969 717.34375 L 555.058594 717.34375 L 555.058594 688.714844 C 555.058594 672.929688 542.222656 660.089844 526.433594 660.089844 L 241.042969 660.089844 C 225.253906 660.089844 212.417969 672.929688 212.417969 688.714844 Z M 563.164062 733.554688 L 204.3125 733.554688 C 199.839844 733.554688 196.207031 729.925781 196.207031 725.449219 L 196.207031 688.714844 C 196.207031 663.988281 216.320312 643.878906 241.042969 643.878906 L 526.433594 643.875 C 551.15625 643.875 571.269531 663.992188 571.269531 688.714844 L 571.269531 725.445312 C 571.269531 729.921875 567.636719 733.554688 563.164062 733.554688 Z M 563.164062 733.554688 " fill-opacity="1" fill-rule="evenodd"/></g><path fill="#000000" d="M 383.738281 491.230469 C 378.28125 491.230469 373.839844 495.667969 373.839844 501.125 C 373.84375 506.574219 378.28125 511.015625 383.738281 511.015625 C 389.191406 511.011719 393.632812 506.578125 393.632812 501.125 C 393.632812 495.667969 389.191406 491.230469 383.738281 491.230469 Z M 383.738281 527.226562 C 369.351562 527.226562 357.628906 515.515625 357.628906 501.125 C 357.628906 486.726562 369.351562 475.015625 383.738281 475.015625 C 398.125 475.015625 409.84375 486.726562 409.84375 501.125 C 409.847656 515.515625 398.125 527.226562 383.738281 527.226562 Z M 383.738281 527.226562 " fill-opacity="1" fill-rule="evenodd"/><path fill="#000000" d="M 746.894531 469.675781 L 20.585938 469.675781 C 16.109375 469.675781 12.476562 466.046875 12.476562 461.570312 C 12.476562 457.09375 16.109375 453.464844 20.582031 453.464844 L 746.898438 453.464844 C 751.375 453.464844 755.003906 457.09375 755.003906 461.570312 C 755.003906 466.046875 751.371094 469.675781 746.898438 469.675781 Z M 746.894531 469.675781 " fill-opacity="1" fill-rule="evenodd"/><path fill="#bdddef" d="M 28.6875 453.46875 L 738.785156 453.464844 L 738.789062 79.160156 C 738.789062 63.144531 725.765625 50.121094 709.742188 50.121094 L 57.730469 50.121094 C 41.707031 50.121094 28.683594 63.148438 28.683594 79.160156 Z M 28.6875 453.46875 " fill-opacity="1" fill-rule="evenodd"/><path fill="#98cfee" d="M 383.738281 475.015625 C 398.125 475.015625 409.84375 486.726562 409.84375 501.125 C 409.847656 515.515625 398.125 527.226562 383.738281 527.226562 C 369.351562 527.226562 357.628906 515.515625 357.628906 501.125 C 357.628906 486.726562 369.351562 475.015625 383.738281 475.015625 Z M 738.789062 469.675781 L 28.6875 469.675781 L 28.6875 503.527344 C 28.6875 519.539062 41.707031 532.570312 57.734375 532.570312 L 330.105469 532.566406 C 330.257812 532.5625 330.40625 532.5625 330.558594 532.566406 L 436.90625 532.566406 C 437.070312 532.5625 437.230469 532.5625 437.390625 532.566406 L 709.742188 532.566406 C 725.769531 532.566406 738.789062 519.539062 738.789062 503.527344 Z M 738.789062 469.675781 " fill-opacity="1" fill-rule="evenodd"/><path fill="#8e8e8f" d="M 431.84375 548.777344 L 335.632812 548.777344 L 294.078125 643.875 L 473.398438 643.875 Z M 431.84375 548.777344 " fill-opacity="1" fill-rule="evenodd"/><path fill="#cfd8dc" d="M 383.738281 511.019531 C 389.191406 511.015625 393.632812 506.582031 393.632812 501.125 C 393.632812 495.671875 389.191406 491.234375 383.738281 491.230469 C 378.28125 491.230469 373.839844 495.671875 373.839844 501.125 C 373.84375 506.578125 378.28125 511.019531 383.738281 511.019531 Z M 383.738281 511.019531 " fill-opacity="1" fill-rule="evenodd"/><path fill="#8e8e8f" d="M 485.789062 660.085938 L 241.042969 660.085938 C 225.253906 660.085938 212.417969 672.929688 212.417969 688.714844 L 212.421875 717.34375 L 555.058594 717.34375 L 555.058594 688.710938 C 555.058594 672.929688 542.222656 660.089844 526.433594 660.089844 Z M 485.789062 660.085938 " fill-opacity="1" fill-rule="evenodd"/></svg>