<svg xmlns="http://www.w3.org/2000/svg" xmlns:xlink="http://www.w3.org/1999/xlink" width="1024" zoomAndPan="magnify" viewBox="0 0 768 767.999994" height="1024" preserveAspectRatio="xMidYMid meet" version="1.0"><defs><clipPath id="9598c0a0e0"><path d="M 2 37.703125 L 609 37.703125 L 609 729.953125 L 2 729.953125 Z M 2 37.703125 " clip-rule="nonzero"/></clipPath></defs><path fill="#00222b" d="M 275.292969 52.941406 L 244.398438 677.582031 L 279.285156 719.800781 L 347.105469 712.953125 L 438.640625 584.179688 L 434.972656 281.230469 L 355.5 61.988281 L 300.234375 55.386719 Z M 275.292969 52.941406 " fill-opacity="1" fill-rule="nonzero"/><path fill="#d5f6ff" d="M 148.214844 83.097656 L 38.585938 79.675781 L 23.097656 237.140625 L 24.484375 474.964844 L 24.644531 632.511719 L 44.859375 685.976562 L 211.46875 667.476562 L 253.691406 654.84375 L 275.292969 646.203125 L 334.796875 647.507812 L 391.773438 685.242188 L 554.550781 677.5 L 584.625 625.417969 L 583.402344 433.316406 L 582.019531 158.082031 L 568 71.933594 L 353.949219 88.722656 L 301.292969 99.96875 C 301.292969 99.96875 220.84375 90.027344 232.90625 83.996094 C 244.96875 77.964844 148.214844 83.097656 148.214844 83.097656 Z M 148.214844 83.097656 " fill-opacity="1" fill-rule="nonzero"/><g clip-path="url(#9598c0a0e0)"><path fill="#004455" d="M 557.332031 37.167969 C 553.921875 37.195312 550.503906 37.3125 547.1875 37.316406 L 49.328125 37.503906 C 35.140625 38.027344 23.125 43.625 13.566406 54.019531 C -0.0273438 68.804688 2.429688 88.289062 2.433594 106.679688 L 2.484375 687.453125 C 3.507812 709.921875 22.621094 727.910156 44.441406 730.054688 C 52.644531 730.859375 61.320312 730.328125 69.574219 730.328125 L 531.964844 730.25 C 543.179688 730.25 554.707031 730.789062 565.890625 730.101562 C 586.589844 728.832031 606.054688 711.128906 608.515625 690.367188 C 609.089844 685.542969 608.738281 680.425781 608.703125 675.5625 L 608.597656 415.445312 C 608.59375 401.882812 608.84375 384.390625 608.882812 368.863281 C 609 319.648438 608.6875 221.21875 608.6875 221.21875 L 608.664062 221.207031 L 608.675781 90.742188 C 608.679688 85.046875 609.121094 79.328125 607.882812 73.722656 C 603.714844 54.832031 586.613281 39.675781 567.441406 37.566406 C 564.148438 37.203125 560.742188 37.140625 557.332031 37.164062 Z M 301.40625 62.671875 C 316.828125 62.621094 318.9375 83.855469 306.390625 87.246094 C 293.703125 87.4375 288.984375 76.78125 292.964844 68.140625 C 294.378906 65.066406 297.414062 63.835938 300.660156 62.6875 C 300.914062 62.675781 301.160156 62.671875 301.40625 62.671875 Z M 51.867188 109.027344 L 559.078125 109.035156 C 559.550781 109.613281 559.339844 253.945312 559.804688 269.199219 L 559.574219 410.894531 L 559.375 641.316406 L 51.835938 641.097656 Z M 298.375 652.292969 C 330.46875 651.828125 333.550781 697.710938 302.230469 704.664062 C 286.609375 707.042969 270.832031 688.574219 274.253906 673.574219 L 274.378906 673.054688 C 276.941406 662.484375 286.179688 654.183594 296.824219 652.347656 C 297.347656 652.316406 297.867188 652.296875 298.375 652.292969 Z M 298.375 652.292969 " fill-opacity="1" fill-rule="nonzero"/></g><path fill="#b7c8c4" d="M 667.316406 160.445312 C 667.316406 160.445312 609.125 218.738281 580.363281 250.03125 C 551.214844 281.746094 518.3125 320.714844 485.980469 354.847656 C 449.890625 398.226562 407.992188 442.335938 374.230469 482.019531 C 368.867188 489.753906 363.21875 498.449219 359.253906 507.453125 C 348.210938 532.554688 340.839844 559.175781 335.179688 586.117188 C 366.855469 578.21875 405.988281 560.585938 429.382812 543.339844 C 482.710938 495.289062 535.558594 437.125 586.625 382.097656 C 638.832031 325.839844 710.101562 241.550781 739.027344 209.503906 C 767.953125 177.457031 713.597656 112.269531 667.316406 160.445312 Z M 667.316406 160.445312 " fill-opacity="1" fill-rule="nonzero"/></svg>