<svg xmlns="http://www.w3.org/2000/svg" xmlns:xlink="http://www.w3.org/1999/xlink" width="1024" zoomAndPan="magnify" viewBox="0 0 768 767.999994" height="1024" preserveAspectRatio="xMidYMid meet" version="1.0"><defs><clipPath id="7de43227ad"><path d="M 21.773438 21.773438 L 746.273438 21.773438 L 746.273438 746.273438 L 21.773438 746.273438 Z M 21.773438 21.773438 " clip-rule="nonzero"/></clipPath></defs><rect x="-76.8" width="921.6" fill="#ffffff" y="-76.799999" height="921.599993" fill-opacity="1"/><path fill="#ced6dd" d="M 33.457031 103.570312 L 664.476562 103.570312 L 664.476562 500.878906 L 33.457031 500.878906 Z M 33.457031 103.570312 " fill-opacity="1" fill-rule="nonzero"/><path fill="#a4acb3" d="M 617.734375 302.226562 C 617.734375 304.710938 617.671875 307.195312 617.550781 309.679688 C 617.429688 312.160156 617.246094 314.640625 617 317.113281 C 616.757812 319.589844 616.453125 322.054688 616.089844 324.515625 C 615.722656 326.972656 615.300781 329.421875 614.8125 331.859375 C 614.328125 334.300781 613.785156 336.722656 613.179688 339.136719 C 612.574219 341.546875 611.914062 343.941406 611.191406 346.320312 C 610.46875 348.703125 609.691406 351.0625 608.851562 353.402344 C 608.015625 355.742188 607.121094 358.0625 606.167969 360.359375 C 605.21875 362.65625 604.210938 364.925781 603.148438 367.175781 C 602.085938 369.421875 600.96875 371.644531 599.796875 373.835938 C 598.625 376.027344 597.398438 378.191406 596.121094 380.324219 C 594.84375 382.457031 593.511719 384.554688 592.132812 386.621094 C 590.75 388.6875 589.320312 390.722656 587.835938 392.71875 C 586.355469 394.714844 584.828125 396.675781 583.25 398.597656 C 581.671875 400.519531 580.050781 402.398438 578.378906 404.242188 C 576.710938 406.085938 574.996094 407.882812 573.238281 409.640625 C 571.480469 411.398438 569.679688 413.113281 567.839844 414.785156 C 565.996094 416.453125 564.113281 418.078125 562.191406 419.652344 C 560.269531 421.230469 558.3125 422.761719 556.316406 424.242188 C 554.316406 425.722656 552.285156 427.152344 550.21875 428.535156 C 548.152344 429.914062 546.050781 431.246094 543.917969 432.523438 C 541.785156 433.800781 539.625 435.027344 537.433594 436.199219 C 535.238281 437.371094 533.019531 438.488281 530.773438 439.550781 C 528.523438 440.613281 526.253906 441.621094 523.957031 442.574219 C 521.660156 443.523438 519.339844 444.417969 517 445.257812 C 514.65625 446.09375 512.296875 446.875 509.917969 447.59375 C 507.539062 448.316406 505.144531 448.980469 502.734375 449.582031 C 500.320312 450.1875 497.894531 450.730469 495.457031 451.21875 C 493.019531 451.703125 490.570312 452.128906 488.113281 452.492188 C 485.652344 452.855469 483.1875 453.160156 480.710938 453.40625 C 478.238281 453.648438 475.757812 453.832031 473.277344 453.953125 C 470.792969 454.074219 468.308594 454.136719 465.820312 454.136719 C 463.335938 454.136719 460.851562 454.074219 458.367188 453.953125 C 455.882812 453.832031 453.40625 453.648438 450.933594 453.40625 C 448.457031 453.160156 445.992188 452.855469 443.53125 452.492188 C 441.070312 452.128906 438.625 451.703125 436.183594 451.21875 C 433.746094 450.730469 431.320312 450.1875 428.910156 449.582031 C 426.5 448.980469 424.101562 448.316406 421.722656 447.59375 C 419.34375 446.875 416.984375 446.09375 414.644531 445.253906 C 412.304688 444.417969 409.984375 443.523438 407.6875 442.574219 C 405.390625 441.621094 403.117188 440.613281 400.871094 439.550781 C 398.625 438.488281 396.402344 437.371094 394.210938 436.199219 C 392.019531 435.027344 389.855469 433.800781 387.722656 432.523438 C 385.589844 431.246094 383.492188 429.914062 381.425781 428.535156 C 379.355469 427.152344 377.324219 425.722656 375.328125 424.242188 C 373.332031 422.761719 371.371094 421.230469 369.449219 419.652344 C 367.527344 418.078125 365.644531 416.453125 363.804688 414.785156 C 361.960938 413.113281 360.160156 411.398438 358.402344 409.640625 C 356.644531 407.882812 354.933594 406.085938 353.261719 404.242188 C 351.59375 402.398438 349.96875 400.519531 348.390625 398.597656 C 346.816406 396.675781 345.285156 394.714844 343.804688 392.71875 C 342.324219 390.722656 340.894531 388.6875 339.511719 386.621094 C 338.128906 384.554688 336.800781 382.457031 335.523438 380.324219 C 334.246094 378.191406 333.019531 376.027344 331.847656 373.835938 C 330.675781 371.644531 329.558594 369.421875 328.496094 367.175781 C 327.433594 364.929688 326.425781 362.65625 325.472656 360.359375 C 324.523438 358.0625 323.628906 355.742188 322.789062 353.402344 C 321.953125 351.0625 321.171875 348.703125 320.453125 346.324219 C 319.730469 343.941406 319.066406 341.546875 318.460938 339.136719 C 317.859375 336.722656 317.3125 334.300781 316.828125 331.859375 C 316.34375 329.421875 315.917969 326.972656 315.554688 324.515625 C 315.191406 322.054688 314.886719 319.589844 314.640625 317.113281 C 314.398438 314.640625 314.214844 312.160156 314.09375 309.679688 C 313.972656 307.195312 313.910156 304.710938 313.910156 302.226562 C 313.910156 299.738281 313.972656 297.253906 314.09375 294.769531 C 314.214844 292.289062 314.398438 289.808594 314.640625 287.335938 C 314.886719 284.859375 315.191406 282.394531 315.554688 279.933594 C 315.917969 277.476562 316.34375 275.027344 316.828125 272.589844 C 317.3125 270.148438 317.859375 267.726562 318.460938 265.3125 C 319.066406 262.902344 319.730469 260.507812 320.453125 258.128906 C 321.171875 255.75 321.953125 253.386719 322.789062 251.046875 C 323.628906 248.707031 324.523438 246.386719 325.472656 244.089844 C 326.425781 241.792969 327.433594 239.523438 328.496094 237.273438 C 329.558594 235.027344 330.675781 232.808594 331.847656 230.613281 C 333.019531 228.421875 334.246094 226.257812 335.523438 224.125 C 336.800781 221.996094 338.128906 219.894531 339.511719 217.828125 C 340.894531 215.761719 342.324219 213.726562 343.804688 211.730469 C 345.285156 209.734375 346.816406 207.773438 348.390625 205.851562 C 349.96875 203.929688 351.59375 202.050781 353.261719 200.207031 C 354.933594 198.367188 356.644531 196.566406 358.402344 194.808594 C 360.160156 193.050781 361.960938 191.335938 363.804688 189.664062 C 365.644531 187.996094 367.527344 186.371094 369.449219 184.796875 C 371.371094 183.21875 373.332031 181.691406 375.328125 180.207031 C 377.324219 178.726562 379.355469 177.296875 381.425781 175.914062 C 383.492188 174.535156 385.589844 173.203125 387.722656 171.925781 C 389.855469 170.648438 392.019531 169.421875 394.210938 168.25 C 396.402344 167.078125 398.625 165.960938 400.871094 164.898438 C 403.117188 163.835938 405.390625 162.828125 407.6875 161.878906 C 409.984375 160.925781 412.304688 160.03125 414.644531 159.195312 C 416.984375 158.355469 419.34375 157.578125 421.722656 156.855469 C 424.101562 156.132812 426.5 155.46875 428.910156 154.867188 C 431.320312 154.261719 433.746094 153.71875 436.183594 153.230469 C 438.625 152.746094 441.070312 152.324219 443.53125 151.957031 C 445.992188 151.59375 448.457031 151.289062 450.933594 151.046875 C 453.40625 150.800781 455.882812 150.617188 458.367188 150.496094 C 460.851562 150.375 463.335938 150.3125 465.820312 150.3125 C 468.308594 150.3125 470.792969 150.375 473.277344 150.496094 C 475.757812 150.617188 478.238281 150.800781 480.710938 151.046875 C 483.1875 151.289062 485.652344 151.59375 488.113281 151.957031 C 490.570312 152.324219 493.019531 152.746094 495.457031 153.230469 C 497.894531 153.71875 500.320312 154.261719 502.734375 154.867188 C 505.144531 155.46875 507.539062 156.132812 509.917969 156.855469 C 512.296875 157.578125 514.65625 158.355469 517 159.195312 C 519.339844 160.03125 521.660156 160.925781 523.957031 161.878906 C 526.253906 162.828125 528.523438 163.835938 530.773438 164.898438 C 533.019531 165.960938 535.238281 167.078125 537.433594 168.25 C 539.625 169.421875 541.785156 170.648438 543.917969 171.925781 C 546.050781 173.203125 548.152344 174.535156 550.21875 175.914062 C 552.285156 177.296875 554.316406 178.726562 556.316406 180.207031 C 558.3125 181.691406 560.269531 183.21875 562.191406 184.796875 C 564.113281 186.371094 565.996094 187.996094 567.839844 189.664062 C 569.679688 191.335938 571.480469 193.050781 573.238281 194.808594 C 574.996094 196.566406 576.710938 198.367188 578.378906 200.207031 C 580.050781 202.050781 581.671875 203.929688 583.25 205.851562 C 584.828125 207.773438 586.355469 209.734375 587.835938 211.730469 C 589.320312 213.726562 590.75 215.761719 592.132812 217.828125 C 593.511719 219.894531 594.84375 221.996094 596.121094 224.125 C 597.398438 226.257812 598.625 228.421875 599.796875 230.613281 C 600.96875 232.808594 602.085938 235.027344 603.148438 237.273438 C 604.210938 239.523438 605.21875 241.792969 606.167969 244.089844 C 607.121094 246.386719 608.015625 248.707031 608.851562 251.046875 C 609.691406 253.386719 610.46875 255.75 611.191406 258.128906 C 611.914062 260.507812 612.574219 262.902344 613.179688 265.3125 C 613.785156 267.726562 614.328125 270.148438 614.8125 272.589844 C 615.300781 275.027344 615.722656 277.476562 616.089844 279.933594 C 616.453125 282.394531 616.757812 284.859375 617 287.335938 C 617.246094 289.808594 617.429688 292.289062 617.550781 294.769531 C 617.671875 297.253906 617.734375 299.738281 617.734375 302.226562 Z M 617.734375 302.226562 " fill-opacity="1" fill-rule="nonzero"/><path fill="#e7ebf2" d="M 570.992188 302.226562 C 570.992188 303.945312 570.949219 305.667969 570.863281 307.386719 C 570.78125 309.105469 570.652344 310.820312 570.484375 312.53125 C 570.316406 314.246094 570.105469 315.953125 569.851562 317.65625 C 569.601562 319.359375 569.304688 321.054688 568.96875 322.742188 C 568.632812 324.429688 568.257812 326.109375 567.839844 327.777344 C 567.421875 329.449219 566.960938 331.105469 566.460938 332.753906 C 565.960938 334.402344 565.421875 336.035156 564.84375 337.65625 C 564.261719 339.277344 563.644531 340.882812 562.984375 342.472656 C 562.328125 344.0625 561.628906 345.632812 560.894531 347.191406 C 560.15625 348.746094 559.382812 350.285156 558.574219 351.800781 C 557.761719 353.320312 556.914062 354.816406 556.027344 356.292969 C 555.144531 357.769531 554.222656 359.222656 553.265625 360.652344 C 552.308594 362.085938 551.320312 363.492188 550.292969 364.875 C 549.269531 366.257812 548.210938 367.613281 547.117188 368.945312 C 546.027344 370.273438 544.902344 371.578125 543.746094 372.851562 C 542.589844 374.128906 541.40625 375.375 540.1875 376.589844 C 538.96875 377.808594 537.722656 378.996094 536.449219 380.148438 C 535.171875 381.304688 533.871094 382.429688 532.539062 383.523438 C 531.210938 384.613281 529.851562 385.671875 528.472656 386.699219 C 527.089844 387.722656 525.679688 388.714844 524.25 389.667969 C 522.820312 390.625 521.367188 391.546875 519.890625 392.429688 C 518.414062 393.316406 516.914062 394.164062 515.398438 394.976562 C 513.878906 395.789062 512.34375 396.5625 510.789062 397.296875 C 509.230469 398.03125 507.65625 398.730469 506.066406 399.386719 C 504.476562 400.046875 502.871094 400.667969 501.25 401.246094 C 499.632812 401.824219 497.996094 402.367188 496.351562 402.867188 C 494.703125 403.363281 493.046875 403.824219 491.375 404.242188 C 489.707031 404.660156 488.027344 405.039062 486.339844 405.375 C 484.652344 405.710938 482.957031 406.003906 481.253906 406.253906 C 479.550781 406.507812 477.84375 406.71875 476.128906 406.886719 C 474.417969 407.054688 472.699219 407.183594 470.980469 407.265625 C 469.261719 407.351562 467.542969 407.394531 465.820312 407.394531 C 464.101562 407.394531 462.378906 407.351562 460.660156 407.265625 C 458.941406 407.183594 457.226562 407.054688 455.511719 406.886719 C 453.800781 406.71875 452.09375 406.507812 450.390625 406.253906 C 448.6875 406.003906 446.992188 405.710938 445.304688 405.375 C 443.617188 405.039062 441.9375 404.660156 440.265625 404.242188 C 438.597656 403.824219 436.941406 403.363281 435.292969 402.867188 C 433.644531 402.367188 432.011719 401.824219 430.390625 401.246094 C 428.769531 400.667969 427.164062 400.046875 425.574219 399.386719 C 423.984375 398.730469 422.410156 398.03125 420.855469 397.296875 C 419.300781 396.5625 417.761719 395.789062 416.246094 394.976562 C 414.726562 394.164062 413.230469 393.316406 411.753906 392.429688 C 410.277344 391.546875 408.824219 390.625 407.390625 389.667969 C 405.960938 388.714844 404.554688 387.722656 403.171875 386.699219 C 401.789062 385.671875 400.433594 384.613281 399.101562 383.523438 C 397.773438 382.429688 396.46875 381.304688 395.195312 380.148438 C 393.917969 378.996094 392.671875 377.808594 391.457031 376.589844 C 390.238281 375.375 389.050781 374.128906 387.894531 372.851562 C 386.742188 371.578125 385.617188 370.273438 384.523438 368.945312 C 383.433594 367.613281 382.375 366.257812 381.347656 364.875 C 380.324219 363.492188 379.332031 362.085938 378.375 360.652344 C 377.421875 359.222656 376.5 357.769531 375.613281 356.292969 C 374.730469 354.816406 373.882812 353.320312 373.070312 351.800781 C 372.257812 350.285156 371.484375 348.746094 370.75 347.191406 C 370.011719 345.632812 369.316406 344.0625 368.65625 342.472656 C 368 340.882812 367.378906 339.277344 366.800781 337.65625 C 366.21875 336.035156 365.679688 334.402344 365.179688 332.753906 C 364.679688 331.105469 364.222656 329.449219 363.804688 327.777344 C 363.386719 326.109375 363.007812 324.429688 362.671875 322.742188 C 362.335938 321.054688 362.042969 319.359375 361.789062 317.65625 C 361.539062 315.953125 361.328125 314.246094 361.160156 312.53125 C 360.988281 310.820312 360.863281 309.105469 360.777344 307.386719 C 360.695312 305.667969 360.652344 303.945312 360.652344 302.226562 C 360.652344 300.503906 360.695312 298.785156 360.777344 297.0625 C 360.863281 295.34375 360.988281 293.628906 361.160156 291.917969 C 361.328125 290.203125 361.539062 288.496094 361.789062 286.792969 C 362.042969 285.089844 362.335938 283.394531 362.671875 281.707031 C 363.007812 280.019531 363.386719 278.339844 363.804688 276.671875 C 364.222656 275 364.679688 273.34375 365.179688 271.695312 C 365.679688 270.046875 366.21875 268.414062 366.800781 266.792969 C 367.378906 265.171875 368 263.570312 368.65625 261.976562 C 369.316406 260.386719 370.011719 258.816406 370.75 257.257812 C 371.484375 255.703125 372.257812 254.167969 373.070312 252.648438 C 373.882812 251.128906 374.730469 249.632812 375.613281 248.15625 C 376.5 246.679688 377.421875 245.226562 378.375 243.796875 C 379.332031 242.363281 380.324219 240.957031 381.347656 239.574219 C 382.375 238.191406 383.433594 236.835938 384.523438 235.507812 C 385.617188 234.175781 386.742188 232.871094 387.894531 231.597656 C 389.050781 230.320312 390.238281 229.074219 391.457031 227.859375 C 392.671875 226.640625 393.917969 225.457031 395.195312 224.300781 C 396.46875 223.144531 397.773438 222.019531 399.101562 220.929688 C 400.433594 219.835938 401.789062 218.777344 403.171875 217.75 C 404.554688 216.726562 405.960938 215.734375 407.394531 214.78125 C 408.824219 213.824219 410.277344 212.902344 411.753906 212.019531 C 413.230469 211.132812 414.726562 210.285156 416.246094 209.472656 C 417.761719 208.664062 419.300781 207.890625 420.855469 207.152344 C 422.410156 206.417969 423.984375 205.71875 425.574219 205.0625 C 427.164062 204.402344 428.769531 203.78125 430.390625 203.203125 C 432.011719 202.625 433.644531 202.082031 435.292969 201.582031 C 436.941406 201.085938 438.597656 200.625 440.265625 200.207031 C 441.9375 199.789062 443.617188 199.410156 445.304688 199.078125 C 446.992188 198.742188 448.6875 198.445312 450.390625 198.195312 C 452.09375 197.941406 453.800781 197.730469 455.511719 197.5625 C 457.226562 197.394531 458.941406 197.265625 460.660156 197.183594 C 462.378906 197.097656 464.101562 197.054688 465.820312 197.054688 C 467.542969 197.054688 469.261719 197.097656 470.980469 197.183594 C 472.699219 197.265625 474.417969 197.394531 476.128906 197.5625 C 477.84375 197.730469 479.550781 197.941406 481.253906 198.195312 C 482.957031 198.445312 484.652344 198.742188 486.339844 199.078125 C 488.027344 199.410156 489.707031 199.789062 491.375 200.207031 C 493.046875 200.625 494.703125 201.085938 496.351562 201.582031 C 497.996094 202.082031 499.632812 202.625 501.253906 203.203125 C 502.871094 203.78125 504.476562 204.402344 506.066406 205.0625 C 507.65625 205.71875 509.230469 206.417969 510.789062 207.152344 C 512.34375 207.890625 513.878906 208.664062 515.398438 209.472656 C 516.914062 210.285156 518.414062 211.132812 519.890625 212.019531 C 521.367188 212.902344 522.820312 213.824219 524.25 214.78125 C 525.679688 215.734375 527.089844 216.726562 528.472656 217.75 C 529.851562 218.777344 531.210938 219.835938 532.539062 220.929688 C 533.871094 222.019531 535.171875 223.144531 536.449219 224.300781 C 537.722656 225.457031 538.96875 226.640625 540.1875 227.859375 C 541.40625 229.074219 542.589844 230.320312 543.746094 231.597656 C 544.902344 232.871094 546.027344 234.175781 547.117188 235.507812 C 548.210938 236.835938 549.269531 238.191406 550.292969 239.574219 C 551.320312 240.957031 552.308594 242.363281 553.265625 243.796875 C 554.222656 245.226562 555.144531 246.679688 556.027344 248.15625 C 556.914062 249.632812 557.761719 251.128906 558.574219 252.648438 C 559.382812 254.167969 560.15625 255.703125 560.894531 257.257812 C 561.628906 258.816406 562.328125 260.386719 562.984375 261.976562 C 563.644531 263.566406 564.261719 265.171875 564.84375 266.792969 C 565.421875 268.414062 565.960938 270.046875 566.460938 271.695312 C 566.960938 273.34375 567.421875 275 567.839844 276.671875 C 568.257812 278.339844 568.632812 280.019531 568.96875 281.707031 C 569.304688 283.394531 569.601562 285.089844 569.851562 286.792969 C 570.105469 288.496094 570.316406 290.203125 570.484375 291.917969 C 570.652344 293.628906 570.78125 295.34375 570.863281 297.0625 C 570.949219 298.785156 570.992188 300.503906 570.992188 302.226562 Z M 570.992188 302.226562 " fill-opacity="1" fill-rule="nonzero"/><path fill="#a4acb3" d="M 80.199219 360.652344 L 220.425781 360.652344 L 220.425781 454.136719 L 80.199219 454.136719 Z M 80.199219 360.652344 " fill-opacity="1" fill-rule="nonzero"/><path fill="#a4acb3" d="M 547.621094 664.476562 C 547.621094 658.316406 548.421875 652.265625 550.027344 646.320312 C 551.628906 640.375 553.976562 634.742188 557.074219 629.417969 L 535.933594 629.417969 C 534.785156 629.417969 533.640625 629.476562 532.5 629.585938 C 531.355469 629.699219 530.222656 629.867188 529.09375 630.09375 C 527.96875 630.316406 526.855469 630.59375 525.757812 630.929688 C 524.660156 631.261719 523.578125 631.648438 522.519531 632.085938 C 521.457031 632.527344 520.421875 633.015625 519.410156 633.558594 C 518.394531 634.097656 517.414062 634.6875 516.457031 635.328125 C 515.503906 635.964844 514.582031 636.648438 513.695312 637.375 C 512.808594 638.105469 511.957031 638.875 511.144531 639.6875 C 510.332031 640.496094 509.5625 641.347656 508.835938 642.234375 C 508.105469 643.121094 507.425781 644.042969 506.785156 645 C 506.148438 645.953125 505.558594 646.9375 505.015625 647.949219 C 504.476562 648.960938 503.984375 650 503.546875 651.058594 C 503.105469 652.121094 502.722656 653.199219 502.386719 654.296875 C 502.054688 655.398438 501.777344 656.507812 501.550781 657.636719 C 501.328125 658.761719 501.160156 659.894531 501.046875 661.039062 C 500.933594 662.179688 500.878906 663.328125 500.878906 664.476562 C 500.878906 665.621094 500.933594 666.769531 501.046875 667.910156 C 501.160156 669.054688 501.328125 670.1875 501.550781 671.3125 C 501.777344 672.441406 502.054688 673.550781 502.386719 674.652344 C 502.722656 675.75 503.105469 676.828125 503.546875 677.890625 C 503.984375 678.949219 504.476562 679.988281 505.015625 681 C 505.558594 682.011719 506.148438 682.996094 506.785156 683.949219 C 507.425781 684.90625 508.105469 685.828125 508.835938 686.714844 C 509.5625 687.601562 510.332031 688.453125 511.144531 689.261719 C 511.957031 690.074219 512.808594 690.84375 513.695312 691.574219 C 514.582031 692.300781 515.503906 692.984375 516.457031 693.625 C 517.414062 694.261719 518.394531 694.851562 519.410156 695.390625 C 520.421875 695.933594 521.457031 696.421875 522.519531 696.863281 C 523.578125 697.300781 524.660156 697.6875 525.757812 698.023438 C 526.855469 698.355469 527.96875 698.632812 529.09375 698.859375 C 530.222656 699.082031 531.355469 699.25 532.5 699.363281 C 533.640625 699.476562 534.785156 699.53125 535.933594 699.53125 L 557.074219 699.53125 C 553.976562 694.207031 551.628906 688.574219 550.027344 682.628906 C 548.421875 676.683594 547.621094 670.632812 547.621094 664.476562 Z M 547.621094 664.476562 " fill-opacity="1" fill-rule="nonzero"/><path fill="#dce2e9" d="M 500.878906 664.476562 C 500.882812 662.332031 501.085938 660.203125 501.484375 658.097656 C 501.882812 655.992188 502.472656 653.9375 503.25 651.941406 C 504.027344 649.941406 504.984375 648.03125 506.113281 646.210938 C 507.246094 644.390625 508.535156 642.6875 509.980469 641.105469 L 442.449219 641.105469 C 441.683594 641.105469 440.921875 641.027344 440.171875 640.878906 C 439.417969 640.730469 438.6875 640.507812 437.980469 640.214844 C 437.269531 639.921875 436.597656 639.5625 435.957031 639.132812 C 435.320312 638.707031 434.730469 638.222656 434.1875 637.679688 C 433.644531 637.136719 433.160156 636.546875 432.734375 635.910156 C 432.308594 635.273438 431.949219 634.597656 431.65625 633.890625 C 431.359375 633.179688 431.140625 632.449219 430.988281 631.699219 C 430.839844 630.945312 430.765625 630.1875 430.765625 629.417969 L 430.765625 582.675781 C 430.765625 581.144531 430.691406 579.617188 430.539062 578.09375 C 430.390625 576.570312 430.164062 575.058594 429.867188 573.558594 C 429.566406 572.054688 429.195312 570.574219 428.753906 569.109375 C 428.308594 567.644531 427.792969 566.203125 427.207031 564.789062 C 426.621094 563.375 425.96875 561.992188 425.246094 560.640625 C 424.523438 559.292969 423.738281 557.980469 422.886719 556.707031 C 422.039062 555.433594 421.125 554.207031 420.15625 553.023438 C 419.183594 551.839844 418.15625 550.707031 417.074219 549.625 C 415.992188 548.542969 414.859375 547.515625 413.675781 546.542969 C 412.492188 545.574219 411.265625 544.664062 409.992188 543.8125 C 408.71875 542.960938 407.40625 542.175781 406.058594 541.453125 C 404.707031 540.730469 403.324219 540.078125 401.910156 539.492188 C 400.496094 538.90625 399.054688 538.390625 397.589844 537.945312 C 396.125 537.503906 394.644531 537.132812 393.140625 536.832031 C 391.640625 536.535156 390.128906 536.308594 388.605469 536.160156 C 387.082031 536.007812 385.554688 535.933594 384.023438 535.933594 L 185.371094 535.933594 C 184.601562 535.933594 183.84375 535.859375 183.089844 535.710938 C 182.335938 535.558594 181.605469 535.339844 180.898438 535.046875 C 180.1875 534.75 179.515625 534.390625 178.878906 533.964844 C 178.238281 533.539062 177.648438 533.054688 177.105469 532.511719 C 176.566406 531.96875 176.082031 531.378906 175.652344 530.742188 C 175.226562 530.101562 174.867188 529.429688 174.574219 528.722656 C 174.28125 528.011719 174.058594 527.28125 173.910156 526.527344 C 173.757812 525.777344 173.683594 525.015625 173.683594 524.25 L 173.683594 360.652344 L 126.941406 360.652344 L 126.941406 524.25 C 126.941406 526.164062 127.035156 528.070312 127.222656 529.976562 C 127.410156 531.878906 127.691406 533.769531 128.066406 535.648438 C 128.4375 537.523438 128.902344 539.378906 129.457031 541.210938 C 130.015625 543.039062 130.65625 544.839844 131.390625 546.609375 C 132.121094 548.375 132.941406 550.105469 133.839844 551.792969 C 134.742188 553.480469 135.726562 555.117188 136.789062 556.710938 C 137.851562 558.300781 138.992188 559.835938 140.203125 561.316406 C 141.417969 562.792969 142.703125 564.210938 144.054688 565.5625 C 145.410156 566.917969 146.824219 568.199219 148.304688 569.414062 C 149.785156 570.628906 151.316406 571.765625 152.910156 572.828125 C 154.5 573.894531 156.140625 574.875 157.828125 575.777344 C 159.515625 576.679688 161.242188 577.496094 163.011719 578.230469 C 164.777344 578.960938 166.578125 579.605469 168.410156 580.160156 C 170.242188 580.714844 172.09375 581.179688 173.972656 581.554688 C 175.847656 581.925781 177.738281 582.207031 179.644531 582.394531 C 181.546875 582.582031 183.457031 582.675781 185.371094 582.675781 L 372.335938 582.675781 C 373.105469 582.675781 373.863281 582.75 374.617188 582.902344 C 375.371094 583.050781 376.101562 583.273438 376.808594 583.566406 C 377.519531 583.859375 378.191406 584.21875 378.828125 584.644531 C 379.46875 585.070312 380.058594 585.554688 380.601562 586.097656 C 381.144531 586.640625 381.628906 587.230469 382.054688 587.871094 C 382.480469 588.507812 382.839844 589.179688 383.132812 589.890625 C 383.425781 590.597656 383.648438 591.328125 383.796875 592.082031 C 383.949219 592.835938 384.023438 593.59375 384.023438 594.363281 L 384.023438 629.417969 C 384.023438 631.332031 384.117188 633.242188 384.304688 635.144531 C 384.492188 637.050781 384.773438 638.941406 385.144531 640.816406 C 385.519531 642.695312 385.984375 644.546875 386.539062 646.378906 C 387.09375 648.210938 387.738281 650.007812 388.46875 651.777344 C 389.203125 653.546875 390.019531 655.273438 390.921875 656.960938 C 391.824219 658.648438 392.808594 660.289062 393.871094 661.878906 C 394.933594 663.46875 396.070312 665.003906 397.285156 666.484375 C 398.5 667.964844 399.78125 669.378906 401.136719 670.734375 C 402.488281 672.085938 403.90625 673.371094 405.382812 674.582031 C 406.863281 675.796875 408.398438 676.9375 409.988281 678 C 411.582031 679.0625 413.21875 680.042969 414.90625 680.945312 C 416.597656 681.847656 418.324219 682.664062 420.089844 683.398438 C 421.859375 684.128906 423.660156 684.773438 425.488281 685.328125 C 427.320312 685.886719 429.175781 686.351562 431.050781 686.722656 C 432.929688 687.097656 434.820312 687.375 436.722656 687.5625 C 438.628906 687.75 440.535156 687.847656 442.449219 687.847656 L 509.980469 687.847656 C 508.535156 686.261719 507.246094 684.558594 506.113281 682.738281 C 504.984375 680.917969 504.027344 679.007812 503.25 677.007812 C 502.472656 675.011719 501.882812 672.957031 501.484375 670.851562 C 501.085938 668.746094 500.882812 666.617188 500.878906 664.476562 Z M 500.878906 664.476562 " fill-opacity="1" fill-rule="nonzero"/><path fill="#a4acb3" d="M 664.476562 103.570312 L 734.585938 33.457031 L 103.570312 33.457031 L 33.457031 103.570312 Z M 664.476562 103.570312 " fill-opacity="1" fill-rule="nonzero"/><path fill="#b6bdc2" d="M 664.476562 500.878906 L 734.585938 430.765625 L 734.585938 33.457031 L 664.476562 103.570312 Z M 664.476562 500.878906 " fill-opacity="1" fill-rule="nonzero"/><path fill="#a4acb3" d="M 524.25 302.226562 C 524.25 304.136719 524.15625 306.046875 523.96875 307.953125 C 523.78125 309.855469 523.5 311.746094 523.125 313.625 C 522.753906 315.5 522.289062 317.355469 521.734375 319.183594 C 521.175781 321.015625 520.535156 322.816406 519.800781 324.582031 C 519.070312 326.351562 518.253906 328.078125 517.351562 329.765625 C 516.449219 331.453125 515.464844 333.09375 514.402344 334.683594 C 513.339844 336.277344 512.199219 337.8125 510.988281 339.289062 C 509.773438 340.769531 508.488281 342.1875 507.136719 343.539062 C 505.78125 344.890625 504.367188 346.175781 502.886719 347.390625 C 501.410156 348.605469 499.875 349.742188 498.28125 350.804688 C 496.691406 351.867188 495.050781 352.851562 493.363281 353.753906 C 491.675781 354.65625 489.949219 355.472656 488.179688 356.203125 C 486.414062 356.9375 484.613281 357.582031 482.78125 358.136719 C 480.949219 358.691406 479.097656 359.15625 477.21875 359.53125 C 475.34375 359.902344 473.453125 360.183594 471.546875 360.371094 C 469.644531 360.558594 467.734375 360.652344 465.820312 360.652344 C 463.90625 360.652344 462 360.558594 460.09375 360.371094 C 458.191406 360.183594 456.300781 359.902344 454.421875 359.53125 C 452.546875 359.15625 450.691406 358.691406 448.859375 358.136719 C 447.03125 357.582031 445.230469 356.9375 443.460938 356.203125 C 441.695312 355.472656 439.964844 354.65625 438.277344 353.753906 C 436.589844 352.851562 434.953125 351.867188 433.359375 350.804688 C 431.769531 349.742188 430.234375 348.605469 428.753906 347.390625 C 427.277344 346.175781 425.859375 344.890625 424.507812 343.539062 C 423.152344 342.1875 421.871094 340.769531 420.65625 339.289062 C 419.441406 337.8125 418.304688 336.277344 417.242188 334.683594 C 416.179688 333.09375 415.195312 331.453125 414.292969 329.765625 C 413.390625 328.078125 412.574219 326.351562 411.839844 324.582031 C 411.109375 322.816406 410.464844 321.015625 409.910156 319.183594 C 409.355469 317.355469 408.890625 315.5 408.515625 313.625 C 408.144531 311.746094 407.863281 309.855469 407.675781 307.953125 C 407.488281 306.046875 407.394531 304.136719 407.394531 302.226562 C 407.394531 300.3125 407.488281 298.402344 407.675781 296.496094 C 407.863281 294.59375 408.144531 292.703125 408.515625 290.824219 C 408.890625 288.949219 409.355469 287.09375 409.910156 285.265625 C 410.464844 283.433594 411.109375 281.632812 411.839844 279.867188 C 412.574219 278.097656 413.390625 276.371094 414.292969 274.683594 C 415.195312 272.996094 416.179688 271.355469 417.242188 269.765625 C 418.304688 268.171875 419.441406 266.636719 420.65625 265.160156 C 421.871094 263.679688 423.152344 262.261719 424.507812 260.910156 C 425.859375 259.558594 427.277344 258.273438 428.753906 257.058594 C 430.234375 255.847656 431.769531 254.707031 433.359375 253.644531 C 434.953125 252.582031 436.589844 251.597656 438.277344 250.695312 C 439.964844 249.792969 441.695312 248.976562 443.460938 248.246094 C 445.230469 247.511719 447.03125 246.867188 448.859375 246.3125 C 450.691406 245.757812 452.546875 245.292969 454.421875 244.921875 C 456.300781 244.546875 458.191406 244.265625 460.09375 244.078125 C 462 243.890625 463.90625 243.796875 465.820312 243.796875 C 467.734375 243.796875 469.644531 243.890625 471.546875 244.078125 C 473.453125 244.265625 475.34375 244.546875 477.21875 244.921875 C 479.097656 245.292969 480.949219 245.757812 482.78125 246.3125 C 484.613281 246.867188 486.414062 247.511719 488.179688 248.246094 C 489.949219 248.976562 491.675781 249.792969 493.363281 250.695312 C 495.050781 251.597656 496.691406 252.582031 498.28125 253.644531 C 499.875 254.707031 501.410156 255.847656 502.886719 257.058594 C 504.367188 258.273438 505.78125 259.558594 507.136719 260.910156 C 508.488281 262.261719 509.773438 263.679688 510.988281 265.160156 C 512.199219 266.636719 513.339844 268.171875 514.402344 269.765625 C 515.464844 271.355469 516.449219 272.996094 517.351562 274.683594 C 518.253906 276.371094 519.070312 278.097656 519.800781 279.867188 C 520.535156 281.632812 521.175781 283.433594 521.734375 285.265625 C 522.289062 287.09375 522.753906 288.949219 523.125 290.824219 C 523.5 292.703125 523.78125 294.59375 523.96875 296.496094 C 524.15625 298.402344 524.25 300.3125 524.25 302.226562 Z M 524.25 302.226562 " fill-opacity="1" fill-rule="nonzero"/><path fill="#f08735" d="M 80.199219 150.3125 L 267.167969 150.3125 L 267.167969 313.910156 L 80.199219 313.910156 Z M 80.199219 150.3125 " fill-opacity="1" fill-rule="nonzero"/><path fill="#dce2e9" d="M 687.847656 594.363281 L 687.847656 734.585938 L 617.734375 734.585938 C 616.585938 734.585938 615.4375 734.558594 614.292969 734.503906 C 613.148438 734.445312 612.003906 734.363281 610.859375 734.25 C 609.71875 734.136719 608.582031 733.996094 607.445312 733.828125 C 606.308594 733.660156 605.179688 733.464844 604.054688 733.242188 C 602.929688 733.015625 601.808594 732.765625 600.695312 732.488281 C 599.582031 732.207031 598.476562 731.902344 597.378906 731.570312 C 596.28125 731.234375 595.191406 730.875 594.113281 730.488281 C 593.03125 730.101562 591.960938 729.691406 590.902344 729.25 C 589.839844 728.8125 588.792969 728.347656 587.753906 727.855469 C 586.71875 727.367188 585.695312 726.851562 584.683594 726.308594 C 583.671875 725.769531 582.671875 725.203125 581.6875 724.613281 C 580.703125 724.023438 579.734375 723.410156 578.78125 722.769531 C 577.824219 722.132812 576.886719 721.472656 575.964844 720.789062 C 575.046875 720.105469 574.140625 719.402344 573.253906 718.671875 C 572.367188 717.945312 571.5 717.195312 570.648438 716.425781 C 569.796875 715.65625 568.96875 714.863281 568.15625 714.050781 C 567.34375 713.242188 566.554688 712.410156 565.78125 711.558594 C 565.011719 710.710938 564.261719 709.839844 563.535156 708.953125 C 562.808594 708.066406 562.101562 707.164062 561.417969 706.242188 C 560.734375 705.320312 560.074219 704.382812 559.4375 703.425781 C 558.796875 702.472656 558.183594 701.503906 557.59375 700.519531 C 557.003906 699.535156 556.441406 698.539062 555.898438 697.527344 C 555.359375 696.515625 554.84375 695.488281 554.351562 694.453125 C 553.859375 693.414062 553.394531 692.367188 552.957031 691.304688 C 552.519531 690.246094 552.105469 689.175781 551.71875 688.09375 C 551.332031 687.015625 550.972656 685.925781 550.640625 684.828125 C 550.304688 683.730469 550 682.625 549.722656 681.511719 C 549.441406 680.398438 549.191406 679.277344 548.96875 678.152344 C 548.742188 677.027344 548.546875 675.898438 548.378906 674.761719 C 548.210938 673.628906 548.070312 672.488281 547.957031 671.347656 C 547.84375 670.207031 547.761719 669.0625 547.703125 667.914062 C 547.648438 666.769531 547.621094 665.621094 547.621094 664.476562 C 547.621094 663.328125 547.648438 662.179688 547.703125 661.035156 C 547.761719 659.886719 547.84375 658.746094 547.957031 657.601562 C 548.070312 656.460938 548.210938 655.320312 548.378906 654.1875 C 548.546875 653.050781 548.742188 651.921875 548.96875 650.796875 C 549.191406 649.671875 549.441406 648.550781 549.722656 647.4375 C 550 646.324219 550.304688 645.21875 550.640625 644.121094 C 550.972656 643.023438 551.332031 641.933594 551.71875 640.855469 C 552.105469 639.773438 552.519531 638.703125 552.957031 637.644531 C 553.394531 636.582031 553.859375 635.535156 554.351562 634.496094 C 554.84375 633.460938 555.359375 632.4375 555.898438 631.421875 C 556.441406 630.410156 557.003906 629.414062 557.59375 628.429688 C 558.183594 627.445312 558.796875 626.476562 559.4375 625.523438 C 560.074219 624.566406 560.734375 623.628906 561.417969 622.707031 C 562.101562 621.785156 562.808594 620.882812 563.535156 619.996094 C 564.261719 619.109375 565.011719 618.238281 565.78125 617.390625 C 566.554688 616.539062 567.34375 615.707031 568.15625 614.898438 C 568.96875 614.085938 569.796875 613.296875 570.648438 612.523438 C 571.5 611.753906 572.367188 611.003906 573.253906 610.277344 C 574.140625 609.546875 575.046875 608.84375 575.964844 608.160156 C 576.886719 607.476562 577.828125 606.816406 578.78125 606.179688 C 579.734375 605.539062 580.703125 604.925781 581.6875 604.335938 C 582.671875 603.746094 583.671875 603.179688 584.683594 602.640625 C 585.695312 602.101562 586.71875 601.582031 587.753906 601.09375 C 588.792969 600.601562 589.839844 600.136719 590.902344 599.699219 C 591.960938 599.257812 593.03125 598.847656 594.113281 598.460938 C 595.191406 598.074219 596.28125 597.714844 597.378906 597.382812 C 598.476562 597.046875 599.582031 596.742188 600.695312 596.464844 C 601.808594 596.183594 602.929688 595.933594 604.054688 595.710938 C 605.179688 595.484375 606.308594 595.289062 607.445312 595.121094 C 608.582031 594.953125 609.71875 594.8125 610.859375 594.699219 C 612.003906 594.585938 613.148438 594.503906 614.292969 594.445312 C 615.4375 594.390625 616.585938 594.363281 617.734375 594.363281 Z M 687.847656 594.363281 " fill-opacity="1" fill-rule="nonzero"/><path fill="#a4acb3" d="M 687.847656 606.046875 L 734.585938 606.046875 L 734.585938 641.105469 L 687.847656 641.105469 Z M 687.847656 606.046875 " fill-opacity="1" fill-rule="nonzero"/><path fill="#a4acb3" d="M 687.847656 687.847656 L 734.585938 687.847656 L 734.585938 722.902344 L 687.847656 722.902344 Z M 687.847656 687.847656 " fill-opacity="1" fill-rule="nonzero"/><g clip-path="url(#7de43227ad)"><path fill="#000000" d="M 664.476562 512.5625 C 666.027344 512.5625 667.519531 512.265625 668.953125 511.671875 C 670.386719 511.074219 671.652344 510.226562 672.75 509.128906 L 742.859375 439.015625 C 743.953125 437.921875 744.796875 436.65625 745.386719 435.230469 C 745.976562 433.800781 746.273438 432.3125 746.273438 430.765625 L 746.273438 33.457031 L 746.167969 33.457031 C 746.203125 31.914062 745.941406 30.421875 745.386719 28.984375 C 744.941406 27.914062 744.355469 26.9375 743.621094 26.042969 C 742.886719 25.148438 742.039062 24.382812 741.078125 23.742188 C 740.117188 23.097656 739.085938 22.609375 737.980469 22.277344 C 736.875 21.941406 735.742188 21.773438 734.585938 21.773438 L 103.570312 21.773438 C 102.023438 21.773438 100.53125 22.070312 99.101562 22.664062 C 97.667969 23.257812 96.40625 24.101562 95.308594 25.195312 L 25.195312 95.308594 C 24.101562 96.40625 23.257812 97.667969 22.664062 99.101562 C 22.070312 100.53125 21.773438 102.023438 21.773438 103.570312 L 21.773438 500.878906 C 21.773438 501.644531 21.847656 502.40625 21.996094 503.15625 C 22.148438 503.910156 22.367188 504.640625 22.664062 505.351562 C 22.957031 506.058594 23.316406 506.730469 23.742188 507.371094 C 24.167969 508.007812 24.652344 508.597656 25.195312 509.140625 C 25.738281 509.683594 26.328125 510.167969 26.964844 510.59375 C 27.605469 511.019531 28.277344 511.378906 28.988281 511.675781 C 29.695312 511.96875 30.425781 512.1875 31.179688 512.339844 C 31.929688 512.488281 32.691406 512.5625 33.457031 512.5625 L 115.257812 512.5625 L 115.257812 524.25 C 115.257812 525.394531 115.289062 526.542969 115.34375 527.6875 C 115.402344 528.832031 115.488281 529.976562 115.601562 531.117188 C 115.714844 532.261719 115.855469 533.398438 116.023438 534.535156 C 116.195312 535.667969 116.390625 536.796875 116.617188 537.921875 C 116.839844 539.046875 117.09375 540.167969 117.371094 541.277344 C 117.652344 542.390625 117.957031 543.496094 118.292969 544.59375 C 118.625 545.691406 118.984375 546.78125 119.371094 547.859375 C 119.761719 548.941406 120.171875 550.007812 120.613281 551.070312 C 121.050781 552.128906 121.515625 553.175781 122.007812 554.214844 C 122.5 555.25 123.015625 556.273438 123.554688 557.285156 C 124.097656 558.296875 124.664062 559.296875 125.253906 560.277344 C 125.84375 561.261719 126.457031 562.230469 127.09375 563.183594 C 127.730469 564.140625 128.394531 565.078125 129.078125 565.996094 C 129.761719 566.917969 130.464844 567.824219 131.195312 568.710938 C 131.921875 569.597656 132.671875 570.464844 133.441406 571.3125 C 134.210938 572.164062 135.003906 572.996094 135.8125 573.804688 C 136.625 574.617188 137.453125 575.40625 138.304688 576.179688 C 139.15625 576.949219 140.023438 577.699219 140.910156 578.425781 C 141.796875 579.152344 142.699219 579.859375 143.621094 580.542969 C 144.542969 581.226562 145.480469 581.886719 146.433594 582.523438 C 147.386719 583.160156 148.355469 583.777344 149.339844 584.367188 C 150.324219 584.957031 151.320312 585.519531 152.332031 586.0625 C 153.34375 586.605469 154.367188 587.121094 155.40625 587.609375 C 156.441406 588.101562 157.488281 588.566406 158.550781 589.007812 C 159.609375 589.445312 160.679688 589.859375 161.757812 590.246094 C 162.839844 590.632812 163.925781 590.992188 165.023438 591.328125 C 166.121094 591.660156 167.226562 591.96875 168.339844 592.246094 C 169.453125 592.527344 170.570312 592.777344 171.695312 593.003906 C 172.820312 593.226562 173.953125 593.425781 175.085938 593.59375 C 176.21875 593.761719 177.359375 593.90625 178.5 594.019531 C 179.640625 594.132812 180.785156 594.21875 181.929688 594.273438 C 183.078125 594.332031 184.222656 594.359375 185.371094 594.363281 L 372.335938 594.363281 L 372.335938 629.417969 C 372.339844 630.566406 372.367188 631.710938 372.425781 632.859375 C 372.484375 634.003906 372.566406 635.148438 372.683594 636.289062 C 372.796875 637.429688 372.9375 638.566406 373.105469 639.703125 C 373.273438 640.835938 373.472656 641.96875 373.695312 643.089844 C 373.921875 644.214844 374.171875 645.335938 374.453125 646.449219 C 374.730469 647.5625 375.039062 648.664062 375.371094 649.761719 C 375.707031 650.859375 376.066406 651.949219 376.453125 653.03125 C 376.839844 654.109375 377.253906 655.179688 377.695312 656.238281 C 378.132812 657.296875 378.597656 658.347656 379.089844 659.382812 C 379.578125 660.417969 380.097656 661.445312 380.636719 662.457031 C 381.179688 663.46875 381.742188 664.464844 382.332031 665.449219 C 382.925781 666.433594 383.539062 667.402344 384.175781 668.355469 C 384.8125 669.308594 385.472656 670.246094 386.15625 671.167969 C 386.839844 672.089844 387.546875 672.992188 388.273438 673.878906 C 389.003906 674.765625 389.75 675.632812 390.519531 676.484375 C 391.292969 677.332031 392.082031 678.164062 392.894531 678.976562 C 393.703125 679.785156 394.535156 680.578125 395.386719 681.347656 C 396.234375 682.117188 397.105469 682.867188 397.992188 683.59375 C 398.878906 684.324219 399.78125 685.027344 400.703125 685.710938 C 401.625 686.394531 402.5625 687.054688 403.515625 687.695312 C 404.46875 688.332031 405.4375 688.945312 406.421875 689.535156 C 407.40625 690.125 408.402344 690.691406 409.414062 691.230469 C 410.425781 691.773438 411.449219 692.289062 412.484375 692.78125 C 413.523438 693.269531 414.570312 693.734375 415.628906 694.175781 C 416.691406 694.613281 417.757812 695.027344 418.839844 695.414062 C 419.917969 695.800781 421.007812 696.164062 422.105469 696.496094 C 423.203125 696.832031 424.308594 697.136719 425.421875 697.417969 C 426.535156 697.695312 427.652344 697.949219 428.777344 698.171875 C 429.902344 698.398438 431.03125 698.59375 432.167969 698.761719 C 433.300781 698.933594 434.4375 699.074219 435.582031 699.1875 C 436.722656 699.300781 437.867188 699.386719 439.011719 699.445312 C 440.15625 699.5 441.304688 699.53125 442.449219 699.53125 L 505.34375 699.53125 C 507.433594 701.390625 509.675781 703.042969 512.066406 704.496094 C 514.457031 705.945312 516.957031 707.171875 519.570312 708.167969 C 522.183594 709.167969 524.863281 709.921875 527.613281 710.433594 C 530.363281 710.945312 533.136719 711.207031 535.933594 711.214844 L 550.703125 711.214844 C 552.578125 713.910156 554.605469 716.480469 556.789062 718.929688 C 558.972656 721.378906 561.292969 723.6875 563.753906 725.859375 C 566.214844 728.027344 568.796875 730.039062 571.503906 731.898438 C 574.207031 733.757812 577.011719 735.445312 579.917969 736.96875 C 582.824219 738.488281 585.8125 739.828125 588.882812 740.988281 C 591.949219 742.148438 595.078125 743.121094 598.261719 743.90625 C 601.449219 744.691406 604.671875 745.28125 607.925781 745.675781 C 611.183594 746.070312 614.453125 746.269531 617.734375 746.273438 L 687.847656 746.273438 C 688.613281 746.273438 689.371094 746.199219 690.125 746.046875 C 690.878906 745.898438 691.609375 745.675781 692.316406 745.382812 C 693.027344 745.089844 693.699219 744.730469 694.335938 744.304688 C 694.976562 743.878906 695.566406 743.394531 696.109375 742.851562 C 696.652344 742.308594 697.136719 741.71875 697.5625 741.078125 C 697.988281 740.441406 698.347656 739.769531 698.640625 739.058594 C 698.933594 738.351562 699.15625 737.621094 699.304688 736.867188 C 699.457031 736.113281 699.53125 735.355469 699.53125 734.585938 L 734.585938 734.585938 C 735.355469 734.585938 736.113281 734.511719 736.867188 734.363281 C 737.621094 734.214844 738.351562 733.992188 739.058594 733.699219 C 739.769531 733.40625 740.441406 733.042969 741.078125 732.617188 C 741.71875 732.191406 742.308594 731.707031 742.851562 731.164062 C 743.394531 730.621094 743.878906 730.03125 744.304688 729.394531 C 744.730469 728.757812 745.089844 728.082031 745.382812 727.375 C 745.675781 726.664062 745.898438 725.933594 746.046875 725.183594 C 746.199219 724.429688 746.273438 723.667969 746.273438 722.902344 L 746.273438 687.847656 C 746.273438 687.078125 746.199219 686.320312 746.046875 685.566406 C 745.898438 684.8125 745.675781 684.082031 745.382812 683.375 C 745.089844 682.664062 744.730469 681.992188 744.304688 681.355469 C 743.878906 680.714844 743.394531 680.125 742.851562 679.582031 C 742.308594 679.039062 741.71875 678.554688 741.078125 678.128906 C 740.441406 677.703125 739.769531 677.34375 739.058594 677.050781 C 738.351562 676.757812 737.621094 676.535156 736.867188 676.382812 C 736.113281 676.234375 735.355469 676.160156 734.585938 676.160156 L 699.53125 676.160156 L 699.53125 652.789062 L 734.585938 652.789062 C 735.355469 652.789062 736.113281 652.714844 736.867188 652.566406 C 737.621094 652.414062 738.351562 652.191406 739.058594 651.898438 C 739.769531 651.605469 740.441406 651.246094 741.078125 650.820312 C 741.71875 650.394531 742.308594 649.910156 742.851562 649.367188 C 743.394531 648.824219 743.878906 648.234375 744.304688 647.597656 C 744.730469 646.957031 745.089844 646.285156 745.382812 645.574219 C 745.675781 644.867188 745.898438 644.136719 746.046875 643.382812 C 746.199219 642.632812 746.273438 641.871094 746.273438 641.105469 L 746.273438 606.046875 C 746.273438 605.28125 746.199219 604.519531 746.046875 603.765625 C 745.898438 603.015625 745.675781 602.285156 745.382812 601.574219 C 745.089844 600.867188 744.730469 600.191406 744.304688 599.554688 C 743.878906 598.917969 743.394531 598.328125 742.851562 597.785156 C 742.308594 597.242188 741.71875 596.757812 741.078125 596.332031 C 740.441406 595.90625 739.769531 595.546875 739.058594 595.25 C 738.351562 594.957031 737.621094 594.734375 736.867188 594.585938 C 736.113281 594.4375 735.355469 594.363281 734.585938 594.363281 L 699.53125 594.363281 C 699.53125 593.59375 699.457031 592.835938 699.308594 592.082031 C 699.15625 591.328125 698.933594 590.597656 698.640625 589.890625 C 698.347656 589.179688 697.988281 588.507812 697.5625 587.871094 C 697.136719 587.230469 696.652344 586.640625 696.109375 586.097656 C 695.566406 585.554688 694.976562 585.070312 694.335938 584.644531 C 693.699219 584.21875 693.027344 583.859375 692.316406 583.566406 C 691.609375 583.273438 690.878906 583.050781 690.125 582.902344 C 689.371094 582.75 688.613281 582.675781 687.847656 582.675781 L 617.734375 582.675781 C 614.453125 582.679688 611.183594 582.878906 607.925781 583.273438 C 604.671875 583.667969 601.449219 584.257812 598.261719 585.042969 C 595.078125 585.828125 591.949219 586.800781 588.882812 587.960938 C 585.8125 589.121094 582.824219 590.460938 579.917969 591.980469 C 577.011719 593.503906 574.207031 595.191406 571.503906 597.050781 C 568.796875 598.910156 566.214844 600.921875 563.753906 603.089844 C 561.292969 605.261719 558.972656 607.570312 556.789062 610.019531 C 554.605469 612.46875 552.578125 615.039062 550.703125 617.734375 L 535.933594 617.734375 C 533.136719 617.742188 530.363281 618.003906 527.613281 618.515625 C 524.863281 619.027344 522.183594 619.78125 519.570312 620.78125 C 516.957031 621.777344 514.457031 623.003906 512.066406 624.453125 C 509.675781 625.90625 507.433594 627.5625 505.34375 629.417969 L 442.449219 629.417969 L 442.449219 582.675781 C 442.449219 580.761719 442.351562 578.855469 442.164062 576.953125 C 441.972656 575.046875 441.691406 573.160156 441.316406 571.28125 C 440.941406 569.40625 440.476562 567.554688 439.917969 565.722656 C 439.363281 563.894531 438.71875 562.09375 437.984375 560.328125 C 437.25 558.5625 436.433594 556.835938 435.53125 555.148438 C 434.628906 553.460938 433.644531 551.824219 432.582031 550.234375 C 431.519531 548.640625 430.378906 547.109375 429.167969 545.628906 C 427.953125 544.152344 426.667969 542.734375 425.316406 541.382812 C 423.964844 540.03125 422.550781 538.746094 421.070312 537.53125 C 419.59375 536.320312 418.058594 535.179688 416.46875 534.117188 C 414.878906 533.054688 413.238281 532.070312 411.550781 531.167969 C 409.867188 530.265625 408.136719 529.449219 406.371094 528.714844 C 404.605469 527.980469 402.804688 527.335938 400.976562 526.78125 C 399.144531 526.222656 397.292969 525.757812 395.417969 525.382812 C 393.542969 525.007812 391.652344 524.726562 389.746094 524.535156 C 387.84375 524.347656 385.9375 524.25 384.023438 524.25 L 185.371094 524.25 L 185.371094 512.5625 Z M 722.902344 699.53125 L 722.902344 711.214844 L 699.53125 711.214844 L 699.53125 699.53125 Z M 722.902344 617.734375 L 722.902344 629.417969 L 699.53125 629.417969 L 699.53125 617.734375 Z M 676.160156 472.667969 L 676.160156 108.410156 L 722.902344 61.667969 L 722.902344 425.925781 Z M 108.410156 45.144531 L 706.378906 45.144531 L 659.636719 91.886719 L 61.667969 91.886719 Z M 45.144531 489.191406 L 45.144531 115.257812 L 652.789062 115.257812 L 652.789062 489.191406 L 185.371094 489.191406 L 185.371094 465.820312 L 220.425781 465.820312 C 221.195312 465.820312 221.953125 465.746094 222.707031 465.597656 C 223.457031 465.445312 224.1875 465.226562 224.898438 464.933594 C 225.605469 464.636719 226.28125 464.277344 226.917969 463.851562 C 227.554688 463.425781 228.148438 462.941406 228.6875 462.398438 C 229.230469 461.855469 229.714844 461.265625 230.140625 460.628906 C 230.570312 459.988281 230.929688 459.316406 231.222656 458.609375 C 231.515625 457.898438 231.738281 457.167969 231.886719 456.414062 C 232.035156 455.664062 232.113281 454.902344 232.113281 454.136719 L 232.113281 360.652344 C 232.113281 359.886719 232.035156 359.125 231.886719 358.371094 C 231.738281 357.621094 231.515625 356.890625 231.222656 356.179688 C 230.929688 355.472656 230.570312 354.796875 230.140625 354.160156 C 229.714844 353.523438 229.230469 352.933594 228.6875 352.390625 C 228.148438 351.847656 227.554688 351.363281 226.917969 350.9375 C 226.28125 350.507812 225.605469 350.148438 224.898438 349.855469 C 224.1875 349.5625 223.457031 349.339844 222.707031 349.191406 C 221.953125 349.042969 221.195312 348.964844 220.425781 348.964844 L 80.199219 348.964844 C 79.433594 348.964844 78.671875 349.042969 77.921875 349.191406 C 77.167969 349.339844 76.4375 349.5625 75.730469 349.855469 C 75.019531 350.148438 74.347656 350.511719 73.707031 350.9375 C 73.070312 351.363281 72.480469 351.847656 71.9375 352.390625 C 71.394531 352.933594 70.910156 353.523438 70.484375 354.160156 C 70.058594 354.796875 69.699219 355.472656 69.40625 356.179688 C 69.109375 356.890625 68.890625 357.621094 68.738281 358.371094 C 68.589844 359.125 68.515625 359.886719 68.515625 360.652344 L 68.515625 454.136719 C 68.515625 454.902344 68.589844 455.664062 68.738281 456.414062 C 68.890625 457.167969 69.109375 457.898438 69.40625 458.609375 C 69.699219 459.316406 70.058594 459.988281 70.484375 460.628906 C 70.910156 461.265625 71.394531 461.855469 71.9375 462.398438 C 72.480469 462.941406 73.070312 463.425781 73.707031 463.851562 C 74.347656 464.277344 75.019531 464.636719 75.730469 464.933594 C 76.4375 465.226562 77.167969 465.445312 77.921875 465.597656 C 78.671875 465.746094 79.433594 465.820312 80.199219 465.820312 L 115.257812 465.820312 L 115.257812 489.191406 Z M 208.742188 372.335938 L 208.742188 442.449219 L 185.371094 442.449219 L 185.371094 372.335938 Z M 115.257812 372.335938 L 115.257812 442.449219 L 91.886719 442.449219 L 91.886719 372.335938 Z M 676.160156 722.902344 L 652.789062 722.902344 L 652.789062 606.046875 L 676.160156 606.046875 Z M 617.734375 606.046875 L 629.417969 606.046875 L 629.417969 722.902344 L 617.734375 722.902344 C 615.820312 722.902344 613.910156 722.808594 612.007812 722.621094 C 610.101562 722.433594 608.210938 722.152344 606.335938 721.78125 C 604.457031 721.40625 602.601562 720.941406 600.773438 720.386719 C 598.941406 719.832031 597.140625 719.1875 595.375 718.453125 C 593.605469 717.722656 591.878906 716.90625 590.191406 716.003906 C 588.503906 715.101562 586.863281 714.117188 585.273438 713.054688 C 583.679688 711.992188 582.144531 710.855469 580.667969 709.640625 C 579.1875 708.425781 577.773438 707.140625 576.417969 705.789062 C 575.066406 704.4375 573.78125 703.019531 572.566406 701.539062 C 571.355469 700.0625 570.214844 698.527344 569.152344 696.933594 C 568.089844 695.34375 567.105469 693.703125 566.203125 692.015625 C 565.300781 690.328125 564.484375 688.601562 563.753906 686.832031 C 563.019531 685.066406 562.375 683.265625 561.820312 681.433594 C 561.265625 679.605469 560.800781 677.75 560.429688 675.875 C 560.054688 673.996094 559.773438 672.105469 559.585938 670.203125 C 559.398438 668.296875 559.304688 666.386719 559.304688 664.476562 C 559.304688 662.5625 559.398438 660.652344 559.585938 658.746094 C 559.773438 656.84375 560.054688 654.953125 560.429688 653.074219 C 560.800781 651.199219 561.265625 649.34375 561.820312 647.515625 C 562.375 645.683594 563.019531 643.882812 563.753906 642.117188 C 564.484375 640.347656 565.300781 638.621094 566.203125 636.933594 C 567.105469 635.246094 568.089844 633.605469 569.152344 632.015625 C 570.214844 630.421875 571.355469 628.886719 572.566406 627.410156 C 573.78125 625.929688 575.066406 624.511719 576.417969 623.160156 C 577.773438 621.808594 579.1875 620.523438 580.667969 619.308594 C 582.144531 618.097656 583.679688 616.957031 585.273438 615.894531 C 586.863281 614.832031 588.503906 613.847656 590.191406 612.945312 C 591.878906 612.042969 593.605469 611.226562 595.375 610.496094 C 597.140625 609.761719 598.941406 609.117188 600.773438 608.5625 C 602.601562 608.007812 604.457031 607.542969 606.335938 607.171875 C 608.210938 606.796875 610.101562 606.515625 612.007812 606.328125 C 613.910156 606.140625 615.820312 606.046875 617.734375 606.046875 Z M 535.933594 641.105469 L 539.441406 641.105469 C 538.296875 644.894531 537.4375 648.746094 536.859375 652.664062 C 536.28125 656.578125 535.992188 660.515625 535.992188 664.476562 C 535.992188 668.433594 536.28125 672.371094 536.859375 676.285156 C 537.4375 680.203125 538.296875 684.054688 539.441406 687.847656 L 535.933594 687.847656 C 535.167969 687.847656 534.40625 687.808594 533.644531 687.734375 C 532.882812 687.65625 532.125 687.546875 531.375 687.398438 C 530.625 687.246094 529.882812 687.0625 529.148438 686.839844 C 528.417969 686.617188 527.699219 686.359375 526.992188 686.066406 C 526.285156 685.773438 525.59375 685.445312 524.917969 685.085938 C 524.242188 684.726562 523.585938 684.332031 522.949219 683.90625 C 522.3125 683.480469 521.699219 683.027344 521.109375 682.539062 C 520.515625 682.054688 519.949219 681.542969 519.410156 681 C 518.867188 680.460938 518.355469 679.894531 517.867188 679.300781 C 517.382812 678.710938 516.925781 678.09375 516.503906 677.457031 C 516.078125 676.824219 515.683594 676.167969 515.324219 675.492188 C 514.960938 674.816406 514.636719 674.125 514.34375 673.417969 C 514.050781 672.710938 513.792969 671.992188 513.570312 671.257812 C 513.347656 670.527344 513.160156 669.785156 513.011719 669.035156 C 512.863281 668.285156 512.75 667.527344 512.675781 666.765625 C 512.601562 666.003906 512.5625 665.238281 512.5625 664.476562 C 512.5625 663.710938 512.601562 662.945312 512.675781 662.183594 C 512.75 661.421875 512.863281 660.664062 513.011719 659.914062 C 513.160156 659.164062 513.347656 658.421875 513.570312 657.691406 C 513.792969 656.957031 514.050781 656.238281 514.34375 655.53125 C 514.636719 654.824219 514.960938 654.132812 515.324219 653.457031 C 515.683594 652.78125 516.078125 652.125 516.503906 651.492188 C 516.925781 650.855469 517.382812 650.238281 517.867188 649.648438 C 518.355469 649.058594 518.867188 648.488281 519.410156 647.949219 C 519.949219 647.40625 520.515625 646.894531 521.109375 646.410156 C 521.699219 645.921875 522.3125 645.46875 522.949219 645.042969 C 523.585938 644.617188 524.242188 644.222656 524.917969 643.863281 C 525.59375 643.503906 526.285156 643.175781 526.992188 642.882812 C 527.699219 642.589844 528.417969 642.332031 529.148438 642.109375 C 529.882812 641.886719 530.625 641.703125 531.375 641.554688 C 532.125 641.402344 532.882812 641.292969 533.644531 641.214844 C 534.40625 641.140625 535.167969 641.105469 535.933594 641.105469 Z M 384.023438 547.621094 C 385.171875 547.621094 386.316406 547.675781 387.460938 547.789062 C 388.601562 547.902344 389.734375 548.070312 390.863281 548.292969 C 391.988281 548.515625 393.101562 548.796875 394.199219 549.128906 C 395.296875 549.460938 396.378906 549.847656 397.4375 550.289062 C 398.5 550.726562 399.535156 551.21875 400.546875 551.757812 C 401.5625 552.300781 402.542969 552.890625 403.5 553.527344 C 404.453125 554.164062 405.375 554.847656 406.261719 555.578125 C 407.148438 556.304688 408 557.074219 408.8125 557.886719 C 409.625 558.699219 410.394531 559.550781 411.121094 560.4375 C 411.851562 561.324219 412.535156 562.246094 413.171875 563.199219 C 413.808594 564.15625 414.398438 565.136719 414.941406 566.152344 C 415.480469 567.164062 415.972656 568.199219 416.410156 569.261719 C 416.851562 570.320312 417.238281 571.402344 417.570312 572.5 C 417.902344 573.597656 418.183594 574.710938 418.40625 575.835938 C 418.628906 576.964844 418.796875 578.097656 418.910156 579.242188 C 419.023438 580.382812 419.078125 581.527344 419.078125 582.675781 L 419.078125 629.417969 C 419.078125 630.183594 419.117188 630.949219 419.191406 631.710938 C 419.265625 632.472656 419.378906 633.226562 419.527344 633.976562 C 419.679688 634.726562 419.863281 635.46875 420.085938 636.203125 C 420.308594 636.933594 420.566406 637.65625 420.859375 638.363281 C 421.152344 639.070312 421.476562 639.761719 421.839844 640.433594 C 422.199219 641.109375 422.59375 641.765625 423.019531 642.402344 C 423.445312 643.039062 423.898438 643.652344 424.382812 644.246094 C 424.871094 644.835938 425.382812 645.402344 425.925781 645.945312 C 426.464844 646.484375 427.03125 647 427.625 647.484375 C 428.214844 647.96875 428.828125 648.425781 429.464844 648.851562 C 430.101562 649.277344 430.757812 649.667969 431.433594 650.03125 C 432.109375 650.390625 432.800781 650.71875 433.507812 651.011719 C 434.214844 651.304688 434.933594 651.5625 435.667969 651.78125 C 436.398438 652.003906 437.140625 652.191406 437.890625 652.339844 C 438.640625 652.488281 439.398438 652.601562 440.160156 652.675781 C 440.921875 652.75 441.683594 652.789062 442.449219 652.789062 L 490.851562 652.789062 C 489.746094 656.605469 489.191406 660.5 489.191406 664.476562 C 489.191406 668.449219 489.746094 672.34375 490.851562 676.160156 L 442.449219 676.160156 C 440.917969 676.160156 439.394531 676.085938 437.867188 675.933594 C 436.34375 675.785156 434.832031 675.5625 433.332031 675.261719 C 431.832031 674.964844 430.347656 674.59375 428.882812 674.148438 C 427.417969 673.703125 425.976562 673.1875 424.5625 672.601562 C 423.148438 672.015625 421.765625 671.363281 420.417969 670.640625 C 419.066406 669.917969 417.753906 669.132812 416.480469 668.28125 C 415.210938 667.433594 413.980469 666.519531 412.796875 665.550781 C 411.613281 664.578125 410.480469 663.550781 409.398438 662.46875 C 408.316406 661.386719 407.289062 660.253906 406.320312 659.070312 C 405.347656 657.886719 404.4375 656.660156 403.585938 655.386719 C 402.734375 654.113281 401.949219 652.800781 401.226562 651.453125 C 400.507812 650.101562 399.851562 648.71875 399.265625 647.304688 C 398.679688 645.890625 398.164062 644.453125 397.722656 642.988281 C 397.277344 641.523438 396.90625 640.039062 396.605469 638.539062 C 396.308594 637.035156 396.082031 635.523438 395.933594 634 C 395.785156 632.476562 395.707031 630.949219 395.707031 629.417969 L 395.707031 594.363281 C 395.707031 593.597656 395.671875 592.832031 395.597656 592.070312 C 395.519531 591.308594 395.410156 590.554688 395.257812 589.800781 C 395.109375 589.050781 394.925781 588.308594 394.703125 587.578125 C 394.480469 586.84375 394.222656 586.125 393.929688 585.417969 C 393.636719 584.710938 393.308594 584.019531 392.949219 583.34375 C 392.589844 582.667969 392.195312 582.015625 391.769531 581.378906 C 391.34375 580.742188 390.890625 580.128906 390.402344 579.535156 C 389.917969 578.945312 389.40625 578.378906 388.863281 577.835938 C 388.320312 577.292969 387.753906 576.78125 387.164062 576.296875 C 386.574219 575.808594 385.957031 575.355469 385.320312 574.929688 C 384.683594 574.503906 384.03125 574.109375 383.355469 573.75 C 382.679688 573.390625 381.988281 573.0625 381.28125 572.769531 C 380.574219 572.476562 379.855469 572.21875 379.121094 571.996094 C 378.390625 571.773438 377.648438 571.589844 376.898438 571.441406 C 376.144531 571.289062 375.390625 571.179688 374.628906 571.101562 C 373.867188 571.027344 373.101562 570.992188 372.335938 570.992188 L 185.371094 570.992188 C 183.839844 570.992188 182.3125 570.914062 180.789062 570.765625 C 179.265625 570.617188 177.753906 570.390625 176.25 570.09375 C 174.75 569.792969 173.265625 569.421875 171.800781 568.976562 C 170.335938 568.535156 168.898438 568.019531 167.484375 567.433594 C 166.066406 566.847656 164.6875 566.191406 163.335938 565.472656 C 161.984375 564.75 160.675781 563.964844 159.402344 563.113281 C 158.128906 562.261719 156.902344 561.351562 155.71875 560.382812 C 154.535156 559.410156 153.402344 558.382812 152.320312 557.300781 C 151.234375 556.21875 150.210938 555.085938 149.238281 553.902344 C 148.265625 552.71875 147.355469 551.488281 146.503906 550.21875 C 145.65625 548.945312 144.867188 547.632812 144.148438 546.28125 C 143.425781 544.933594 142.773438 543.550781 142.1875 542.136719 C 141.601562 540.722656 141.085938 539.28125 140.640625 537.816406 C 140.195312 536.351562 139.824219 534.871094 139.527344 533.367188 C 139.226562 531.867188 139.003906 530.355469 138.851562 528.832031 C 138.703125 527.308594 138.628906 525.78125 138.628906 524.25 L 138.628906 372.335938 L 162 372.335938 L 162 524.25 C 162 525.015625 162.035156 525.777344 162.113281 526.539062 C 162.1875 527.300781 162.296875 528.058594 162.449219 528.808594 C 162.597656 529.558594 162.78125 530.300781 163.003906 531.035156 C 163.226562 531.765625 163.484375 532.484375 163.777344 533.191406 C 164.070312 533.898438 164.398438 534.589844 164.757812 535.265625 C 165.121094 535.941406 165.511719 536.597656 165.9375 537.234375 C 166.363281 537.871094 166.820312 538.484375 167.304688 539.074219 C 167.789062 539.667969 168.304688 540.234375 168.84375 540.773438 C 169.386719 541.316406 169.953125 541.828125 170.542969 542.316406 C 171.136719 542.800781 171.75 543.257812 172.386719 543.679688 C 173.023438 544.105469 173.679688 544.5 174.351562 544.859375 C 175.027344 545.222656 175.71875 545.546875 176.425781 545.839844 C 177.132812 546.132812 177.851562 546.390625 178.585938 546.613281 C 179.316406 546.835938 180.058594 547.023438 180.808594 547.171875 C 181.5625 547.320312 182.316406 547.433594 183.078125 547.507812 C 183.839844 547.582031 184.605469 547.621094 185.371094 547.621094 Z M 384.023438 547.621094 " fill-opacity="1" fill-rule="nonzero"/></g><path fill="#000000" d="M 465.820312 465.820312 C 468.5 465.820312 471.175781 465.753906 473.847656 465.625 C 476.523438 465.492188 479.191406 465.296875 481.855469 465.035156 C 484.519531 464.769531 487.179688 464.445312 489.824219 464.050781 C 492.472656 463.65625 495.113281 463.199219 497.738281 462.679688 C 500.363281 462.15625 502.976562 461.570312 505.570312 460.917969 C 508.167969 460.269531 510.75 459.554688 513.3125 458.777344 C 515.875 458 518.414062 457.160156 520.9375 456.257812 C 523.457031 455.355469 525.953125 454.394531 528.425781 453.367188 C 530.902344 452.34375 533.347656 451.257812 535.769531 450.113281 C 538.1875 448.96875 540.578125 447.765625 542.941406 446.503906 C 545.300781 445.242188 547.628906 443.921875 549.925781 442.546875 C 552.222656 441.167969 554.484375 439.738281 556.710938 438.25 C 558.9375 436.761719 561.125 435.222656 563.277344 433.625 C 565.425781 432.03125 567.535156 430.386719 569.605469 428.6875 C 571.675781 426.988281 573.703125 425.238281 575.6875 423.441406 C 577.671875 421.644531 579.609375 419.796875 581.5 417.90625 C 583.394531 416.011719 585.242188 414.074219 587.039062 412.089844 C 588.835938 410.105469 590.585938 408.078125 592.285156 406.007812 C 593.980469 403.941406 595.628906 401.828125 597.222656 399.679688 C 598.820312 397.527344 600.359375 395.339844 601.847656 393.113281 C 603.335938 390.886719 604.765625 388.625 606.144531 386.332031 C 607.519531 384.035156 608.839844 381.703125 610.101562 379.34375 C 611.363281 376.984375 612.566406 374.589844 613.710938 372.171875 C 614.855469 369.75 615.941406 367.304688 616.964844 364.832031 C 617.988281 362.355469 618.953125 359.859375 619.855469 357.339844 C 620.757812 354.816406 621.597656 352.277344 622.375 349.714844 C 623.152344 347.152344 623.863281 344.574219 624.515625 341.976562 C 625.167969 339.378906 625.753906 336.765625 626.273438 334.140625 C 626.796875 331.515625 627.253906 328.878906 627.648438 326.230469 C 628.039062 323.582031 628.367188 320.925781 628.628906 318.261719 C 628.894531 315.59375 629.089844 312.925781 629.222656 310.253906 C 629.351562 307.578125 629.417969 304.902344 629.417969 302.226562 C 629.417969 299.546875 629.351562 296.871094 629.222656 294.199219 C 629.089844 291.523438 628.894531 288.855469 628.628906 286.191406 C 628.367188 283.523438 628.039062 280.867188 627.648438 278.21875 C 627.253906 275.570312 626.796875 272.933594 626.273438 270.308594 C 625.753906 267.683594 625.164062 265.070312 624.515625 262.472656 C 623.863281 259.875 623.152344 257.296875 622.375 254.734375 C 621.597656 252.171875 620.757812 249.632812 619.855469 247.109375 C 618.953125 244.589844 617.988281 242.09375 616.964844 239.617188 C 615.941406 237.144531 614.855469 234.699219 613.710938 232.277344 C 612.566406 229.859375 611.363281 227.46875 610.101562 225.105469 C 608.839844 222.746094 607.519531 220.414062 606.144531 218.121094 C 604.765625 215.824219 603.335938 213.5625 601.847656 211.335938 C 600.359375 209.109375 598.820312 206.921875 597.222656 204.769531 C 595.628906 202.621094 593.980469 200.507812 592.285156 198.441406 C 590.585938 196.371094 588.835938 194.34375 587.039062 192.359375 C 585.242188 190.375 583.394531 188.4375 581.5 186.542969 C 579.609375 184.652344 577.671875 182.804688 575.6875 181.007812 C 573.703125 179.210938 571.675781 177.460938 569.605469 175.761719 C 567.535156 174.0625 565.425781 172.417969 563.277344 170.824219 C 561.125 169.226562 558.9375 167.6875 556.710938 166.199219 C 554.484375 164.710938 552.222656 163.28125 549.925781 161.902344 C 547.628906 160.527344 545.300781 159.207031 542.941406 157.945312 C 540.578125 156.683594 538.1875 155.480469 535.769531 154.335938 C 533.347656 153.191406 530.902344 152.105469 528.425781 151.082031 C 525.953125 150.054688 523.457031 149.09375 520.9375 148.191406 C 518.414062 147.289062 515.875 146.449219 513.3125 145.671875 C 510.75 144.894531 508.167969 144.179688 505.570312 143.53125 C 502.976562 142.878906 500.363281 142.292969 497.738281 141.769531 C 495.113281 141.25 492.472656 140.792969 489.824219 140.398438 C 487.179688 140.003906 484.519531 139.679688 481.855469 139.414062 C 479.191406 139.152344 476.523438 138.957031 473.847656 138.824219 C 471.175781 138.695312 468.5 138.628906 465.820312 138.628906 C 463.144531 138.628906 460.46875 138.695312 457.792969 138.824219 C 455.121094 138.957031 452.449219 139.152344 449.785156 139.414062 C 447.121094 139.679688 444.464844 140.003906 441.816406 140.398438 C 439.167969 140.792969 436.53125 141.25 433.90625 141.769531 C 431.28125 142.292969 428.667969 142.878906 426.070312 143.53125 C 423.472656 144.179688 420.894531 144.894531 418.332031 145.671875 C 415.769531 146.449219 413.226562 147.289062 410.707031 148.191406 C 408.1875 149.09375 405.6875 150.054688 403.214844 151.082031 C 400.742188 152.105469 398.296875 153.191406 395.875 154.335938 C 393.453125 155.480469 391.0625 156.683594 388.703125 157.945312 C 386.339844 159.207031 384.011719 160.527344 381.714844 161.902344 C 379.417969 163.28125 377.15625 164.710938 374.933594 166.199219 C 372.707031 167.6875 370.515625 169.226562 368.367188 170.824219 C 366.214844 172.417969 364.105469 174.0625 362.035156 175.761719 C 359.96875 177.460938 357.941406 179.210938 355.957031 181.007812 C 353.972656 182.804688 352.035156 184.652344 350.140625 186.542969 C 348.246094 188.4375 346.402344 190.375 344.605469 192.359375 C 342.804688 194.34375 341.058594 196.371094 339.359375 198.441406 C 337.660156 200.507812 336.015625 202.621094 334.417969 204.769531 C 332.824219 206.921875 331.285156 209.109375 329.796875 211.335938 C 328.308594 213.5625 326.875 215.824219 325.5 218.121094 C 324.125 220.414062 322.804688 222.746094 321.542969 225.105469 C 320.28125 227.46875 319.078125 229.859375 317.933594 232.277344 C 316.785156 234.699219 315.703125 237.144531 314.679688 239.617188 C 313.652344 242.09375 312.691406 244.589844 311.789062 247.109375 C 310.886719 249.632812 310.046875 252.171875 309.269531 254.734375 C 308.492188 257.296875 307.777344 259.875 307.128906 262.472656 C 306.476562 265.070312 305.890625 267.683594 305.367188 270.308594 C 304.847656 272.933594 304.386719 275.570312 303.996094 278.21875 C 303.601562 280.867188 303.273438 283.523438 303.011719 286.191406 C 302.75 288.855469 302.554688 291.523438 302.421875 294.199219 C 302.289062 296.871094 302.226562 299.546875 302.226562 302.226562 C 302.226562 304.902344 302.296875 307.578125 302.429688 310.25 C 302.5625 312.921875 302.761719 315.589844 303.027344 318.253906 C 303.292969 320.917969 303.625 323.574219 304.019531 326.222656 C 304.414062 328.867188 304.871094 331.503906 305.398438 334.128906 C 305.921875 336.753906 306.511719 339.363281 307.160156 341.960938 C 307.8125 344.554688 308.53125 347.132812 309.308594 349.695312 C 310.085938 352.253906 310.929688 354.796875 311.832031 357.316406 C 312.734375 359.835938 313.699219 362.332031 314.726562 364.804688 C 315.75 367.277344 316.835938 369.722656 317.980469 372.140625 C 319.125 374.558594 320.332031 376.949219 321.59375 379.308594 C 322.855469 381.667969 324.175781 383.996094 325.554688 386.292969 C 326.929688 388.585938 328.363281 390.847656 329.851562 393.074219 C 331.335938 395.296875 332.878906 397.484375 334.472656 399.636719 C 336.066406 401.785156 337.714844 403.894531 339.414062 405.960938 C 341.113281 408.03125 342.859375 410.058594 344.65625 412.039062 C 346.453125 414.023438 348.300781 415.960938 350.191406 417.855469 C 352.085938 419.746094 354.023438 421.589844 356.007812 423.390625 C 357.988281 425.1875 360.015625 426.933594 362.082031 428.632812 C 364.152344 430.332031 366.261719 431.976562 368.410156 433.574219 C 370.5625 435.167969 372.75 436.710938 374.972656 438.195312 C 377.199219 439.683594 379.457031 441.117188 381.753906 442.492188 C 384.050781 443.871094 386.378906 445.191406 388.738281 446.453125 C 391.097656 447.714844 393.488281 448.917969 395.90625 450.066406 C 398.324219 451.210938 400.769531 452.296875 403.242188 453.320312 C 405.714844 454.347656 408.210938 455.3125 410.730469 456.214844 C 413.25 457.117188 415.789062 457.960938 418.351562 458.738281 C 420.914062 459.515625 423.492188 460.230469 426.085938 460.882812 C 428.683594 461.535156 431.292969 462.125 433.917969 462.648438 C 436.542969 463.171875 439.179688 463.632812 441.824219 464.027344 C 444.472656 464.421875 447.128906 464.753906 449.792969 465.019531 C 452.457031 465.28125 455.125 465.480469 457.796875 465.617188 C 460.46875 465.75 463.144531 465.820312 465.820312 465.820312 Z M 349.5625 313.910156 C 350.132812 319.585938 351.113281 325.191406 352.503906 330.726562 C 353.898438 336.257812 355.6875 341.660156 357.878906 346.929688 C 360.066406 352.199219 362.628906 357.277344 365.5625 362.171875 C 368.5 367.0625 371.777344 371.714844 375.398438 376.125 L 358.839844 392.683594 C 354.160156 387.164062 349.933594 381.316406 346.164062 375.140625 C 342.390625 368.964844 339.121094 362.535156 336.351562 355.851562 C 333.578125 349.167969 331.34375 342.308594 329.640625 335.277344 C 327.9375 328.242188 326.785156 321.121094 326.191406 313.910156 Z M 391.921875 392.648438 C 396.332031 396.269531 400.984375 399.546875 405.875 402.480469 C 410.769531 405.417969 415.847656 407.980469 421.117188 410.167969 C 426.386719 412.355469 431.789062 414.148438 437.320312 415.542969 C 442.855469 416.933594 448.457031 417.914062 454.136719 418.484375 L 454.136719 441.855469 C 446.925781 441.257812 439.800781 440.109375 432.769531 438.40625 C 425.738281 436.703125 418.878906 434.46875 412.195312 431.695312 C 405.511719 428.925781 399.078125 425.65625 392.90625 421.882812 C 386.730469 418.113281 380.882812 413.886719 375.363281 409.207031 Z M 419.078125 302.226562 C 419.078125 300.695312 419.15625 299.167969 419.304688 297.644531 C 419.453125 296.121094 419.679688 294.605469 419.976562 293.105469 C 420.277344 291.605469 420.648438 290.121094 421.09375 288.65625 C 421.535156 287.191406 422.050781 285.75 422.636719 284.335938 C 423.222656 282.921875 423.878906 281.539062 424.597656 280.191406 C 425.320312 278.839844 426.105469 277.527344 426.957031 276.257812 C 427.808594 274.984375 428.71875 273.753906 429.691406 272.570312 C 430.660156 271.386719 431.6875 270.253906 432.769531 269.171875 C 433.851562 268.089844 434.984375 267.0625 436.167969 266.09375 C 437.351562 265.121094 438.582031 264.210938 439.851562 263.359375 C 441.125 262.511719 442.4375 261.722656 443.789062 261.003906 C 445.136719 260.28125 446.519531 259.625 447.933594 259.039062 C 449.347656 258.453125 450.789062 257.941406 452.253906 257.496094 C 453.71875 257.050781 455.203125 256.679688 456.703125 256.382812 C 458.203125 256.082031 459.714844 255.859375 461.238281 255.707031 C 462.761719 255.558594 464.289062 255.484375 465.820312 255.484375 C 467.351562 255.484375 468.878906 255.558594 470.402344 255.707031 C 471.925781 255.859375 473.4375 256.082031 474.941406 256.382812 C 476.441406 256.679688 477.925781 257.050781 479.390625 257.496094 C 480.855469 257.941406 482.292969 258.453125 483.707031 259.039062 C 485.125 259.625 486.503906 260.28125 487.855469 261.003906 C 489.207031 261.722656 490.515625 262.507812 491.789062 263.359375 C 493.0625 264.210938 494.289062 265.121094 495.472656 266.09375 C 496.65625 267.0625 497.789062 268.089844 498.875 269.171875 C 499.957031 270.253906 500.984375 271.386719 501.953125 272.570312 C 502.925781 273.753906 503.835938 274.984375 504.6875 276.257812 C 505.535156 277.527344 506.324219 278.839844 507.042969 280.191406 C 507.765625 281.539062 508.417969 282.921875 509.003906 284.335938 C 509.589844 285.75 510.105469 287.191406 510.550781 288.65625 C 510.996094 290.121094 511.367188 291.605469 511.664062 293.105469 C 511.964844 294.605469 512.1875 296.121094 512.339844 297.644531 C 512.488281 299.167969 512.5625 300.695312 512.5625 302.226562 C 512.5625 303.753906 512.488281 305.28125 512.339844 306.804688 C 512.1875 308.328125 511.964844 309.84375 511.664062 311.34375 C 511.367188 312.84375 510.996094 314.328125 510.550781 315.792969 C 510.105469 317.257812 509.589844 318.699219 509.003906 320.113281 C 508.417969 321.527344 507.765625 322.910156 507.042969 324.257812 C 506.324219 325.609375 505.535156 326.921875 504.6875 328.191406 C 503.835938 329.464844 502.925781 330.695312 501.953125 331.878906 C 500.984375 333.0625 499.957031 334.195312 498.875 335.277344 C 497.789062 336.359375 496.65625 337.386719 495.472656 338.355469 C 494.289062 339.328125 493.0625 340.238281 491.789062 341.089844 C 490.515625 341.941406 489.207031 342.726562 487.855469 343.449219 C 486.503906 344.167969 485.125 344.824219 483.707031 345.410156 C 482.292969 345.996094 480.855469 346.507812 479.390625 346.953125 C 477.925781 347.398438 476.441406 347.769531 474.941406 348.070312 C 473.4375 348.367188 471.925781 348.589844 470.402344 348.742188 C 468.878906 348.890625 467.351562 348.964844 465.820312 348.964844 C 464.289062 348.964844 462.761719 348.890625 461.238281 348.742188 C 459.714844 348.589844 458.203125 348.367188 456.703125 348.070312 C 455.203125 347.769531 453.71875 347.398438 452.253906 346.953125 C 450.789062 346.507812 449.347656 345.996094 447.933594 345.410156 C 446.519531 344.824219 445.136719 344.167969 443.789062 343.449219 C 442.4375 342.726562 441.125 341.941406 439.851562 341.089844 C 438.582031 340.238281 437.351562 339.328125 436.167969 338.355469 C 434.984375 337.386719 433.851562 336.359375 432.769531 335.277344 C 431.6875 334.195312 430.660156 333.0625 429.691406 331.878906 C 428.71875 330.695312 427.808594 329.464844 426.957031 328.191406 C 426.105469 326.921875 425.320312 325.609375 424.597656 324.257812 C 423.878906 322.910156 423.222656 321.527344 422.636719 320.113281 C 422.050781 318.699219 421.535156 317.257812 421.09375 315.792969 C 420.648438 314.328125 420.277344 312.84375 419.976562 311.34375 C 419.679688 309.84375 419.453125 308.328125 419.304688 306.804688 C 419.15625 305.28125 419.078125 303.753906 419.078125 302.226562 Z M 477.507812 371.285156 C 482.710938 370.410156 487.75 368.960938 492.625 366.9375 C 497.5 364.914062 502.085938 362.371094 506.382812 359.308594 L 523.082031 375.984375 C 519.792969 378.546875 516.347656 380.878906 512.75 382.976562 C 509.148438 385.074219 505.421875 386.925781 501.574219 388.523438 C 497.722656 390.121094 493.785156 391.453125 489.753906 392.523438 C 485.726562 393.589844 481.644531 394.382812 477.507812 394.902344 Z M 506.382812 245.082031 C 502.082031 242.03125 497.496094 239.496094 492.621094 237.484375 C 487.746094 235.472656 482.707031 234.03125 477.507812 233.164062 L 477.507812 209.546875 C 481.644531 210.066406 485.726562 210.859375 489.753906 211.925781 C 493.785156 212.996094 497.722656 214.328125 501.574219 215.925781 C 505.421875 217.523438 509.148438 219.375 512.75 221.472656 C 516.347656 223.570312 519.792969 225.902344 523.082031 228.464844 Z M 454.136719 233.164062 C 448.933594 234.039062 443.894531 235.492188 439.019531 237.511719 C 434.144531 239.535156 429.558594 242.078125 425.261719 245.140625 L 408.5625 228.464844 C 411.851562 225.902344 415.292969 223.570312 418.894531 221.472656 C 422.496094 219.375 426.222656 217.523438 430.070312 215.925781 C 433.921875 214.328125 437.859375 212.996094 441.890625 211.925781 C 445.917969 210.859375 450 210.066406 454.136719 209.546875 Z M 425.261719 359.367188 C 429.5625 362.421875 434.148438 364.953125 439.023438 366.964844 C 443.898438 368.976562 448.933594 370.417969 454.136719 371.285156 L 454.136719 394.902344 C 450 394.382812 445.917969 393.589844 441.890625 392.523438 C 437.859375 391.453125 433.921875 390.121094 430.070312 388.523438 C 426.222656 386.925781 422.496094 385.074219 418.894531 382.976562 C 415.292969 380.878906 411.851562 378.546875 408.5625 375.984375 Z M 477.507812 418.484375 C 483.183594 417.914062 488.789062 416.933594 494.324219 415.542969 C 499.855469 414.148438 505.257812 412.355469 510.527344 410.167969 C 515.796875 407.980469 520.875 405.417969 525.769531 402.480469 C 530.660156 399.546875 535.3125 396.269531 539.71875 392.648438 L 556.277344 409.207031 C 550.761719 413.886719 544.914062 418.113281 538.738281 421.882812 C 532.5625 425.65625 526.132812 428.925781 519.449219 431.695312 C 512.765625 434.46875 505.90625 436.703125 498.875 438.40625 C 491.839844 440.109375 484.71875 441.257812 477.507812 441.855469 Z M 522.90625 342.785156 C 525.96875 338.488281 528.511719 333.902344 530.535156 329.027344 C 532.554688 324.152344 534.003906 319.113281 534.882812 313.910156 L 558.5 313.910156 C 557.980469 318.046875 557.1875 322.128906 556.117188 326.15625 C 555.050781 330.1875 553.71875 334.125 552.121094 337.976562 C 550.523438 341.824219 548.671875 345.550781 546.574219 349.152344 C 544.472656 352.753906 542.144531 356.195312 539.582031 359.484375 Z M 534.882812 290.539062 C 534.003906 285.335938 532.554688 280.296875 530.535156 275.421875 C 528.511719 270.546875 525.96875 265.960938 522.90625 261.664062 L 539.582031 244.964844 C 542.144531 248.253906 544.472656 251.695312 546.574219 255.296875 C 548.671875 258.898438 550.523438 262.625 552.121094 266.472656 C 553.71875 270.324219 555.050781 274.261719 556.117188 278.292969 C 557.1875 282.320312 557.980469 286.402344 558.5 290.539062 Z M 539.71875 211.800781 C 535.3125 208.183594 530.660156 204.902344 525.769531 201.96875 C 520.875 199.03125 515.792969 196.46875 510.527344 194.28125 C 505.257812 192.09375 499.855469 190.300781 494.324219 188.910156 C 488.789062 187.515625 483.183594 186.535156 477.507812 185.964844 L 477.507812 162.59375 C 484.71875 163.191406 491.839844 164.339844 498.875 166.042969 C 505.90625 167.746094 512.765625 169.984375 519.449219 172.753906 C 526.132812 175.523438 532.5625 178.792969 538.738281 182.566406 C 544.914062 186.335938 550.761719 190.5625 556.277344 195.246094 Z M 454.136719 185.964844 C 448.457031 186.535156 442.855469 187.515625 437.320312 188.910156 C 431.789062 190.300781 426.386719 192.09375 421.117188 194.28125 C 415.847656 196.46875 410.765625 199.03125 405.875 201.96875 C 400.984375 204.902344 396.332031 208.183594 391.921875 211.800781 L 375.363281 195.246094 C 380.882812 190.5625 386.730469 186.335938 392.90625 182.566406 C 399.078125 178.792969 405.511719 175.523438 412.195312 172.753906 C 418.878906 169.984375 425.738281 167.746094 432.769531 166.042969 C 439.800781 164.339844 446.925781 163.191406 454.136719 162.59375 Z M 408.738281 261.664062 C 405.675781 265.960938 403.132812 270.546875 401.109375 275.421875 C 399.085938 280.296875 397.636719 285.335938 396.761719 290.539062 L 373.144531 290.539062 C 373.664062 286.402344 374.457031 282.320312 375.523438 278.292969 C 376.59375 274.261719 377.925781 270.324219 379.523438 266.472656 C 381.121094 262.625 382.96875 258.898438 385.070312 255.296875 C 387.167969 251.695312 389.5 248.253906 392.0625 244.964844 Z M 396.761719 313.910156 C 397.636719 319.113281 399.085938 324.152344 401.109375 329.027344 C 403.132812 333.902344 405.675781 338.488281 408.738281 342.785156 L 392.0625 359.484375 C 389.5 356.195312 387.167969 352.753906 385.070312 349.152344 C 382.96875 345.550781 381.121094 341.824219 379.523438 337.976562 C 377.925781 334.125 376.59375 330.1875 375.523438 326.15625 C 374.457031 322.128906 373.664062 318.046875 373.144531 313.910156 Z M 572.800781 392.683594 L 556.242188 376.125 C 559.863281 371.714844 563.144531 367.0625 566.078125 362.171875 C 569.015625 357.277344 571.578125 352.199219 573.765625 346.929688 C 575.953125 341.660156 577.746094 336.257812 579.136719 330.726562 C 580.53125 325.191406 581.511719 319.585938 582.082031 313.910156 L 605.453125 313.910156 C 604.855469 321.121094 603.707031 328.242188 602.003906 335.277344 C 600.300781 342.308594 598.0625 349.167969 595.292969 355.851562 C 592.523438 362.535156 589.25 368.964844 585.480469 375.140625 C 581.710938 381.316406 577.484375 387.164062 572.800781 392.683594 Z M 605.453125 290.539062 L 582.082031 290.539062 C 581.511719 284.863281 580.53125 279.257812 579.136719 273.722656 C 577.746094 268.191406 575.953125 262.789062 573.765625 257.519531 C 571.578125 252.25 569.015625 247.171875 566.078125 242.277344 C 563.144531 237.386719 559.863281 232.734375 556.242188 228.324219 L 572.800781 211.765625 C 577.484375 217.285156 581.710938 223.132812 585.480469 229.308594 C 589.25 235.484375 592.523438 241.914062 595.292969 248.597656 C 598.0625 255.28125 600.300781 262.140625 602.003906 269.171875 C 603.707031 276.207031 604.855469 283.328125 605.453125 290.539062 Z M 358.886719 211.765625 L 375.445312 228.324219 C 371.820312 232.734375 368.539062 237.382812 365.597656 242.277344 C 362.660156 247.167969 360.09375 252.246094 357.898438 257.515625 C 355.707031 262.785156 353.914062 268.1875 352.515625 273.722656 C 351.117188 279.253906 350.132812 284.859375 349.5625 290.539062 L 326.191406 290.539062 C 326.785156 283.328125 327.9375 276.207031 329.640625 269.171875 C 331.34375 262.140625 333.578125 255.28125 336.351562 248.597656 C 339.121094 241.914062 342.390625 235.484375 346.164062 229.308594 C 349.933594 223.132812 354.160156 217.285156 358.839844 211.765625 Z M 358.886719 211.765625 " fill-opacity="1" fill-rule="nonzero"/><path fill="#000000" d="M 80.199219 325.597656 L 267.167969 325.597656 C 267.9375 325.597656 268.695312 325.519531 269.449219 325.371094 C 270.199219 325.222656 270.929688 325 271.640625 324.707031 C 272.347656 324.414062 273.023438 324.050781 273.660156 323.625 C 274.296875 323.199219 274.890625 322.714844 275.429688 322.171875 C 275.972656 321.628906 276.457031 321.039062 276.882812 320.402344 C 277.3125 319.765625 277.671875 319.089844 277.964844 318.382812 C 278.257812 317.671875 278.480469 316.941406 278.628906 316.191406 C 278.777344 315.4375 278.855469 314.675781 278.855469 313.910156 L 278.855469 150.3125 C 278.855469 149.546875 278.777344 148.785156 278.628906 148.035156 C 278.480469 147.28125 278.257812 146.550781 277.964844 145.839844 C 277.671875 145.132812 277.3125 144.460938 276.882812 143.820312 C 276.457031 143.183594 275.972656 142.59375 275.429688 142.050781 C 274.890625 141.507812 274.296875 141.023438 273.660156 140.597656 C 273.023438 140.171875 272.347656 139.8125 271.640625 139.515625 C 270.929688 139.222656 270.199219 139.003906 269.449219 138.851562 C 268.695312 138.703125 267.9375 138.628906 267.167969 138.628906 L 80.199219 138.628906 C 79.433594 138.628906 78.671875 138.703125 77.921875 138.851562 C 77.167969 139.003906 76.4375 139.222656 75.730469 139.515625 C 75.019531 139.8125 74.347656 140.171875 73.707031 140.597656 C 73.070312 141.023438 72.480469 141.507812 71.9375 142.050781 C 71.394531 142.59375 70.910156 143.183594 70.484375 143.820312 C 70.058594 144.460938 69.699219 145.132812 69.40625 145.839844 C 69.109375 146.550781 68.890625 147.28125 68.738281 148.035156 C 68.589844 148.785156 68.515625 149.546875 68.515625 150.3125 L 68.515625 313.910156 C 68.515625 314.675781 68.589844 315.4375 68.738281 316.191406 C 68.890625 316.941406 69.109375 317.671875 69.40625 318.382812 C 69.699219 319.089844 70.058594 319.765625 70.484375 320.402344 C 70.910156 321.039062 71.394531 321.628906 71.9375 322.171875 C 72.480469 322.714844 73.070312 323.199219 73.707031 323.625 C 74.347656 324.050781 75.019531 324.414062 75.730469 324.707031 C 76.4375 325 77.167969 325.222656 77.921875 325.371094 C 78.671875 325.519531 79.433594 325.597656 80.199219 325.597656 Z M 91.886719 162 L 255.484375 162 L 255.484375 302.226562 L 91.886719 302.226562 Z M 91.886719 162 " fill-opacity="1" fill-rule="nonzero"/><path fill="#000000" d="M 168.648438 245.609375 L 191.855469 230.148438 C 192.214844 229.910156 192.558594 229.652344 192.886719 229.375 C 193.21875 229.097656 193.53125 228.800781 193.828125 228.492188 C 194.125 228.179688 194.40625 227.851562 194.664062 227.507812 C 194.925781 227.167969 195.167969 226.808594 195.390625 226.441406 C 195.613281 226.070312 195.8125 225.691406 195.992188 225.300781 C 196.171875 224.90625 196.328125 224.507812 196.464844 224.097656 C 196.597656 223.6875 196.710938 223.273438 196.800781 222.851562 C 196.890625 222.429688 196.957031 222.003906 197 221.578125 C 197.039062 221.148438 197.058594 220.71875 197.054688 220.289062 C 197.050781 219.855469 197.019531 219.425781 196.96875 219 C 196.914062 218.574219 196.839844 218.148438 196.738281 217.730469 C 196.640625 217.3125 196.515625 216.898438 196.371094 216.492188 C 196.226562 216.085938 196.058594 215.691406 195.871094 215.304688 C 195.683594 214.917969 195.472656 214.539062 195.242188 214.175781 C 195.011719 213.8125 194.761719 213.460938 194.492188 213.125 C 194.222656 212.789062 193.9375 212.46875 193.632812 212.164062 L 158.574219 177.109375 C 158.03125 176.582031 157.4375 176.113281 156.800781 175.699219 C 156.164062 175.289062 155.492188 174.941406 154.789062 174.660156 C 154.082031 174.378906 153.359375 174.167969 152.613281 174.027344 C 151.867188 173.890625 151.113281 173.820312 150.355469 173.828125 C 149.597656 173.835938 148.847656 173.914062 148.101562 174.066406 C 147.359375 174.222656 146.636719 174.445312 145.9375 174.738281 C 145.238281 175.03125 144.574219 175.390625 143.945312 175.8125 C 143.3125 176.234375 142.730469 176.714844 142.195312 177.25 C 141.65625 177.789062 141.179688 178.371094 140.753906 179 C 140.332031 179.628906 139.972656 180.296875 139.679688 180.996094 C 139.386719 181.695312 139.164062 182.417969 139.011719 183.160156 C 138.859375 183.902344 138.777344 184.652344 138.773438 185.410156 C 138.765625 186.171875 138.832031 186.921875 138.972656 187.667969 C 139.113281 188.414062 139.324219 189.140625 139.605469 189.84375 C 139.886719 190.550781 140.230469 191.21875 140.644531 191.855469 C 141.054688 192.496094 141.523438 193.085938 142.050781 193.632812 L 167.035156 218.613281 L 143.828125 234.074219 C 143.46875 234.3125 143.125 234.574219 142.796875 234.847656 C 142.464844 235.125 142.152344 235.421875 141.855469 235.734375 C 141.558594 236.046875 141.277344 236.371094 141.019531 236.714844 C 140.757812 237.058594 140.515625 237.414062 140.292969 237.785156 C 140.070312 238.152344 139.871094 238.53125 139.691406 238.925781 C 139.511719 239.316406 139.355469 239.714844 139.21875 240.125 C 139.085938 240.535156 138.972656 240.949219 138.882812 241.371094 C 138.792969 241.792969 138.726562 242.21875 138.683594 242.648438 C 138.644531 243.074219 138.625 243.503906 138.628906 243.9375 C 138.632812 244.367188 138.664062 244.796875 138.714844 245.222656 C 138.769531 245.652344 138.84375 246.074219 138.945312 246.492188 C 139.042969 246.914062 139.167969 247.324219 139.3125 247.730469 C 139.457031 248.136719 139.625 248.53125 139.8125 248.921875 C 140 249.308594 140.210938 249.683594 140.441406 250.046875 C 140.671875 250.410156 140.921875 250.761719 141.191406 251.097656 C 141.460938 251.433594 141.746094 251.753906 142.050781 252.058594 L 177.109375 287.117188 C 177.652344 287.640625 178.246094 288.113281 178.882812 288.523438 C 179.519531 288.9375 180.191406 289.28125 180.894531 289.5625 C 181.601562 289.84375 182.324219 290.054688 183.070312 290.195312 C 183.816406 290.335938 184.570312 290.402344 185.328125 290.394531 C 186.085938 290.386719 186.835938 290.308594 187.582031 290.15625 C 188.324219 290.003906 189.046875 289.78125 189.746094 289.488281 C 190.445312 289.191406 191.109375 288.835938 191.738281 288.410156 C 192.371094 287.988281 192.953125 287.507812 193.488281 286.972656 C 194.027344 286.4375 194.503906 285.851562 194.929688 285.222656 C 195.351562 284.59375 195.710938 283.929688 196.003906 283.230469 C 196.296875 282.527344 196.519531 281.808594 196.671875 281.066406 C 196.824219 280.320312 196.90625 279.570312 196.910156 278.8125 C 196.917969 278.054688 196.851562 277.300781 196.710938 276.554688 C 196.570312 275.808594 196.359375 275.085938 196.078125 274.378906 C 195.796875 273.675781 195.453125 273.003906 195.039062 272.367188 C 194.628906 271.730469 194.160156 271.136719 193.632812 270.59375 Z M 168.648438 245.609375 " fill-opacity="1" fill-rule="nonzero"/></svg>