<svg xmlns="http://www.w3.org/2000/svg" xmlns:xlink="http://www.w3.org/1999/xlink" width="1024" zoomAndPan="magnify" viewBox="0 0 768 767.999994" height="1024" preserveAspectRatio="xMidYMid meet" version="1.0"><defs><clipPath id="fff49d94d4"><path d="M 91 18.152344 L 679 18.152344 L 679 416 L 91 416 Z M 91 18.152344 " clip-rule="nonzero"/></clipPath></defs><path fill="#283f52" d="M 1.453125 652.570312 C -0.0351562 656.914062 2.277344 661.648438 6.625 663.136719 C 7.535156 663.449219 758.835938 664.003906 761.359375 663.136719 C 765.707031 661.648438 768.023438 656.914062 766.53125 652.570312 L 693.066406 439.550781 C 689.652344 429.648438 685.277344 420.023438 678.910156 412.605469 C 671.84375 404.375 662.667969 399.035156 650.300781 399.035156 L 117.683594 399.035156 C 105.320312 399.035156 96.140625 404.375 89.074219 412.605469 C 82.707031 420.019531 78.332031 429.648438 74.917969 439.550781 Z M 1.453125 652.570312 " fill-opacity="1" fill-rule="nonzero"/><g clip-path="url(#fff49d94d4)"><path fill="#304556" d="M 647.457031 415.683594 C 656.042969 415.683594 663.84375 412.175781 669.496094 406.527344 C 675.144531 400.878906 678.652344 393.078125 678.652344 384.492188 L 678.652344 49.164062 C 678.652344 40.578125 675.144531 32.777344 669.496094 27.128906 C 663.84375 21.480469 656.042969 17.972656 647.457031 17.972656 L 122.367188 17.972656 C 113.78125 17.972656 105.976562 21.480469 100.328125 27.128906 C 94.679688 32.777344 91.171875 40.578125 91.171875 49.164062 L 91.171875 384.492188 C 91.171875 393.078125 94.679688 400.878906 100.328125 406.527344 C 105.976562 412.175781 113.78125 415.683594 122.367188 415.683594 C 297.421875 415.683594 472.449219 415.683594 647.457031 415.683594 Z M 647.457031 415.683594 " fill-opacity="1" fill-rule="nonzero"/></g><path fill="#ffffff" d="M 629.667969 375.039062 L 140.144531 375.039062 C 135.546875 375.039062 131.820312 371.3125 131.820312 366.714844 L 131.820312 66.945312 C 131.820312 62.347656 135.546875 58.621094 140.144531 58.621094 L 629.667969 58.621094 C 634.269531 58.621094 637.996094 62.347656 637.996094 66.945312 L 637.996094 366.714844 C 637.996094 371.3125 634.269531 375.039062 629.667969 375.039062 Z M 629.667969 375.039062 " fill-opacity="1" fill-rule="nonzero"/><path fill="#76bedd" d="M 272.121094 375.039062 L 256.0625 375.039062 C 255.652344 370.519531 255.417969 367.480469 255.417969 366.714844 C 255.417969 334.886719 242.515625 306.070312 221.660156 285.214844 C 200.800781 264.359375 171.980469 251.460938 140.148438 251.460938 C 139.3125 251.460938 136.253906 251.511719 131.824219 251.570312 L 131.824219 235.625 C 136.253906 235.109375 139.3125 234.808594 140.148438 234.808594 C 176.578125 234.808594 209.558594 249.574219 233.433594 273.445312 C 257.304688 297.3125 272.074219 330.289062 272.074219 366.714844 C 272.074219 367.480469 272.097656 370.519531 272.121094 375.039062 Z M 272.121094 375.039062 " fill-opacity="1" fill-rule="nonzero"/><path fill="#76bedd" d="M 498.703125 58.621094 L 514.582031 58.621094 C 514.480469 63.003906 514.398438 66.070312 514.398438 66.945312 C 514.398438 98.769531 527.304688 127.585938 548.160156 148.441406 C 569.019531 169.296875 597.839844 182.199219 629.671875 182.199219 C 630.28125 182.199219 633.285156 182.207031 637.996094 182.226562 L 637.996094 198.496094 C 633.285156 198.722656 630.28125 198.847656 629.671875 198.847656 C 593.242188 198.847656 560.261719 184.082031 536.386719 160.214844 C 512.515625 136.34375 497.746094 103.367188 497.746094 66.945312 C 497.746094 66.070312 498.101562 63.003906 498.703125 58.621094 Z M 498.703125 58.621094 " fill-opacity="1" fill-rule="nonzero"/><path fill="#304556" d="M 9.324219 646.941406 L 758.664062 646.941406 C 763.261719 646.941406 766.988281 650.667969 766.988281 655.265625 L 766.988281 698.421875 C 766.988281 712.585938 761.199219 725.457031 751.871094 734.785156 C 742.542969 744.109375 729.667969 749.898438 715.5 749.898438 L 52.488281 749.898438 C 38.320312 749.898438 25.445312 744.109375 16.121094 734.785156 C 6.792969 725.457031 1 712.585938 1 698.421875 L 1 655.265625 C 1 650.667969 4.730469 646.941406 9.328125 646.941406 Z M 9.324219 646.941406 " fill-opacity="1" fill-rule="nonzero"/><path fill="#455867" d="M 638.160156 749.898438 L 129.804688 749.898438 C 129.671875 745.054688 129.617188 741.886719 129.648438 741.183594 C 130.363281 726.957031 136.648438 714.15625 146.34375 704.941406 C 156.011719 695.75 169.054688 690.09375 183.339844 690.09375 L 584.644531 690.09375 C 598.929688 690.09375 611.972656 695.75 621.640625 704.941406 C 631.335938 714.15625 637.621094 726.957031 638.335938 741.183594 C 638.371094 741.921875 638.304688 745.101562 638.15625 749.898438 Z M 638.160156 749.898438 " fill-opacity="1" fill-rule="nonzero"/><path fill="#929da5" d="M 93.382812 536.019531 L 121.917969 441.691406 C 122.871094 438.144531 126.109375 435.53125 129.957031 435.53125 L 638.425781 435.53125 C 642.070312 435.46875 645.457031 437.824219 646.542969 441.488281 L 646.53125 441.515625 L 674.429688 535.480469 C 674.773438 536.398438 674.964844 537.390625 674.964844 538.429688 C 674.964844 543.027344 671.238281 546.753906 666.640625 546.753906 L 101.484375 546.753906 C 100.644531 546.765625 99.789062 546.652344 98.941406 546.398438 C 94.539062 545.066406 92.050781 540.417969 93.378906 536.019531 Z M 93.382812 536.019531 " fill-opacity="1" fill-rule="nonzero"/><path fill="#929da5" d="M 497.40625 627.09375 L 270.71875 627.09375 C 269.9375 627.109375 269.140625 627.011719 268.351562 626.789062 C 263.921875 625.558594 261.328125 620.96875 262.5625 616.539062 L 262.585938 616.546875 L 277.101562 564.378906 C 277.84375 560.542969 281.21875 557.644531 285.277344 557.644531 L 482.554688 557.644531 C 486.261719 557.570312 489.695312 560 490.734375 563.738281 L 490.710938 563.757812 L 505.222656 615.898438 C 505.550781 616.792969 505.730469 617.761719 505.730469 618.769531 C 505.730469 623.367188 502.003906 627.09375 497.40625 627.09375 Z M 497.40625 627.09375 " fill-opacity="1" fill-rule="nonzero"/><path fill="#4d4d4d" d="M 324.03125 250.648438 C 319.433594 250.648438 315.703125 254.375 315.703125 258.972656 C 315.703125 263.570312 319.433594 267.296875 324.03125 267.296875 L 562.355469 267.296875 C 566.953125 267.296875 570.679688 263.570312 570.679688 258.972656 C 570.679688 254.375 566.953125 250.648438 562.355469 250.648438 Z M 324.03125 250.648438 " fill-opacity="1" fill-rule="nonzero"/><path fill="#4d4d4d" d="M 324.03125 288.109375 C 319.433594 288.109375 315.703125 291.835938 315.703125 296.433594 C 315.703125 301.03125 319.433594 304.757812 324.03125 304.757812 L 562.355469 304.757812 C 566.953125 304.757812 570.679688 301.03125 570.679688 296.433594 C 570.679688 291.835938 566.953125 288.109375 562.355469 288.109375 Z M 324.03125 288.109375 " fill-opacity="1" fill-rule="nonzero"/><path fill="#4d4d4d" d="M 324.03125 325.570312 C 319.433594 325.570312 315.703125 329.296875 315.703125 333.894531 C 315.703125 338.492188 319.433594 342.222656 324.03125 342.222656 L 562.355469 342.222656 C 566.953125 342.222656 570.679688 338.492188 570.679688 333.894531 C 570.679688 329.296875 566.953125 325.570312 562.355469 325.570312 Z M 324.03125 325.570312 " fill-opacity="1" fill-rule="nonzero"/><path fill="#4d4d4d" d="M 207.46875 91.4375 C 202.867188 91.4375 199.140625 95.164062 199.140625 99.761719 C 199.140625 104.359375 202.867188 108.085938 207.46875 108.085938 L 445.789062 108.085938 C 450.386719 108.085938 454.117188 104.359375 454.117188 99.761719 C 454.117188 95.164062 450.386719 91.4375 445.789062 91.4375 Z M 207.46875 91.4375 " fill-opacity="1" fill-rule="nonzero"/><path fill="#4d4d4d" d="M 207.46875 128.898438 C 202.867188 128.898438 199.140625 132.625 199.140625 137.222656 C 199.140625 141.820312 202.867188 145.546875 207.46875 145.546875 L 445.789062 145.546875 C 450.386719 145.546875 454.117188 141.820312 454.117188 137.222656 C 454.117188 132.625 450.386719 128.898438 445.789062 128.898438 Z M 207.46875 128.898438 " fill-opacity="1" fill-rule="nonzero"/><path fill="#4d4d4d" d="M 207.46875 166.359375 C 202.867188 166.359375 199.140625 170.085938 199.140625 174.683594 C 199.140625 179.28125 202.867188 183.007812 207.46875 183.007812 L 445.789062 183.007812 C 450.386719 183.007812 454.117188 179.28125 454.117188 174.683594 C 454.117188 170.085938 450.386719 166.359375 445.789062 166.359375 Z M 207.46875 166.359375 " fill-opacity="1" fill-rule="nonzero"/></svg>