<svg xmlns="http://www.w3.org/2000/svg" xmlns:xlink="http://www.w3.org/1999/xlink" width="1024" zoomAndPan="magnify" viewBox="0 0 768 767.999994" height="1024" preserveAspectRatio="xMidYMid meet" version="1.0"><defs><clipPath id="7939f768c5"><path d="M 55.855469 0 L 712.042969 0 L 712.042969 562 L 55.855469 562 Z M 55.855469 0 " clip-rule="nonzero"/></clipPath></defs><path fill="#40494c" d="M 152.183594 246.242188 C 129.925781 285.457031 110.65625 280.472656 79.425781 260.863281 C 92.714844 228.960938 106.003906 197.390625 119.292969 165.488281 C 148.53125 133.25 177.433594 101.015625 206.671875 68.449219 C 241.558594 52.828125 276.445312 37.210938 311.328125 21.589844 L 383.757812 14.945312 L 456.183594 21.589844 C 491.070312 37.210938 525.957031 52.828125 560.839844 68.449219 C 590.078125 101.015625 619.316406 133.25 648.550781 165.488281 C 661.84375 197.390625 675.132812 228.960938 688.421875 260.867188 C 657.191406 280.472656 637.921875 285.457031 615.660156 246.242188 C 495.058594 34.21875 272.789062 34.21875 152.183594 246.242188 Z M 152.183594 246.242188 " fill-opacity="1" fill-rule="evenodd"/><g clip-path="url(#7939f768c5)"><path fill="#6c787f" d="M 103.675781 561.949219 C 88.726562 519.410156 76.765625 476.875 68.460938 436.996094 C 60.152344 396.785156 55.835938 359.230469 55.835938 327.992188 C 55.835938 237.269531 92.382812 155.519531 151.851562 96.03125 C 211.324219 36.546875 293.386719 -0.0117188 383.757812 -0.0117188 C 474.457031 -0.0117188 556.523438 36.546875 615.660156 96.03125 C 675.132812 155.519531 712.011719 237.269531 712.011719 327.992188 C 712.011719 359.230469 707.359375 396.785156 699.054688 436.996094 C 690.746094 476.875 679.117188 519.410156 663.835938 561.949219 L 635.925781 551.980469 C 650.878906 510.769531 662.507812 469.5625 670.148438 431.011719 C 678.121094 392.796875 682.441406 357.570312 682.441406 327.992188 C 682.441406 245.578125 648.886719 170.804688 595.0625 116.96875 C 540.90625 62.800781 466.152344 29.566406 383.757812 29.566406 C 301.359375 29.566406 226.9375 62.800781 172.785156 116.96875 C 118.628906 170.804688 85.40625 245.578125 85.40625 327.992188 C 85.40625 357.570312 89.390625 392.796875 97.363281 431.011719 C 105.339844 469.5625 116.96875 510.769531 131.585938 551.980469 Z M 103.675781 561.949219 " fill-opacity="1" fill-rule="nonzero"/></g><path fill="#40494c" d="M 228.601562 425.695312 L 228.601562 722.460938 C 228.601562 767.988281 112.980469 767.988281 112.980469 722.460938 L 112.980469 425.695312 C 112.980469 380.5 228.601562 380.5 228.601562 425.695312 Z M 228.601562 425.695312 " fill-opacity="1" fill-rule="evenodd"/><path fill="#2c3439" d="M 228.601562 657.992188 L 228.601562 722.460938 C 228.601562 767.988281 112.980469 767.988281 112.980469 722.460938 L 112.980469 657.992188 C 112.980469 683.578125 228.601562 683.578125 228.601562 657.992188 Z M 228.601562 657.992188 " fill-opacity="1" fill-rule="evenodd"/><path fill="#6c787f" d="M 159.160156 756.027344 C 134.578125 753.367188 112.980469 742.070312 112.980469 722.460938 L 112.980469 425.695312 C 112.980469 406.089844 134.578125 395.125 159.160156 392.464844 Z M 159.160156 756.027344 " fill-opacity="1" fill-rule="evenodd"/><path fill="#59676d" d="M 159.160156 756.027344 C 134.578125 753.367188 112.980469 742.070312 112.980469 722.460938 L 112.980469 657.992188 C 112.980469 669.289062 134.578125 675.605469 159.160156 676.933594 Z M 159.160156 756.027344 " fill-opacity="1" fill-rule="evenodd"/><path fill="#40494c" d="M 112.980469 476.875 L 106.667969 476.875 C 93.378906 476.875 82.746094 487.507812 82.746094 500.46875 L 82.746094 647.6875 C 82.746094 660.648438 93.378906 671.285156 106.667969 671.285156 L 112.980469 671.285156 Z M 112.980469 476.875 " fill-opacity="1" fill-rule="evenodd"/><path fill="#40494c" d="M 539.246094 425.695312 L 539.246094 722.460938 C 539.246094 767.988281 654.867188 767.988281 654.867188 722.460938 L 654.867188 425.695312 C 654.867188 380.5 539.246094 380.5 539.246094 425.695312 Z M 539.246094 425.695312 " fill-opacity="1" fill-rule="evenodd"/><path fill="#2c3439" d="M 539.246094 657.992188 L 539.246094 722.460938 C 539.246094 767.988281 654.867188 767.988281 654.867188 722.460938 L 654.867188 657.992188 C 654.867188 683.578125 539.246094 683.578125 539.246094 657.992188 Z M 539.246094 657.992188 " fill-opacity="1" fill-rule="evenodd"/><path fill="#6c787f" d="M 608.683594 756.027344 C 633.269531 753.367188 654.867188 742.070312 654.867188 722.460938 L 654.867188 425.695312 C 654.867188 406.089844 633.269531 395.125 608.683594 392.464844 Z M 608.683594 756.027344 " fill-opacity="1" fill-rule="evenodd"/><path fill="#59676d" d="M 608.683594 756.027344 C 633.269531 753.367188 654.867188 742.070312 654.867188 722.460938 L 654.867188 657.992188 C 654.867188 669.289062 633.269531 675.605469 608.683594 676.933594 Z M 608.683594 756.027344 " fill-opacity="1" fill-rule="evenodd"/><path fill="#40494c" d="M 654.867188 476.875 L 661.179688 476.875 C 674.136719 476.875 684.765625 487.507812 684.765625 500.46875 L 684.765625 647.6875 C 684.765625 660.648438 674.136719 671.285156 661.179688 671.285156 L 654.867188 671.285156 Z M 654.867188 476.875 " fill-opacity="1" fill-rule="evenodd"/></svg>