<svg xmlns="http://www.w3.org/2000/svg" xmlns:xlink="http://www.w3.org/1999/xlink" width="1024" zoomAndPan="magnify" viewBox="0 0 768 767.999994" height="1024" preserveAspectRatio="xMidYMid meet" version="1.0"><defs><clipPath id="e805d72015"><path d="M 134 33 L 593 33 L 593 746.886719 L 134 746.886719 Z M 134 33 " clip-rule="nonzero"/></clipPath><clipPath id="294d24be7a"><path d="M 94.351562 0 L 673.351562 0 L 673.351562 61 L 94.351562 61 Z M 94.351562 0 " clip-rule="nonzero"/></clipPath><clipPath id="abc75e1234"><path d="M 134 431 L 593 431 L 593 746.886719 L 134 746.886719 Z M 134 431 " clip-rule="nonzero"/></clipPath></defs><g clip-path="url(#e805d72015)"><path fill="#ebebeb" d="M 364.023438 747.234375 C 237.144531 747.234375 134.050781 644.097656 134.050781 517.160156 L 134.050781 185.929688 C 134.050781 100.644531 203.441406 33.210938 288.6875 33.210938 L 439.359375 33.210938 C 524.609375 33.210938 592.015625 100.644531 592.015625 185.929688 L 592.015625 517.160156 C 592.015625 644.097656 488.925781 747.234375 364.023438 747.234375 Z M 364.023438 747.234375 " fill-opacity="1" fill-rule="evenodd"/></g><g clip-path="url(#294d24be7a)"><path fill="#999999" d="M 364.023438 60.976562 C 356.09375 60.976562 350.148438 55.027344 350.148438 47.09375 L 350.148438 3.457031 C 350.148438 -30.257812 375.917969 -56.042969 407.640625 -56.042969 L 601.929688 -56.042969 C 625.71875 -56.042969 645.542969 -71.910156 645.542969 -95.710938 C 645.542969 -115.546875 627.703125 -133.394531 611.839844 -133.394531 L 161.804688 -133.394531 C 126.121094 -133.394531 94.398438 -165.128906 94.398438 -200.832031 C 94.398438 -238.515625 126.121094 -268.265625 161.804688 -268.265625 L 312.480469 -268.265625 C 320.410156 -268.265625 326.355469 -262.316406 326.355469 -254.382812 C 326.355469 -246.449219 320.410156 -240.5 312.480469 -240.5 L 161.804688 -240.5 C 140 -240.5 122.15625 -222.648438 122.15625 -200.832031 C 122.15625 -179.015625 140 -161.164062 161.804688 -161.164062 L 611.839844 -161.164062 C 643.5625 -161.164062 673.300781 -129.429688 673.300781 -95.710938 C 673.300781 -58.027344 641.578125 -28.277344 601.929688 -28.277344 L 407.640625 -28.277344 C 391.78125 -28.277344 377.902344 -14.390625 377.902344 3.457031 L 377.902344 47.09375 C 377.902344 55.027344 371.953125 60.976562 364.023438 60.976562 Z M 364.023438 60.976562 " fill-opacity="1" fill-rule="evenodd"/></g><path fill="#999999" d="M 364.023438 471.539062 C 356.09375 471.539062 350.148438 465.589844 350.148438 457.65625 L 350.148438 324.769531 C 350.148438 316.835938 356.09375 310.886719 364.023438 310.886719 C 371.953125 310.886719 377.902344 316.835938 377.902344 324.769531 L 377.902344 457.65625 C 377.902344 465.589844 371.953125 471.539062 364.023438 471.539062 Z M 364.023438 181.964844 C 356.09375 181.964844 350.148438 176.015625 350.148438 168.082031 L 350.148438 47.09375 C 350.148438 39.160156 356.09375 33.210938 364.023438 33.210938 C 371.953125 33.210938 377.902344 39.160156 377.902344 47.09375 L 377.902344 168.082031 C 377.902344 176.015625 371.953125 181.964844 364.023438 181.964844 Z M 364.023438 181.964844 " fill-opacity="1" fill-rule="evenodd"/><g clip-path="url(#abc75e1234)"><path fill="#d5d6d6" d="M 592.015625 431.871094 L 134.050781 431.871094 L 134.050781 517.160156 C 134.050781 644.097656 237.144531 747.234375 364.023438 747.234375 C 488.925781 747.234375 592.015625 644.097656 592.015625 517.160156 Z M 592.015625 431.871094 " fill-opacity="1" fill-rule="evenodd"/></g><path fill="#757d87" d="M 364.023438 338.652344 C 334.285156 338.652344 310.496094 314.851562 310.496094 287.085938 L 310.496094 207.75 C 310.496094 177.996094 334.285156 154.195312 364.023438 154.195312 C 391.78125 154.195312 415.570312 177.996094 415.570312 207.75 L 415.570312 287.085938 C 415.570312 314.851562 391.78125 338.652344 364.023438 338.652344 Z M 364.023438 338.652344 " fill-opacity="1" fill-rule="evenodd"/><path fill="#757d87" d="M 278.777344 580.628906 L 461.167969 580.628906 L 461.167969 638.144531 L 278.777344 638.144531 Z M 278.777344 580.628906 " fill-opacity="1" fill-rule="evenodd"/></svg>