<svg xmlns="http://www.w3.org/2000/svg" xmlns:xlink="http://www.w3.org/1999/xlink" width="1024" zoomAndPan="magnify" viewBox="0 0 768 767.999994" height="1024" preserveAspectRatio="xMidYMid meet" version="1.0"><defs><clipPath id="a1ef09cad2"><path d="M 13 433 L 765 433 L 765 506.40625 L 13 506.40625 Z M 13 433 " clip-rule="nonzero"/></clipPath><clipPath id="3709d279a2"><path d="M 12 500 L 766 500 L 766 640.800781 L 12 640.800781 Z M 12 500 " clip-rule="nonzero"/></clipPath><clipPath id="0a8e32d9ca"><path d="M 552 77.386719 L 768 77.386719 L 768 230 L 552 230 Z M 552 77.386719 " clip-rule="nonzero"/></clipPath><clipPath id="0e111b1a2d"><path d="M 388 500 L 766 500 L 766 640.800781 L 388 640.800781 Z M 388 500 " clip-rule="nonzero"/></clipPath><clipPath id="7a88b3a9c3"><path d="M 731 77.386719 L 768 77.386719 L 768 230 L 731 230 Z M 731 77.386719 " clip-rule="nonzero"/></clipPath></defs><g clip-path="url(#a1ef09cad2)"><path fill="#646767" d="M 707.574219 446.804688 L 764.503906 506.191406 L 13.410156 506.191406 L 70.335938 446.804688 C 78.757812 438.019531 90.417969 433.035156 102.59375 433.035156 L 675.320312 433.035156 C 687.496094 433.035156 699.15625 438.019531 707.574219 446.804688 " fill-opacity="1" fill-rule="nonzero"/></g><g clip-path="url(#3709d279a2)"><path fill="#252221" d="M 755.65625 641.484375 L 22.386719 641.484375 C 16.78125 641.484375 12.226562 636.929688 12.226562 631.324219 L 12.226562 510.683594 C 12.226562 505.054688 16.78125 500.5 22.386719 500.5 L 755.65625 500.5 C 761.261719 500.5 765.8125 505.054688 765.8125 510.683594 L 765.8125 631.324219 C 765.8125 636.929688 761.261719 641.484375 755.65625 641.484375 " fill-opacity="1" fill-rule="nonzero"/></g><path fill="#252221" d="M 670.421875 430.5 C 668.363281 427.984375 667.222656 424.804688 667.222656 421.539062 L 667.222656 192.011719 C 667.222656 188.253906 664.175781 185.203125 660.417969 185.203125 C 656.660156 185.203125 653.609375 188.253906 653.609375 192.011719 L 653.609375 421.519531 C 653.609375 424.804688 652.472656 427.984375 650.367188 430.5 L 642.121094 440.46875 C 639.371094 443.820312 637.867188 448.03125 637.867188 452.371094 L 637.867188 462.878906 C 637.867188 465.199219 639.738281 467.066406 642.035156 467.066406 L 678.796875 467.066406 C 681.097656 467.066406 682.988281 465.199219 682.988281 462.878906 L 682.988281 452.457031 C 682.988281 448.160156 681.484375 443.96875 678.753906 440.640625 L 670.421875 430.5 M 125.078125 421.539062 C 125.078125 424.804688 126.191406 427.984375 128.253906 430.5 L 136.585938 440.640625 C 139.3125 443.96875 140.816406 448.160156 140.816406 452.457031 L 140.816406 462.878906 C 140.816406 465.199219 138.949219 467.066406 136.652344 467.066406 L 99.867188 467.066406 C 97.566406 467.066406 95.699219 465.199219 95.699219 462.878906 L 95.699219 452.371094 C 95.699219 448.03125 97.203125 443.820312 99.972656 440.46875 L 108.21875 430.5 C 110.300781 427.984375 111.441406 424.804688 111.441406 421.519531 L 111.441406 192.011719 C 111.441406 188.253906 114.488281 185.203125 118.246094 185.203125 C 122.027344 185.203125 125.078125 188.253906 125.078125 192.011719 L 125.078125 421.539062 " fill-opacity="1" fill-rule="nonzero"/><path fill="#47a2d1" d="M 118.246094 176.308594 C 105.683594 176.308594 95.507812 166.121094 95.507812 153.53125 C 95.507812 140.964844 105.683594 130.78125 118.246094 130.78125 C 130.832031 130.78125 141.011719 140.964844 141.011719 153.53125 C 141.011719 166.121094 130.832031 176.308594 118.246094 176.308594 " fill-opacity="1" fill-rule="nonzero"/><path fill="#47a2d1" d="M 43.367188 229.785156 C 44.226562 229.785156 45.082031 229.460938 45.75 228.796875 C 47.101562 227.484375 47.125 225.335938 45.792969 223.984375 C 7.503906 185.03125 7.71875 121.925781 46.285156 83.339844 C 47.617188 82.007812 47.726562 79.75 46.414062 78.417969 C 45.082031 77.085938 43.023438 76.980469 41.710938 78.3125 C 0.265625 119.734375 0.03125 187.136719 40.9375 228.753906 C 41.605469 229.441406 42.484375 229.785156 43.367188 229.785156 Z M 64.21875 208.921875 C 65.078125 208.921875 65.914062 208.597656 66.578125 207.953125 C 67.933594 206.644531 67.953125 204.496094 66.644531 203.140625 C 39.84375 175.683594 40.058594 131.296875 67.160156 104.203125 C 68.46875 102.871094 68.597656 100.636719 67.289062 99.304688 C 65.980469 97.972656 63.960938 97.820312 62.628906 99.132812 C 32.628906 129.105469 32.371094 177.789062 61.769531 207.910156 C 62.433594 208.597656 63.316406 208.921875 64.21875 208.921875 Z M 82.234375 190.894531 C 83.09375 190.894531 83.929688 190.574219 84.597656 189.949219 C 85.949219 188.640625 85.992188 186.46875 84.683594 185.117188 C 67.804688 167.625 68.039062 139.417969 85.199219 122.25 C 86.53125 120.917969 86.53125 118.769531 85.199219 117.4375 C 83.867188 116.105469 81.699219 116.105469 80.386719 117.4375 C 60.609375 137.226562 60.351562 169.710938 79.785156 189.863281 C 80.453125 190.550781 81.332031 190.894531 82.234375 190.894531 Z M 195.578125 228.753906 C 236.488281 187.136719 236.25 119.734375 194.804688 78.3125 C 193.472656 76.980469 191.433594 77.085938 190.101562 78.417969 C 188.792969 79.75 188.898438 82.007812 190.230469 83.339844 C 228.800781 121.925781 229.011719 185.03125 190.722656 223.984375 C 189.394531 225.335938 189.414062 227.484375 190.765625 228.796875 C 191.410156 229.460938 192.292969 229.785156 193.152344 229.785156 C 194.03125 229.785156 194.910156 229.441406 195.578125 228.753906 Z M 174.746094 207.910156 C 204.144531 177.789062 203.886719 129.105469 173.886719 99.132812 C 172.535156 97.820312 170.515625 97.972656 169.226562 99.304688 C 167.917969 100.636719 168.046875 102.871094 169.355469 104.203125 C 196.457031 131.296875 196.671875 175.683594 169.871094 203.140625 C 168.5625 204.496094 168.585938 206.644531 169.9375 207.953125 C 170.601562 208.597656 171.441406 208.921875 172.300781 208.921875 C 173.199219 208.921875 174.082031 208.597656 174.746094 207.910156 Z M 154.28125 190.894531 C 153.421875 190.894531 152.585938 190.574219 151.917969 189.949219 C 150.566406 188.640625 150.523438 186.46875 151.832031 185.117188 C 168.714844 167.625 168.476562 139.417969 151.320312 122.25 C 149.988281 120.917969 149.988281 118.769531 151.320312 117.4375 C 152.648438 116.105469 154.820312 116.105469 156.128906 117.4375 C 175.90625 137.226562 176.164062 169.710938 156.730469 189.863281 C 156.0625 190.550781 155.183594 190.894531 154.28125 190.894531 " fill-opacity="1" fill-rule="nonzero"/><path fill="#47a2d1" d="M 660.417969 176.308594 C 647.855469 176.308594 637.675781 166.121094 637.675781 153.53125 C 637.675781 140.964844 647.855469 130.78125 660.417969 130.78125 C 672.980469 130.78125 683.15625 140.964844 683.15625 153.53125 C 683.15625 166.121094 672.980469 176.308594 660.417969 176.308594 " fill-opacity="1" fill-rule="nonzero"/><g clip-path="url(#0a8e32d9ca)"><path fill="#47a2d1" d="M 585.535156 229.785156 C 586.394531 229.785156 587.253906 229.460938 587.917969 228.796875 C 589.25 227.484375 589.269531 225.335938 587.960938 223.984375 C 549.652344 185.03125 549.886719 121.925781 588.457031 83.339844 C 589.785156 82.007812 589.894531 79.75 588.5625 78.417969 C 587.230469 77.085938 585.191406 76.980469 583.859375 78.3125 C 542.433594 119.734375 542.175781 187.136719 583.109375 228.753906 C 583.773438 229.441406 584.652344 229.785156 585.535156 229.785156 M 606.363281 208.921875 C 607.222656 208.921875 608.082031 208.597656 608.75 207.953125 C 610.082031 206.644531 610.125 204.496094 608.8125 203.140625 C 581.992188 175.683594 582.226562 131.316406 609.308594 104.203125 C 610.636719 102.890625 610.746094 100.636719 609.457031 99.304688 C 608.148438 97.972656 606.128906 97.820312 604.777344 99.132812 C 574.777344 129.105469 574.539062 177.789062 603.9375 207.910156 C 604.605469 208.578125 605.484375 208.921875 606.363281 208.921875 M 624.402344 190.894531 C 625.242188 190.894531 626.101562 190.574219 626.765625 189.949219 C 628.117188 188.640625 628.140625 186.46875 626.832031 185.117188 C 609.972656 167.625 610.1875 139.417969 627.34375 122.25 C 628.675781 120.917969 628.675781 118.769531 627.34375 117.4375 C 626.015625 116.105469 623.867188 116.105469 622.535156 117.4375 C 602.757812 137.226562 602.5 169.710938 621.933594 189.863281 C 622.621094 190.550781 623.5 190.894531 624.402344 190.894531 M 737.726562 228.753906 C 778.632812 187.136719 778.398438 119.734375 736.972656 78.3125 C 735.640625 76.980469 733.601562 77.085938 732.269531 78.417969 C 730.9375 79.75 731.046875 82.007812 732.378906 83.339844 C 770.945312 121.925781 771.183594 185.03125 732.871094 223.984375 C 731.5625 225.335938 731.582031 227.484375 732.914062 228.796875 C 733.582031 229.460938 734.441406 229.785156 735.296875 229.785156 C 736.179688 229.785156 737.058594 229.441406 737.726562 228.753906 M 716.894531 207.910156 C 746.316406 177.789062 746.058594 129.105469 716.058594 99.132812 C 714.703125 97.820312 712.6875 97.972656 711.375 99.304688 C 710.085938 100.636719 710.195312 102.890625 711.527344 104.203125 C 738.605469 131.316406 738.839844 175.683594 712.019531 203.140625 C 710.710938 204.496094 710.753906 206.644531 712.085938 207.953125 C 712.75 208.597656 713.609375 208.921875 714.46875 208.921875 C 715.347656 208.921875 716.230469 208.578125 716.894531 207.910156 M 696.429688 190.894531 C 695.59375 190.894531 694.734375 190.574219 694.089844 189.949219 C 692.734375 188.640625 692.691406 186.46875 694.003906 185.117188 C 710.859375 167.625 710.644531 139.417969 693.488281 122.25 C 692.15625 120.917969 692.15625 118.769531 693.488281 117.4375 C 694.820312 116.105469 696.964844 116.105469 698.296875 117.4375 C 718.074219 137.226562 718.332031 169.710938 698.898438 189.863281 C 698.234375 190.550781 697.332031 190.894531 696.429688 190.894531 " fill-opacity="1" fill-rule="nonzero"/></g><path fill="#47a2d1" d="M 630.394531 530.683594 L 194.441406 530.683594 C 191.519531 530.683594 189.179688 528.320312 189.179688 525.421875 L 189.179688 522.199219 C 189.179688 519.277344 191.519531 516.914062 194.441406 516.914062 L 630.394531 516.914062 C 633.292969 516.914062 635.65625 519.277344 635.65625 522.199219 L 635.65625 525.421875 C 635.65625 528.320312 633.292969 530.683594 630.394531 530.683594 " fill-opacity="1" fill-rule="nonzero"/><path fill="#47a2d1" d="M 154.175781 611.296875 L 94.21875 611.296875 C 79.464844 611.296875 67.503906 599.332031 67.503906 584.570312 L 67.503906 557.414062 C 67.503906 542.652344 79.464844 530.683594 94.21875 530.683594 L 154.175781 530.683594 C 168.925781 530.683594 180.890625 542.652344 180.890625 557.414062 L 180.890625 584.570312 C 180.890625 599.332031 168.925781 611.296875 154.175781 611.296875 " fill-opacity="1" fill-rule="nonzero"/><path fill="#47a2d1" d="M 710.539062 570.992188 C 710.539062 556.574219 698.855469 544.886719 684.445312 544.886719 C 670.039062 544.886719 658.332031 556.574219 658.332031 570.992188 C 658.332031 585.429688 670.039062 597.117188 684.445312 597.117188 C 698.855469 597.117188 710.539062 585.429688 710.539062 570.992188 M 623.15625 570.992188 C 623.15625 556.574219 611.476562 544.886719 597.046875 544.886719 C 582.636719 544.886719 570.953125 556.574219 570.953125 570.992188 C 570.953125 585.429688 582.636719 597.117188 597.046875 597.117188 C 611.476562 597.117188 623.15625 585.429688 623.15625 570.992188 M 535.757812 570.992188 C 535.757812 556.574219 524.074219 544.886719 509.664062 544.886719 C 495.234375 544.886719 483.550781 556.574219 483.550781 570.992188 C 483.550781 585.429688 495.234375 597.117188 509.664062 597.117188 C 524.074219 597.117188 535.757812 585.429688 535.757812 570.992188 M 422.261719 597.117188 C 407.855469 597.117188 396.171875 585.429688 396.171875 570.992188 C 396.171875 556.574219 407.855469 544.886719 422.261719 544.886719 C 436.695312 544.886719 448.375 556.574219 448.375 570.992188 C 448.375 585.429688 436.695312 597.117188 422.261719 597.117188 " fill-opacity="1" fill-rule="nonzero"/><path fill="#d8d8d6" d="M 648.285156 433.035156 L 650.367188 430.5 L 648.285156 433.035156 " fill-opacity="1" fill-rule="nonzero"/><path fill="#525556" d="M 759.972656 501.464844 C 758.664062 500.84375 757.203125 500.5 755.65625 500.5 L 388.761719 500.5 L 388.761719 433.035156 L 648.285156 433.035156 L 642.121094 440.46875 C 639.371094 443.820312 637.867188 448.03125 637.867188 452.371094 L 637.867188 462.878906 C 637.867188 465.199219 639.738281 467.066406 642.035156 467.066406 L 678.796875 467.066406 C 681.097656 467.066406 682.988281 465.199219 682.988281 462.878906 L 682.988281 452.457031 C 682.988281 448.160156 681.484375 443.96875 678.753906 440.640625 L 672.507812 433.035156 L 675.320312 433.035156 C 687.496094 433.035156 699.15625 438.019531 707.574219 446.804688 L 759.972656 501.464844 " fill-opacity="1" fill-rule="nonzero"/><g clip-path="url(#0e111b1a2d)"><path fill="#201d1d" d="M 755.292969 641.484375 L 388.761719 641.484375 L 388.761719 530.683594 L 630.394531 530.683594 C 633.292969 530.683594 635.65625 528.320312 635.65625 525.421875 L 635.65625 522.199219 C 635.65625 519.277344 633.292969 516.914062 630.394531 516.914062 L 388.761719 516.914062 L 388.761719 500.5 L 755.65625 500.5 C 757.203125 500.5 758.664062 500.84375 759.972656 501.464844 L 760.335938 501.851562 C 763.601562 503.65625 765.8125 507.074219 765.8125 511.046875 L 765.8125 630.957031 C 765.8125 636.757812 761.109375 641.484375 755.292969 641.484375 M 684.445312 544.886719 C 670.039062 544.886719 658.332031 556.574219 658.332031 570.992188 C 658.332031 585.429688 670.039062 597.117188 684.445312 597.117188 C 698.855469 597.117188 710.539062 585.429688 710.539062 570.992188 C 710.539062 556.574219 698.855469 544.886719 684.445312 544.886719 M 597.046875 544.886719 C 582.636719 544.886719 570.953125 556.574219 570.953125 570.992188 C 570.953125 585.429688 582.636719 597.117188 597.046875 597.117188 C 611.476562 597.117188 623.15625 585.429688 623.15625 570.992188 C 623.15625 556.574219 611.476562 544.886719 597.046875 544.886719 M 509.664062 544.886719 C 495.234375 544.886719 483.550781 556.574219 483.550781 570.992188 C 483.550781 585.429688 495.234375 597.117188 509.664062 597.117188 C 524.074219 597.117188 535.757812 585.429688 535.757812 570.992188 C 535.757812 556.574219 524.074219 544.886719 509.664062 544.886719 M 422.261719 544.886719 C 407.855469 544.886719 396.171875 556.574219 396.171875 570.992188 C 396.171875 585.429688 407.855469 597.117188 422.261719 597.117188 C 436.695312 597.117188 448.375 585.429688 448.375 570.992188 C 448.375 556.574219 436.695312 544.886719 422.261719 544.886719 " fill-opacity="1" fill-rule="nonzero"/></g><path fill="#201d1d" d="M 678.796875 467.066406 L 642.035156 467.066406 C 639.738281 467.066406 637.867188 465.199219 637.867188 462.878906 L 637.867188 452.371094 C 637.867188 448.03125 639.371094 443.820312 642.121094 440.46875 L 648.285156 433.035156 L 650.367188 430.5 C 652.472656 427.984375 653.609375 424.804688 653.609375 421.519531 L 653.609375 192.011719 C 653.609375 188.253906 656.660156 185.203125 660.417969 185.203125 C 664.175781 185.203125 667.222656 188.253906 667.222656 192.011719 L 667.222656 421.539062 C 667.222656 424.804688 668.363281 427.984375 670.421875 430.5 L 678.753906 440.640625 C 681.484375 443.96875 682.988281 448.160156 682.988281 452.457031 L 682.988281 462.878906 C 682.988281 465.199219 681.097656 467.066406 678.796875 467.066406 " fill-opacity="1" fill-rule="nonzero"/><path fill="#d8d8d6" d="M 731.90625 226.390625 C 731.90625 225.507812 732.226562 224.648438 732.871094 223.984375 C 732.226562 224.648438 731.90625 225.507812 731.90625 226.390625 M 738.753906 217.449219 C 753.894531 199.082031 761.453125 176.480469 761.453125 153.898438 C 761.453125 176.480469 753.894531 199.082031 738.753906 217.449219 M 731.324219 80.742188 C 731.324219 79.878906 731.625 79.042969 732.269531 78.398438 C 732.957031 77.710938 733.839844 77.367188 734.71875 77.367188 C 735.449219 77.367188 736.199219 77.625 736.800781 78.160156 C 736.199219 77.625 735.449219 77.367188 734.71875 77.367188 C 733.839844 77.367188 732.957031 77.710938 732.269531 78.417969 C 731.625 79.042969 731.324219 79.878906 731.324219 80.742188 M 736.953125 78.289062 C 736.910156 78.246094 736.84375 78.183594 736.800781 78.160156 C 736.84375 78.183594 736.910156 78.246094 736.953125 78.289062 " fill-opacity="1" fill-rule="nonzero"/><g clip-path="url(#7a88b3a9c3)"><path fill="#3a85b1" d="M 735.296875 229.785156 C 734.441406 229.785156 733.582031 229.460938 732.914062 228.796875 C 732.914062 228.796875 732.894531 228.796875 732.894531 228.796875 C 732.25 228.128906 731.90625 227.25 731.90625 226.390625 C 731.90625 225.507812 732.226562 224.648438 732.871094 223.984375 C 734.953125 221.878906 736.910156 219.6875 738.753906 217.449219 C 753.894531 199.082031 761.453125 176.480469 761.453125 153.898438 C 761.453125 128.289062 751.769531 102.71875 732.378906 83.320312 C 731.691406 82.632812 731.324219 81.6875 731.324219 80.742188 C 731.324219 79.878906 731.625 79.042969 732.269531 78.417969 C 732.957031 77.710938 733.839844 77.367188 734.71875 77.367188 C 735.449219 77.367188 736.199219 77.625 736.800781 78.160156 C 736.84375 78.183594 736.910156 78.246094 736.953125 78.289062 C 736.953125 78.289062 736.953125 78.289062 736.972656 78.3125 C 757.804688 99.152344 768.21875 126.546875 768.242188 153.941406 C 768.242188 181.011719 758.0625 208.082031 737.726562 228.753906 C 737.058594 229.441406 736.179688 229.785156 735.296875 229.785156 " fill-opacity="1" fill-rule="nonzero"/></g><path fill="#d8d8d6" d="M 588.925781 226.390625 C 588.925781 225.507812 588.605469 224.648438 587.960938 223.984375 C 588.605469 224.648438 588.925781 225.507812 588.925781 226.390625 M 582.078125 217.449219 C 566.9375 199.082031 559.378906 176.480469 559.378906 153.898438 C 559.378906 176.480469 566.9375 199.082031 582.078125 217.449219 M 589.507812 80.742188 C 589.507812 79.878906 589.207031 79.042969 588.5625 78.417969 C 587.875 77.710938 586.996094 77.367188 586.113281 77.367188 C 585.40625 77.367188 584.695312 77.601562 584.097656 78.097656 C 584.695312 77.601562 585.40625 77.367188 586.113281 77.367188 C 586.996094 77.367188 587.875 77.710938 588.5625 78.398438 C 589.207031 79.042969 589.507812 79.878906 589.507812 80.742188 M 583.902344 78.269531 C 583.902344 78.269531 583.902344 78.269531 583.925781 78.246094 C 583.902344 78.269531 583.902344 78.269531 583.902344 78.269531 M 584.011719 78.183594 C 584.011719 78.183594 584.011719 78.183594 584.011719 78.160156 C 584.011719 78.183594 584.011719 78.183594 584.011719 78.183594 M 584.03125 78.160156 C 584.03125 78.140625 584.054688 78.140625 584.054688 78.140625 C 584.054688 78.140625 584.03125 78.140625 584.03125 78.160156 M 584.054688 78.140625 C 584.074219 78.117188 584.074219 78.117188 584.097656 78.097656 C 584.074219 78.117188 584.074219 78.117188 584.054688 78.140625 " fill-opacity="1" fill-rule="nonzero"/><path fill="#3a85b1" d="M 585.535156 229.785156 C 584.652344 229.785156 583.773438 229.441406 583.109375 228.753906 C 562.773438 208.082031 552.59375 181.011719 552.59375 153.941406 C 552.613281 126.546875 563.03125 99.152344 583.859375 78.3125 C 583.882812 78.289062 583.902344 78.269531 583.902344 78.269531 C 583.902344 78.269531 583.902344 78.269531 583.925781 78.246094 C 583.925781 78.246094 583.925781 78.246094 583.945312 78.226562 C 583.945312 78.226562 583.96875 78.203125 583.96875 78.203125 C 583.988281 78.203125 583.988281 78.203125 583.988281 78.183594 C 583.988281 78.183594 583.988281 78.183594 584.011719 78.183594 C 584.011719 78.183594 584.011719 78.183594 584.011719 78.160156 C 584.011719 78.160156 584.011719 78.160156 584.03125 78.160156 C 584.03125 78.140625 584.054688 78.140625 584.054688 78.140625 C 584.074219 78.117188 584.074219 78.117188 584.097656 78.097656 C 584.695312 77.601562 585.40625 77.367188 586.113281 77.367188 C 586.996094 77.367188 587.875 77.710938 588.5625 78.417969 C 589.207031 79.042969 589.507812 79.878906 589.507812 80.742188 C 589.507812 81.6875 589.140625 82.632812 588.457031 83.320312 C 569.0625 102.71875 559.378906 128.289062 559.378906 153.898438 C 559.378906 176.480469 566.9375 199.082031 582.078125 217.449219 C 583.925781 219.6875 585.878906 221.878906 587.960938 223.984375 C 588.605469 224.648438 588.925781 225.507812 588.925781 226.390625 C 588.925781 227.25 588.605469 228.128906 587.941406 228.796875 C 587.941406 228.796875 587.917969 228.796875 587.917969 228.796875 C 587.253906 229.460938 586.394531 229.785156 585.535156 229.785156 " fill-opacity="1" fill-rule="nonzero"/><path fill="#d8d8d6" d="M 714.46875 208.921875 C 713.609375 208.921875 712.75 208.597656 712.085938 207.953125 C 711.398438 207.289062 711.054688 206.40625 711.054688 205.527344 C 711.054688 206.40625 711.398438 207.289062 712.085938 207.953125 C 712.75 208.597656 713.609375 208.921875 714.46875 208.921875 C 715.347656 208.921875 716.230469 208.578125 716.894531 207.910156 C 731.453125 193 738.753906 173.535156 738.753906 154.046875 C 738.753906 173.535156 731.453125 193 716.894531 207.910156 C 716.230469 208.578125 715.347656 208.921875 714.46875 208.921875 " fill-opacity="1" fill-rule="nonzero"/><path fill="#3a85b1" d="M 714.46875 208.921875 C 713.609375 208.921875 712.75 208.597656 712.085938 207.953125 C 711.398438 207.289062 711.054688 206.40625 711.054688 205.527344 C 711.054688 204.667969 711.398438 203.808594 712.019531 203.140625 C 738.796875 175.75 738.605469 131.488281 711.675781 104.351562 C 711.632812 104.308594 711.570312 104.246094 711.527344 104.203125 C 710.839844 103.515625 710.472656 102.546875 710.472656 101.625 C 710.472656 100.765625 710.773438 99.949219 711.375 99.304688 C 712.085938 98.59375 712.964844 98.230469 713.84375 98.230469 C 714.640625 98.230469 715.414062 98.507812 716.058594 99.132812 C 731.195312 114.257812 738.753906 134.175781 738.753906 154.046875 C 738.753906 173.535156 731.453125 193 716.894531 207.910156 C 716.230469 208.578125 715.347656 208.921875 714.46875 208.921875 " fill-opacity="1" fill-rule="nonzero"/><path fill="#d8d8d6" d="M 606.363281 208.921875 C 607.222656 208.921875 608.082031 208.597656 608.75 207.953125 C 609.4375 207.289062 609.78125 206.40625 609.78125 205.527344 C 609.78125 206.40625 609.4375 207.289062 608.75 207.953125 C 608.082031 208.597656 607.222656 208.921875 606.363281 208.921875 " fill-opacity="1" fill-rule="nonzero"/><path fill="#3a85b1" d="M 606.363281 208.921875 C 605.484375 208.921875 604.605469 208.578125 603.9375 207.910156 C 589.378906 193 582.078125 173.535156 582.078125 154.046875 C 582.078125 134.175781 589.636719 114.257812 604.777344 99.132812 C 605.421875 98.507812 606.191406 98.230469 606.988281 98.230469 C 607.867188 98.230469 608.769531 98.59375 609.457031 99.304688 C 610.058594 99.949219 610.359375 100.765625 610.359375 101.625 C 610.378906 102.546875 609.996094 103.515625 609.308594 104.203125 C 595.691406 117.824219 588.863281 135.828125 588.839844 153.855469 C 588.839844 171.664062 595.476562 189.5 608.8125 203.140625 C 609.457031 203.808594 609.78125 204.667969 609.78125 205.527344 C 609.78125 206.40625 609.4375 207.289062 608.75 207.953125 C 608.082031 208.597656 607.222656 208.921875 606.363281 208.921875 " fill-opacity="1" fill-rule="nonzero"/><path fill="#d8d8d6" d="M 696.429688 190.894531 C 695.59375 190.894531 694.734375 190.574219 694.089844 189.949219 C 693.378906 189.285156 693.035156 188.382812 693.035156 187.5 C 693.035156 188.382812 693.378906 189.285156 694.089844 189.949219 C 694.734375 190.574219 695.59375 190.894531 696.429688 190.894531 C 697.332031 190.894531 698.234375 190.550781 698.898438 189.863281 C 698.234375 190.550781 697.332031 190.894531 696.429688 190.894531 M 713.308594 153.960938 C 713.308594 141.007812 708.519531 128.050781 698.984375 118.144531 C 708.519531 128.050781 713.308594 141.007812 713.308594 153.960938 " fill-opacity="1" fill-rule="nonzero"/><path fill="#3a85b1" d="M 696.429688 190.894531 C 695.59375 190.894531 694.734375 190.574219 694.089844 189.949219 C 693.378906 189.285156 693.035156 188.382812 693.035156 187.5 C 693.035156 186.640625 693.359375 185.78125 694.003906 185.117188 C 702.335938 176.480469 706.5 165.21875 706.5 153.960938 C 706.5 142.445312 702.164062 130.929688 693.488281 122.25 C 692.820312 121.582031 692.476562 120.722656 692.476562 119.84375 C 692.476562 118.960938 692.820312 118.101562 693.488281 117.4375 C 694.152344 116.769531 695.011719 116.425781 695.894531 116.425781 C 696.773438 116.425781 697.632812 116.769531 698.296875 117.4375 C 698.535156 117.671875 698.75 117.910156 698.984375 118.144531 C 708.519531 128.050781 713.308594 141.007812 713.308594 153.960938 C 713.285156 166.917969 708.5 179.894531 698.898438 189.863281 C 698.234375 190.550781 697.332031 190.894531 696.429688 190.894531 " fill-opacity="1" fill-rule="nonzero"/><path fill="#d8d8d6" d="M 624.402344 190.894531 C 623.5 190.894531 622.621094 190.550781 621.933594 189.863281 C 622.621094 190.550781 623.5 190.894531 624.402344 190.894531 C 625.242188 190.894531 626.101562 190.574219 626.765625 189.949219 C 627.453125 189.285156 627.796875 188.382812 627.796875 187.5 C 627.796875 188.382812 627.453125 189.285156 626.765625 189.949219 C 626.101562 190.574219 625.242188 190.894531 624.402344 190.894531 M 607.523438 153.960938 C 607.523438 141.007812 612.3125 128.050781 621.847656 118.144531 C 612.3125 128.050781 607.523438 141.007812 607.523438 153.960938 " fill-opacity="1" fill-rule="nonzero"/><path fill="#3a85b1" d="M 624.402344 190.894531 C 623.5 190.894531 622.621094 190.550781 621.933594 189.863281 C 612.335938 179.894531 607.546875 166.917969 607.523438 153.960938 C 607.523438 141.007812 612.3125 128.050781 621.847656 118.144531 C 622.085938 117.910156 622.300781 117.671875 622.535156 117.4375 C 623.199219 116.769531 624.082031 116.425781 624.941406 116.425781 C 625.820312 116.425781 626.679688 116.769531 627.34375 117.4375 C 628.011719 118.101562 628.355469 118.960938 628.355469 119.84375 C 628.355469 120.722656 628.011719 121.582031 627.34375 122.25 C 618.671875 130.929688 614.332031 142.445312 614.332031 153.960938 C 614.332031 165.21875 618.5 176.480469 626.832031 185.117188 C 627.472656 185.78125 627.796875 186.640625 627.796875 187.5 C 627.796875 188.382812 627.453125 189.285156 626.765625 189.949219 C 626.101562 190.574219 625.242188 190.894531 624.402344 190.894531 " fill-opacity="1" fill-rule="nonzero"/><path fill="#d8d8d6" d="M 683.15625 153.53125 C 683.15625 141.113281 673.214844 131.015625 660.867188 130.78125 C 673.214844 131.015625 683.15625 141.113281 683.15625 153.53125 M 637.675781 153.53125 C 637.675781 141.113281 647.617188 131.015625 659.964844 130.78125 C 647.617188 131.015625 637.675781 141.113281 637.675781 153.53125 " fill-opacity="1" fill-rule="nonzero"/><path fill="#3a85b1" d="M 660.417969 176.308594 C 647.855469 176.308594 637.675781 166.121094 637.675781 153.53125 C 637.675781 141.113281 647.617188 131.015625 659.964844 130.78125 C 660.117188 130.78125 660.265625 130.78125 660.417969 130.78125 C 660.566406 130.78125 660.71875 130.78125 660.867188 130.78125 C 673.214844 131.015625 683.15625 141.113281 683.15625 153.53125 C 683.15625 166.121094 672.980469 176.308594 660.417969 176.308594 " fill-opacity="1" fill-rule="nonzero"/><path fill="#3a85b1" d="M 630.394531 530.683594 L 388.761719 530.683594 L 388.761719 516.914062 L 630.394531 516.914062 C 633.292969 516.914062 635.65625 519.277344 635.65625 522.199219 L 635.65625 525.421875 C 635.65625 528.320312 633.292969 530.683594 630.394531 530.683594 " fill-opacity="1" fill-rule="nonzero"/><path fill="#3a85b1" d="M 684.445312 597.117188 C 670.039062 597.117188 658.332031 585.429688 658.332031 570.992188 C 658.332031 556.574219 670.039062 544.886719 684.445312 544.886719 C 698.855469 544.886719 710.539062 556.574219 710.539062 570.992188 C 710.539062 585.429688 698.855469 597.117188 684.445312 597.117188 M 597.046875 597.117188 C 582.636719 597.117188 570.953125 585.429688 570.953125 570.992188 C 570.953125 556.574219 582.636719 544.886719 597.046875 544.886719 C 611.476562 544.886719 623.15625 556.574219 623.15625 570.992188 C 623.15625 585.429688 611.476562 597.117188 597.046875 597.117188 M 509.664062 597.117188 C 495.234375 597.117188 483.550781 585.429688 483.550781 570.992188 C 483.550781 556.574219 495.234375 544.886719 509.664062 544.886719 C 524.074219 544.886719 535.757812 556.574219 535.757812 570.992188 C 535.757812 585.429688 524.074219 597.117188 509.664062 597.117188 M 422.261719 597.117188 C 407.855469 597.117188 396.171875 585.429688 396.171875 570.992188 C 396.171875 556.574219 407.855469 544.886719 422.261719 544.886719 C 436.695312 544.886719 448.375 556.574219 448.375 570.992188 C 448.375 585.429688 436.695312 597.117188 422.261719 597.117188 " fill-opacity="1" fill-rule="nonzero"/></svg>