<svg xmlns="http://www.w3.org/2000/svg" xmlns:xlink="http://www.w3.org/1999/xlink" width="1024" zoomAndPan="magnify" viewBox="0 0 768 767.999994" height="1024" preserveAspectRatio="xMidYMid meet" version="1.0"><defs><clipPath id="4a4bf8f603"><path d="M 668 497 L 768 497 L 768 763.5 L 668 763.5 Z M 668 497 " clip-rule="nonzero"/></clipPath></defs><rect x="-76.8" width="921.6" fill="#ffffff" y="-76.799999" height="921.599993" fill-opacity="1"/><g clip-path="url(#4a4bf8f603)"><path fill="#080518" d="M 767.425781 741.324219 C 767.425781 753.679688 758.492188 763.691406 747.46875 763.691406 L 688.121094 752.507812 C 677.105469 752.507812 668.164062 742.496094 668.164062 730.144531 L 668.164062 525.144531 C 668.164062 512.792969 677.105469 502.785156 688.121094 502.785156 L 747.46875 497.496094 C 758.492188 497.496094 767.425781 507.511719 767.425781 519.863281 Z M 767.425781 741.324219 " fill-opacity="1" fill-rule="nonzero"/></g><path fill="#181930" d="M 492.429688 430.457031 L 541.25 430.457031 L 541.25 545.941406 L 492.429688 545.941406 Z M 492.429688 430.457031 " fill-opacity="1" fill-rule="nonzero"/><path fill="#181930" d="M 707.84375 575.253906 C 707.84375 575.253906 744.640625 661.421875 689.761719 702.484375 C 627.488281 612.625 506.660156 563.722656 506.660156 563.722656 L 528.050781 519.855469 Z M 707.84375 575.253906 " fill-opacity="1" fill-rule="nonzero"/><path fill="#080518" d="M 559.941406 399.890625 C 559.941406 401.636719 559.855469 403.375 559.683594 405.113281 C 559.511719 406.847656 559.257812 408.570312 558.917969 410.28125 C 558.574219 411.992188 558.152344 413.683594 557.644531 415.351562 C 557.140625 417.019531 556.550781 418.660156 555.882812 420.273438 C 555.21875 421.882812 554.472656 423.457031 553.648438 424.996094 C 552.828125 426.535156 551.929688 428.03125 550.960938 429.480469 C 549.992188 430.929688 548.953125 432.328125 547.847656 433.679688 C 546.738281 435.027344 545.570312 436.316406 544.335938 437.550781 C 543.101562 438.785156 541.808594 439.953125 540.460938 441.058594 C 539.113281 442.167969 537.710938 443.203125 536.261719 444.171875 C 534.8125 445.140625 533.316406 446.039062 531.777344 446.859375 C 530.238281 447.683594 528.664062 448.425781 527.050781 449.09375 C 525.4375 449.761719 523.796875 450.347656 522.128906 450.855469 C 520.457031 451.363281 518.765625 451.785156 517.054688 452.125 C 515.34375 452.464844 513.621094 452.722656 511.882812 452.894531 C 510.148438 453.0625 508.40625 453.148438 506.660156 453.148438 C 504.917969 453.148438 503.175781 453.0625 501.441406 452.890625 C 499.703125 452.722656 497.980469 452.464844 496.265625 452.125 C 494.554688 451.785156 492.867188 451.363281 491.195312 450.855469 C 489.527344 450.347656 487.886719 449.761719 486.273438 449.09375 C 484.660156 448.425781 483.085938 447.683594 481.546875 446.859375 C 480.007812 446.039062 478.511719 445.140625 477.0625 444.171875 C 475.609375 443.203125 474.210938 442.167969 472.863281 441.058594 C 471.511719 439.953125 470.222656 438.785156 468.988281 437.550781 C 467.753906 436.316406 466.582031 435.027344 465.476562 433.675781 C 464.371094 432.328125 463.332031 430.929688 462.363281 429.480469 C 461.394531 428.03125 460.496094 426.535156 459.675781 424.996094 C 458.851562 423.457031 458.105469 421.882812 457.4375 420.273438 C 456.769531 418.660156 456.183594 417.019531 455.675781 415.351562 C 455.171875 413.683594 454.746094 411.992188 454.40625 410.28125 C 454.066406 408.570312 453.8125 406.847656 453.640625 405.113281 C 453.46875 403.375 453.382812 401.636719 453.382812 399.890625 C 453.382812 398.148438 453.46875 396.40625 453.640625 394.671875 C 453.8125 392.9375 454.066406 391.210938 454.40625 389.5 C 454.746094 387.789062 455.171875 386.101562 455.675781 384.433594 C 456.183594 382.761719 456.769531 381.121094 457.4375 379.511719 C 458.105469 377.898438 458.851562 376.324219 459.675781 374.785156 C 460.496094 373.246094 461.394531 371.753906 462.363281 370.304688 C 463.332031 368.851562 464.371094 367.453125 465.476562 366.105469 C 466.582031 364.757812 467.753906 363.464844 468.988281 362.234375 C 470.222656 361 471.511719 359.828125 472.863281 358.722656 C 474.210938 357.617188 475.609375 356.578125 477.0625 355.609375 C 478.511719 354.640625 480.007812 353.746094 481.546875 352.921875 C 483.085938 352.101562 484.660156 351.355469 486.273438 350.6875 C 487.886719 350.019531 489.527344 349.433594 491.195312 348.925781 C 492.867188 348.421875 494.554688 347.996094 496.265625 347.65625 C 497.980469 347.316406 499.703125 347.0625 501.441406 346.890625 C 503.175781 346.71875 504.917969 346.632812 506.660156 346.632812 C 508.40625 346.632812 510.148438 346.71875 511.882812 346.890625 C 513.621094 347.0625 515.34375 347.316406 517.054688 347.65625 C 518.765625 347.996094 520.457031 348.421875 522.128906 348.925781 C 523.796875 349.433594 525.4375 350.019531 527.050781 350.6875 C 528.664062 351.355469 530.238281 352.101562 531.777344 352.921875 C 533.316406 353.746094 534.8125 354.640625 536.261719 355.609375 C 537.710938 356.578125 539.113281 357.617188 540.460938 358.722656 C 541.808594 359.828125 543.101562 361 544.335938 362.234375 C 545.570312 363.464844 546.738281 364.757812 547.847656 366.105469 C 548.953125 367.453125 549.992188 368.851562 550.960938 370.304688 C 551.929688 371.753906 552.828125 373.246094 553.648438 374.785156 C 554.472656 376.324219 555.21875 377.898438 555.882812 379.511719 C 556.550781 381.121094 557.140625 382.761719 557.644531 384.433594 C 558.152344 386.101562 558.574219 387.789062 558.917969 389.5 C 559.257812 391.210938 559.511719 392.9375 559.683594 394.671875 C 559.855469 396.40625 559.941406 398.148438 559.941406 399.890625 Z M 559.941406 399.890625 " fill-opacity="1" fill-rule="nonzero"/><path fill="#080518" d="M 559.589844 545.503906 C 559.589844 546.902344 559.519531 548.300781 559.382812 549.691406 C 559.246094 551.085938 559.039062 552.46875 558.765625 553.839844 C 558.492188 555.210938 558.15625 556.570312 557.75 557.90625 C 557.339844 559.246094 556.871094 560.5625 556.335938 561.855469 C 555.800781 563.148438 555.203125 564.410156 554.542969 565.644531 C 553.882812 566.878906 553.164062 568.078125 552.386719 569.242188 C 551.605469 570.40625 550.773438 571.527344 549.886719 572.609375 C 549 573.691406 548.058594 574.726562 547.070312 575.71875 C 546.078125 576.707031 545.042969 577.644531 543.960938 578.53125 C 542.878906 579.421875 541.757812 580.253906 540.59375 581.03125 C 539.429688 581.808594 538.230469 582.527344 536.992188 583.1875 C 535.757812 583.847656 534.496094 584.445312 533.203125 584.980469 C 531.910156 585.515625 530.59375 585.984375 529.253906 586.390625 C 527.914062 586.796875 526.554688 587.136719 525.183594 587.410156 C 523.8125 587.683594 522.425781 587.886719 521.035156 588.027344 C 519.640625 588.164062 518.246094 588.230469 516.84375 588.230469 C 515.445312 588.230469 514.046875 588.164062 512.65625 588.027344 C 511.261719 587.886719 509.878906 587.683594 508.507812 587.410156 C 507.132812 587.136719 505.777344 586.796875 504.4375 586.390625 C 503.097656 585.984375 501.78125 585.515625 500.488281 584.980469 C 499.195312 584.445312 497.929688 583.847656 496.695312 583.1875 C 495.460938 582.527344 494.261719 581.808594 493.097656 581.03125 C 491.933594 580.253906 490.808594 579.421875 489.726562 578.53125 C 488.644531 577.644531 487.609375 576.707031 486.621094 575.71875 C 485.628906 574.726562 484.691406 573.691406 483.804688 572.609375 C 482.914062 571.527344 482.082031 570.40625 481.304688 569.242188 C 480.527344 568.078125 479.808594 566.878906 479.148438 565.644531 C 478.488281 564.410156 477.890625 563.148438 477.355469 561.855469 C 476.820312 560.5625 476.347656 559.246094 475.941406 557.90625 C 475.535156 556.570312 475.195312 555.210938 474.921875 553.839844 C 474.648438 552.46875 474.445312 551.085938 474.308594 549.691406 C 474.167969 548.300781 474.101562 546.902344 474.101562 545.503906 C 474.101562 544.105469 474.167969 542.710938 474.308594 541.316406 C 474.445312 539.925781 474.648438 538.542969 474.921875 537.167969 C 475.195312 535.796875 475.535156 534.441406 475.941406 533.101562 C 476.347656 531.761719 476.820312 530.445312 477.355469 529.152344 C 477.890625 527.859375 478.488281 526.597656 479.148438 525.363281 C 479.808594 524.128906 480.527344 522.929688 481.304688 521.765625 C 482.082031 520.601562 482.914062 519.480469 483.804688 518.398438 C 484.691406 517.316406 485.628906 516.28125 486.621094 515.292969 C 487.609375 514.304688 488.644531 513.363281 489.726562 512.476562 C 490.808594 511.589844 491.933594 510.757812 493.097656 509.980469 C 494.261719 509.203125 495.460938 508.484375 496.695312 507.824219 C 497.929688 507.164062 499.195312 506.566406 500.488281 506.03125 C 501.78125 505.496094 503.097656 505.023438 504.4375 504.617188 C 505.777344 504.210938 507.132812 503.871094 508.503906 503.597656 C 509.878906 503.324219 511.261719 503.121094 512.65625 502.984375 C 514.046875 502.847656 515.445312 502.777344 516.84375 502.777344 C 518.246094 502.777344 519.640625 502.847656 521.035156 502.984375 C 522.425781 503.121094 523.8125 503.324219 525.183594 503.597656 C 526.558594 503.871094 527.914062 504.210938 529.253906 504.617188 C 530.59375 505.023438 531.910156 505.496094 533.203125 506.03125 C 534.496094 506.566406 535.757812 507.164062 536.992188 507.824219 C 538.230469 508.484375 539.429688 509.203125 540.59375 509.980469 C 541.757812 510.757812 542.878906 511.589844 543.960938 512.476562 C 545.042969 513.363281 546.078125 514.304688 547.070312 515.292969 C 548.058594 516.28125 549 517.316406 549.886719 518.398438 C 550.773438 519.480469 551.605469 520.601562 552.386719 521.765625 C 553.164062 522.929688 553.882812 524.128906 554.542969 525.363281 C 555.203125 526.597656 555.800781 527.859375 556.335938 529.152344 C 556.871094 530.445312 557.339844 531.761719 557.75 533.101562 C 558.15625 534.441406 558.496094 535.796875 558.765625 537.167969 C 559.039062 538.542969 559.246094 539.925781 559.382812 541.316406 C 559.519531 542.710938 559.589844 544.105469 559.589844 545.503906 Z M 559.589844 545.503906 " fill-opacity="1" fill-rule="nonzero"/><path fill="#080518" d="M 182.71875 127.019531 L 59.230469 148.351562 C 59.230469 148.351562 0.433594 167.226562 21.050781 299.757812 C 21.050781 299.757812 22.632812 315.460938 62.730469 309.214844 C 62.730469 309.214844 213.777344 266.886719 245.238281 286.332031 C 245.246094 286.332031 312.457031 121.183594 182.71875 127.019531 Z M 182.71875 127.019531 " fill-opacity="1" fill-rule="nonzero"/><path fill="#131328" d="M 648.515625 223.722656 C 671.921875 317.394531 642.390625 359.730469 592.941406 373.140625 C 543.5 386.550781 488.207031 341.386719 469.453125 272.28125 C 450.691406 203.167969 475.582031 136.273438 525.023438 122.867188 C 574.476562 109.460938 625.4375 131.308594 648.515625 223.722656 Z M 648.515625 223.722656 " fill-opacity="1" fill-rule="nonzero"/><path fill="#181930" d="M 620.953125 231.761719 C 602.917969 165.320312 555.628906 119.933594 513.882812 127.933594 L 513.875 127.925781 L 219.144531 183.960938 L 286.078125 459.644531 L 575.742188 377 C 576.289062 376.875 576.84375 376.738281 577.402344 376.589844 C 578.347656 376.335938 579.289062 376.039062 580.207031 375.726562 L 582.214844 375.15625 L 582.1875 375.023438 C 621.457031 360.058594 638.804688 297.570312 620.953125 231.761719 Z M 620.953125 231.761719 " fill-opacity="1" fill-rule="nonzero"/><path fill="#131328" d="M 354.839844 293.742188 C 380.339844 395.949219 347.722656 442.253906 293.253906 457.027344 C 238.773438 471.796875 178.019531 422.644531 157.558594 347.242188 C 137.09375 271.835938 164.667969 198.738281 219.144531 183.964844 C 273.625 169.1875 329.671875 192.910156 354.839844 293.742188 Z M 354.839844 293.742188 " fill-opacity="1" fill-rule="nonzero"/><path fill="#9ad0f2" d="M 314.171875 309.339844 C 314.722656 311.382812 315.25 313.429688 315.75 315.488281 C 316.246094 317.542969 316.714844 319.601562 317.15625 321.664062 C 317.59375 323.726562 318.007812 325.789062 318.386719 327.855469 C 318.769531 329.921875 319.121094 331.984375 319.441406 334.050781 C 319.761719 336.113281 320.054688 338.171875 320.316406 340.230469 C 320.578125 342.285156 320.808594 344.335938 321.007812 346.378906 C 321.207031 348.421875 321.375 350.460938 321.515625 352.484375 C 321.652344 354.511719 321.761719 356.53125 321.835938 358.535156 C 321.914062 360.539062 321.957031 362.53125 321.972656 364.507812 C 321.988281 366.488281 321.96875 368.449219 321.921875 370.398438 C 321.875 372.34375 321.796875 374.273438 321.6875 376.183594 C 321.574219 378.09375 321.433594 379.984375 321.261719 381.855469 C 321.089844 383.722656 320.890625 385.570312 320.65625 387.394531 C 320.421875 389.21875 320.160156 391.019531 319.867188 392.792969 C 319.570312 394.570312 319.246094 396.316406 318.894531 398.039062 C 318.539062 399.757812 318.15625 401.449219 317.742188 403.113281 C 317.328125 404.777344 316.886719 406.40625 316.414062 408.007812 C 315.945312 409.609375 315.445312 411.175781 314.914062 412.710938 C 314.386719 414.246094 313.828125 415.746094 313.246094 417.210938 C 312.660156 418.675781 312.050781 420.101562 311.410156 421.492188 C 310.769531 422.886719 310.105469 424.238281 309.414062 425.554688 C 308.722656 426.867188 308.003906 428.144531 307.261719 429.378906 C 306.519531 430.613281 305.75 431.808594 304.957031 432.960938 C 304.164062 434.113281 303.347656 435.222656 302.507812 436.289062 C 301.667969 437.355469 300.808594 438.378906 299.921875 439.359375 C 299.035156 440.335938 298.128906 441.269531 297.199219 442.160156 C 296.269531 443.046875 295.320312 443.890625 294.351562 444.6875 C 293.382812 445.480469 292.390625 446.230469 291.382812 446.933594 C 290.375 447.632812 289.347656 448.285156 288.300781 448.890625 C 287.257812 449.496094 286.195312 450.054688 285.117188 450.5625 C 284.035156 451.070312 282.941406 451.527344 281.832031 451.9375 C 280.722656 452.34375 279.597656 452.703125 278.457031 453.011719 C 277.320312 453.320312 276.167969 453.582031 275 453.789062 C 273.835938 453.996094 272.660156 454.15625 271.472656 454.261719 C 270.285156 454.371094 269.085938 454.425781 267.878906 454.433594 C 266.671875 454.4375 265.457031 454.394531 264.230469 454.296875 C 263.003906 454.203125 261.773438 454.054688 260.53125 453.859375 C 259.292969 453.664062 258.046875 453.414062 256.796875 453.117188 C 255.546875 452.820312 254.292969 452.472656 253.03125 452.078125 C 251.773438 451.679688 250.511719 451.234375 249.246094 450.738281 C 247.984375 450.242188 246.71875 449.695312 245.449219 449.101562 C 244.183594 448.507812 242.917969 447.867188 241.652344 447.175781 C 240.386719 446.484375 239.121094 445.746094 237.859375 444.960938 C 236.597656 444.175781 235.339844 443.34375 234.085938 442.46875 C 232.832031 441.589844 231.582031 440.667969 230.335938 439.699219 C 229.089844 438.730469 227.851562 437.71875 226.621094 436.660156 C 225.386719 435.601562 224.164062 434.503906 222.949219 433.359375 C 221.730469 432.21875 220.523438 431.035156 219.328125 429.808594 C 218.128906 428.582031 216.941406 427.316406 215.765625 426.011719 C 214.59375 424.703125 213.429688 423.359375 212.277344 421.976562 C 211.125 420.59375 209.988281 419.175781 208.863281 417.71875 C 207.742188 416.261719 206.632812 414.769531 205.539062 413.246094 C 204.445312 411.71875 203.367188 410.160156 202.304688 408.566406 C 201.246094 406.972656 200.203125 405.347656 199.175781 403.691406 C 198.152344 402.035156 197.144531 400.351562 196.15625 398.636719 C 195.167969 396.921875 194.199219 395.183594 193.25 393.414062 C 192.304688 391.644531 191.375 389.851562 190.46875 388.03125 C 189.566406 386.214844 188.679688 384.371094 187.820312 382.507812 C 186.957031 380.640625 186.121094 378.757812 185.304688 376.851562 C 184.492188 374.945312 183.703125 373.019531 182.9375 371.078125 C 182.167969 369.132812 181.429688 367.175781 180.714844 365.199219 C 179.996094 363.226562 179.308594 361.234375 178.644531 359.234375 C 177.980469 357.230469 177.34375 355.21875 176.734375 353.195312 C 176.125 351.167969 175.542969 349.136719 174.988281 347.09375 C 174.433594 345.050781 173.910156 343 173.410156 340.945312 C 172.914062 338.890625 172.445312 336.832031 172.003906 334.769531 C 171.5625 332.707031 171.152344 330.640625 170.773438 328.578125 C 170.390625 326.511719 170.039062 324.445312 169.71875 322.382812 C 169.394531 320.320312 169.105469 318.261719 168.84375 316.203125 C 168.582031 314.148438 168.351562 312.097656 168.152344 310.054688 C 167.953125 308.007812 167.78125 305.972656 167.644531 303.945312 C 167.503906 301.917969 167.398438 299.902344 167.320312 297.898438 C 167.246094 295.894531 167.199219 293.902344 167.1875 291.921875 C 167.171875 289.945312 167.1875 287.980469 167.238281 286.035156 C 167.285156 284.089844 167.363281 282.160156 167.472656 280.25 C 167.582031 278.339844 167.722656 276.449219 167.894531 274.578125 C 168.066406 272.707031 168.269531 270.863281 168.503906 269.035156 C 168.734375 267.210938 169 265.414062 169.292969 263.636719 C 169.585938 261.863281 169.910156 260.117188 170.265625 258.394531 C 170.621094 256.675781 171.003906 254.980469 171.417969 253.320312 C 171.828125 251.65625 172.273438 250.027344 172.742188 248.425781 C 173.214844 246.824219 173.714844 245.257812 174.242188 243.722656 C 174.773438 242.1875 175.328125 240.6875 175.914062 239.222656 C 176.5 237.757812 177.109375 236.332031 177.75 234.9375 C 178.386719 233.546875 179.054688 232.195312 179.746094 230.878906 C 180.4375 229.5625 181.152344 228.289062 181.898438 227.054688 C 182.640625 225.820312 183.40625 224.625 184.199219 223.472656 C 184.992188 222.320312 185.808594 221.210938 186.648438 220.144531 C 187.488281 219.078125 188.351562 218.054688 189.238281 217.074219 C 190.125 216.09375 191.03125 215.160156 191.960938 214.273438 C 192.886719 213.382812 193.835938 212.542969 194.808594 211.746094 C 195.777344 210.949219 196.765625 210.203125 197.777344 209.5 C 198.785156 208.800781 199.8125 208.144531 200.855469 207.539062 C 201.902344 206.933594 202.964844 206.378906 204.042969 205.871094 C 205.121094 205.363281 206.21875 204.90625 207.328125 204.496094 C 208.4375 204.085938 209.5625 203.730469 210.703125 203.421875 C 211.839844 203.109375 212.992188 202.851562 214.15625 202.644531 C 215.320312 202.4375 216.5 202.277344 217.6875 202.171875 C 218.875 202.0625 220.070312 202.007812 221.28125 202 C 222.488281 201.996094 223.703125 202.039062 224.929688 202.136719 C 226.152344 202.230469 227.386719 202.375 228.625 202.574219 C 229.867188 202.769531 231.109375 203.015625 232.363281 203.3125 C 233.613281 203.613281 234.867188 203.957031 236.125 204.355469 C 237.386719 204.753906 238.648438 205.199219 239.910156 205.695312 C 241.175781 206.191406 242.441406 206.738281 243.707031 207.332031 C 244.976562 207.925781 246.242188 208.566406 247.507812 209.257812 C 248.773438 209.949219 250.035156 210.6875 251.296875 211.46875 C 252.558594 212.253906 253.820312 213.085938 255.074219 213.964844 C 256.328125 214.84375 257.578125 215.765625 258.824219 216.734375 C 260.070312 217.703125 261.308594 218.714844 262.539062 219.773438 C 263.769531 220.828125 264.996094 221.929688 266.210938 223.070312 C 267.429688 224.214844 268.632812 225.398438 269.832031 226.625 C 271.03125 227.851562 272.214844 229.117188 273.390625 230.421875 C 274.566406 231.726562 275.730469 233.070312 276.882812 234.453125 C 278.03125 235.835938 279.171875 237.257812 280.292969 238.714844 C 281.417969 240.171875 282.527344 241.660156 283.621094 243.1875 C 284.714844 244.714844 285.792969 246.273438 286.851562 247.867188 C 287.914062 249.460938 288.957031 251.085938 289.984375 252.742188 C 291.007812 254.394531 292.015625 256.082031 293.003906 257.796875 C 293.992188 259.507812 294.960938 261.25 295.90625 263.019531 C 296.855469 264.789062 297.78125 266.582031 298.6875 268.402344 C 299.59375 270.21875 300.476562 272.0625 301.339844 273.925781 C 302.199219 275.792969 303.039062 277.675781 303.851562 279.582031 C 304.667969 281.488281 305.457031 283.414062 306.222656 285.355469 C 306.988281 287.300781 307.730469 289.257812 308.445312 291.234375 C 309.160156 293.207031 309.851562 295.195312 310.515625 297.199219 C 311.175781 299.203125 311.8125 301.214844 312.425781 303.238281 C 313.035156 305.265625 313.617188 307.296875 314.171875 309.339844 Z M 314.171875 309.339844 " fill-opacity="1" fill-rule="nonzero"/><path fill="#ffffff" d="M 209.742188 278.621094 C 209.742188 279.238281 209.710938 279.855469 209.648438 280.472656 C 209.589844 281.089844 209.496094 281.699219 209.378906 282.308594 C 209.257812 282.914062 209.105469 283.515625 208.925781 284.109375 C 208.746094 284.699219 208.539062 285.28125 208.300781 285.855469 C 208.0625 286.425781 207.800781 286.984375 207.507812 287.53125 C 207.214844 288.078125 206.898438 288.609375 206.550781 289.125 C 206.207031 289.636719 205.839844 290.136719 205.445312 290.613281 C 205.054688 291.09375 204.636719 291.550781 204.199219 291.988281 C 203.761719 292.425781 203.304688 292.84375 202.824219 293.234375 C 202.347656 293.628906 201.847656 293.996094 201.335938 294.339844 C 200.820312 294.683594 200.289062 295.003906 199.742188 295.292969 C 199.195312 295.585938 198.636719 295.851562 198.0625 296.085938 C 197.492188 296.324219 196.910156 296.53125 196.316406 296.710938 C 195.722656 296.890625 195.125 297.042969 194.515625 297.164062 C 193.90625 297.285156 193.296875 297.375 192.679688 297.4375 C 192.0625 297.496094 191.445312 297.527344 190.824219 297.527344 C 190.207031 297.527344 189.589844 297.496094 188.972656 297.4375 C 188.355469 297.375 187.742188 297.285156 187.136719 297.164062 C 186.527344 297.042969 185.929688 296.890625 185.335938 296.710938 C 184.742188 296.53125 184.160156 296.324219 183.585938 296.085938 C 183.015625 295.851562 182.457031 295.585938 181.910156 295.292969 C 181.363281 295.003906 180.832031 294.683594 180.316406 294.339844 C 179.800781 293.996094 179.304688 293.628906 178.824219 293.234375 C 178.347656 292.84375 177.890625 292.425781 177.449219 291.988281 C 177.011719 291.550781 176.597656 291.09375 176.203125 290.613281 C 175.8125 290.136719 175.441406 289.636719 175.097656 289.125 C 174.753906 288.609375 174.4375 288.078125 174.144531 287.53125 C 173.851562 286.984375 173.585938 286.425781 173.351562 285.855469 C 173.113281 285.28125 172.90625 284.699219 172.726562 284.109375 C 172.546875 283.515625 172.394531 282.914062 172.273438 282.308594 C 172.152344 281.699219 172.0625 281.089844 172 280.472656 C 171.941406 279.855469 171.910156 279.238281 171.910156 278.621094 C 171.910156 278 171.941406 277.382812 172 276.765625 C 172.0625 276.148438 172.152344 275.539062 172.273438 274.929688 C 172.394531 274.324219 172.546875 273.722656 172.726562 273.132812 C 172.90625 272.539062 173.113281 271.957031 173.351562 271.382812 C 173.585938 270.8125 173.851562 270.253906 174.144531 269.707031 C 174.4375 269.160156 174.753906 268.628906 175.097656 268.113281 C 175.441406 267.601562 175.8125 267.101562 176.203125 266.625 C 176.597656 266.144531 177.011719 265.6875 177.449219 265.25 C 177.890625 264.8125 178.347656 264.398438 178.824219 264.003906 C 179.304688 263.609375 179.800781 263.242188 180.316406 262.898438 C 180.832031 262.554688 181.363281 262.238281 181.910156 261.945312 C 182.457031 261.652344 183.015625 261.386719 183.585938 261.152344 C 184.160156 260.914062 184.742188 260.707031 185.335938 260.527344 C 185.929688 260.347656 186.527344 260.195312 187.136719 260.074219 C 187.742188 259.953125 188.355469 259.863281 188.972656 259.804688 C 189.589844 259.742188 190.207031 259.710938 190.824219 259.710938 C 191.445312 259.710938 192.0625 259.742188 192.679688 259.804688 C 193.296875 259.863281 193.90625 259.953125 194.515625 260.074219 C 195.125 260.195312 195.722656 260.347656 196.316406 260.527344 C 196.910156 260.707031 197.492188 260.914062 198.0625 261.152344 C 198.636719 261.386719 199.195312 261.652344 199.742188 261.945312 C 200.289062 262.238281 200.820312 262.554688 201.335938 262.898438 C 201.847656 263.242188 202.347656 263.609375 202.824219 264.003906 C 203.304688 264.398438 203.761719 264.8125 204.199219 265.25 C 204.636719 265.6875 205.054688 266.144531 205.445312 266.625 C 205.839844 267.101562 206.207031 267.601562 206.550781 268.113281 C 206.898438 268.628906 207.214844 269.160156 207.507812 269.707031 C 207.800781 270.253906 208.0625 270.8125 208.300781 271.382812 C 208.539062 271.957031 208.746094 272.539062 208.925781 273.132812 C 209.105469 273.722656 209.257812 274.324219 209.378906 274.929688 C 209.496094 275.539062 209.589844 276.148438 209.648438 276.765625 C 209.710938 277.382812 209.742188 278 209.742188 278.621094 Z M 209.742188 278.621094 " fill-opacity="0.3" fill-rule="nonzero"/><path fill="#ffffff" d="M 191.9375 306.820312 C 193.867188 311.671875 191.519531 317.175781 186.660156 319.113281 C 181.816406 321.054688 176.300781 318.699219 174.371094 313.855469 C 172.421875 309.003906 174.78125 303.5 179.632812 301.558594 C 184.484375 299.621094 189.984375 301.976562 191.9375 306.820312 Z M 191.9375 306.820312 " fill-opacity="0.3" fill-rule="nonzero"/><path fill="#252946" d="M 59.234375 148.351562 L 552.636719 56.359375 C 552.636719 56.359375 599.171875 41.71875 627.980469 84.011719 C 627.980469 84.011719 676.300781 158.832031 677.921875 235.277344 L 370.394531 330.429688 C 370.394531 330.429688 325.726562 243.054688 234.605469 290.527344 C 234.605469 290.527344 209.1875 301.621094 198.882812 270.171875 C 198.882812 270.175781 173.429688 141.429688 59.234375 148.351562 Z M 59.234375 148.351562 " fill-opacity="1" fill-rule="nonzero"/><path fill="#f8b051" d="M 417.304688 177.363281 L 515.03125 8.742188 L 616.339844 177.363281 Z M 417.304688 177.363281 " fill-opacity="1" fill-rule="nonzero"/><path fill="#e83c37" d="M 515.140625 21.347656 L 605.65625 172.003906 L 427.824219 172.003906 L 515.140625 21.347656 M 515.058594 0.109375 C 513.933594 0.109375 512.808594 0.472656 511.996094 1.1875 L 409.46875 178.085938 C 407.972656 180.902344 408.234375 182.726562 412.777344 182.726562 L 619.757812 182.726562 C 625.519531 182.726562 625.785156 179.890625 624.191406 178.007812 L 517.824219 0.96875 C 517.035156 0.390625 516.039062 0.109375 515.058594 0.109375 Z M 515.058594 0.109375 " fill-opacity="1" fill-rule="nonzero"/><path fill="#ffffff" d="M 527.386719 87.042969 C 527.386719 104.496094 522.660156 131.640625 516.816406 131.640625 C 510.984375 131.640625 506.257812 104.496094 506.257812 87.042969 C 506.257812 69.605469 510.984375 68.464844 516.816406 68.464844 C 522.660156 68.460938 527.386719 69.605469 527.386719 87.042969 Z M 527.386719 87.042969 " fill-opacity="1" fill-rule="nonzero"/><path fill="#ffffff" d="M 525.820312 150.433594 C 525.820312 151.085938 525.761719 151.730469 525.648438 152.367188 C 525.53125 153.007812 525.363281 153.625 525.136719 154.226562 C 524.910156 154.828125 524.632812 155.402344 524.304688 155.941406 C 523.976562 156.484375 523.601562 156.984375 523.183594 157.445312 C 522.765625 157.90625 522.3125 158.316406 521.820312 158.679688 C 521.328125 159.039062 520.8125 159.347656 520.265625 159.59375 C 519.71875 159.84375 519.15625 160.03125 518.578125 160.160156 C 517.996094 160.285156 517.410156 160.351562 516.820312 160.351562 C 516.230469 160.351562 515.644531 160.285156 515.066406 160.160156 C 514.484375 160.03125 513.921875 159.84375 513.375 159.59375 C 512.832031 159.347656 512.3125 159.039062 511.820312 158.679688 C 511.328125 158.316406 510.875 157.90625 510.457031 157.445312 C 510.039062 156.984375 509.664062 156.484375 509.335938 155.941406 C 509.007812 155.402344 508.730469 154.828125 508.507812 154.226562 C 508.28125 153.625 508.109375 153.007812 507.992188 152.367188 C 507.878906 151.730469 507.820312 151.085938 507.820312 150.433594 C 507.820312 149.78125 507.878906 149.136719 507.992188 148.5 C 508.109375 147.859375 508.28125 147.238281 508.507812 146.636719 C 508.730469 146.035156 509.007812 145.464844 509.335938 144.921875 C 509.664062 144.382812 510.039062 143.882812 510.457031 143.421875 C 510.875 142.960938 511.328125 142.550781 511.820312 142.1875 C 512.3125 141.824219 512.832031 141.519531 513.375 141.269531 C 513.921875 141.023438 514.484375 140.832031 515.066406 140.707031 C 515.644531 140.578125 516.230469 140.515625 516.820312 140.515625 C 517.410156 140.515625 517.996094 140.578125 518.578125 140.707031 C 519.15625 140.832031 519.71875 141.023438 520.265625 141.269531 C 520.8125 141.519531 521.328125 141.824219 521.820312 142.1875 C 522.3125 142.550781 522.765625 142.960938 523.183594 143.421875 C 523.601562 143.882812 523.976562 144.382812 524.304688 144.921875 C 524.632812 145.464844 524.910156 146.035156 525.136719 146.636719 C 525.363281 147.238281 525.53125 147.859375 525.648438 148.5 C 525.761719 149.136719 525.820312 149.78125 525.820312 150.433594 Z M 525.820312 150.433594 " fill-opacity="1" fill-rule="nonzero"/></svg>