<svg xmlns="http://www.w3.org/2000/svg" xmlns:xlink="http://www.w3.org/1999/xlink" width="1024" zoomAndPan="magnify" viewBox="0 0 768 767.999994" height="1024" preserveAspectRatio="xMidYMid meet" version="1.0"><defs><clipPath id="84705afba2"><path d="M 350 17.121094 L 363 17.121094 L 363 31 L 350 31 Z M 350 17.121094 " clip-rule="nonzero"/></clipPath><clipPath id="d87abb4b65"><path d="M 349 17.121094 L 364 17.121094 L 364 32 L 349 32 Z M 349 17.121094 " clip-rule="nonzero"/></clipPath><clipPath id="f5d7858f2e"><path d="M 35.609375 393 L 50 393 L 50 409 L 35.609375 409 Z M 35.609375 393 " clip-rule="nonzero"/></clipPath><clipPath id="447336ba9f"><path d="M 717 389 L 732.359375 389 L 732.359375 405 L 717 405 Z M 717 389 " clip-rule="nonzero"/></clipPath><clipPath id="5fc72f4a73"><path d="M 346 696 L 361 696 L 361 711.34375 L 346 711.34375 Z M 346 696 " clip-rule="nonzero"/></clipPath></defs><path fill="#2d4868" d="M 308.71875 257.660156 L 305.34375 257.660156 L 305.34375 179.640625 L 253.140625 127.460938 L 255.53125 125.066406 L 308.71875 178.234375 L 308.71875 257.660156 " fill-opacity="1" fill-rule="nonzero"/><path fill="#fabc18" d="M 259.089844 122.023438 C 256.609375 119.542969 252.578125 119.542969 250.089844 122.023438 C 247.617188 124.507812 247.617188 128.53125 250.089844 131.019531 C 252.578125 133.496094 256.609375 133.496094 259.089844 131.019531 C 261.570312 128.53125 261.570312 124.507812 259.089844 122.023438 " fill-opacity="1" fill-rule="nonzero"/><path fill="#2d4868" d="M 250.699219 130.410156 C 252.847656 132.5625 256.339844 132.5625 258.488281 130.410156 C 260.644531 128.269531 260.644531 124.765625 258.488281 122.617188 C 256.339844 120.46875 252.847656 120.46875 250.699219 122.617188 C 248.546875 124.765625 248.546875 128.269531 250.699219 130.410156 C 252.847656 132.5625 248.546875 128.269531 250.699219 130.410156 Z M 259.6875 121.429688 C 262.488281 124.230469 262.488281 128.800781 259.6875 131.605469 C 256.882812 134.417969 252.308594 134.417969 249.503906 131.605469 C 246.691406 128.800781 246.691406 124.230469 249.503906 121.429688 C 252.308594 118.625 256.882812 118.625 259.6875 121.429688 C 262.488281 124.230469 256.882812 118.625 259.6875 121.429688 " fill-opacity="1" fill-rule="nonzero"/><path fill="#2d4868" d="M 348.511719 257.660156 L 345.128906 257.660156 L 345.128906 179.640625 L 313.085938 147.597656 L 313.085938 75.902344 L 316.46875 75.902344 L 316.46875 146.210938 L 348.511719 178.234375 L 348.511719 257.660156 " fill-opacity="1" fill-rule="nonzero"/><path fill="#fabc18" d="M 321.125 76.265625 C 321.125 72.761719 318.285156 69.910156 314.777344 69.910156 C 311.261719 69.910156 308.410156 72.761719 308.410156 76.265625 C 308.410156 79.773438 311.261719 82.621094 314.777344 82.621094 C 318.285156 82.621094 321.125 79.773438 321.125 76.265625 " fill-opacity="1" fill-rule="nonzero"/><path fill="#2d4868" d="M 309.261719 76.265625 C 309.261719 79.308594 311.738281 81.78125 314.777344 81.78125 C 317.8125 81.78125 320.285156 79.308594 320.285156 76.265625 C 320.285156 73.230469 317.8125 70.761719 314.777344 70.761719 C 311.738281 70.761719 309.261719 73.230469 309.261719 76.265625 C 309.261719 79.308594 309.261719 73.230469 309.261719 76.265625 Z M 321.976562 76.265625 C 321.976562 80.234375 318.746094 83.464844 314.777344 83.464844 C 310.804688 83.464844 307.566406 80.234375 307.566406 76.265625 C 307.566406 72.304688 310.804688 69.070312 314.777344 69.070312 C 318.746094 69.070312 321.976562 72.304688 321.976562 76.265625 C 321.976562 80.234375 321.976562 72.304688 321.976562 76.265625 " fill-opacity="1" fill-rule="nonzero"/><path fill="#2d4868" d="M 390.121094 256.839844 L 386.738281 256.839844 L 386.738281 178.820312 L 354.6875 146.789062 L 354.6875 23.800781 L 358.078125 23.800781 L 358.078125 145.382812 L 390.121094 177.429688 L 390.121094 256.839844 " fill-opacity="1" fill-rule="nonzero"/><g clip-path="url(#84705afba2)"><path fill="#fabc18" d="M 362.734375 24.15625 C 362.734375 20.648438 359.894531 17.800781 356.386719 17.800781 C 352.871094 17.800781 350.019531 20.648438 350.019531 24.15625 C 350.019531 27.660156 352.871094 30.511719 356.386719 30.511719 C 359.894531 30.511719 362.734375 27.660156 362.734375 24.15625 " fill-opacity="1" fill-rule="nonzero"/></g><g clip-path="url(#d87abb4b65)"><path fill="#2d4868" d="M 350.863281 24.15625 C 350.863281 27.191406 353.339844 29.660156 356.386719 29.660156 C 359.421875 29.660156 361.894531 27.191406 361.894531 24.15625 C 361.894531 21.113281 359.421875 18.640625 356.386719 18.640625 C 353.339844 18.640625 350.863281 21.113281 350.863281 24.15625 C 350.863281 27.191406 350.863281 21.113281 350.863281 24.15625 Z M 363.585938 24.15625 C 363.585938 28.125 360.347656 31.351562 356.386719 31.351562 C 352.414062 31.351562 349.175781 28.125 349.175781 24.15625 C 349.175781 20.1875 352.414062 16.957031 356.386719 16.957031 C 360.347656 16.957031 363.585938 20.1875 363.585938 24.15625 C 363.585938 28.125 363.585938 20.1875 363.585938 24.15625 " fill-opacity="1" fill-rule="nonzero"/></g><path fill="#2d4868" d="M 430.8125 253.738281 L 427.4375 253.738281 L 427.4375 174.519531 L 448.1875 142.488281 L 448.1875 87.171875 L 451.5625 87.171875 L 451.5625 143.484375 L 430.8125 175.515625 L 430.8125 253.738281 " fill-opacity="1" fill-rule="nonzero"/><path fill="#fabc18" d="M 456.238281 87.535156 C 456.238281 84.027344 453.394531 81.179688 449.878906 81.179688 C 446.371094 81.179688 443.527344 84.027344 443.527344 87.535156 C 443.527344 91.046875 446.371094 93.890625 449.878906 93.890625 C 453.394531 93.890625 456.238281 91.046875 456.238281 87.535156 " fill-opacity="1" fill-rule="nonzero"/><path fill="#2d4868" d="M 444.371094 87.535156 C 444.371094 90.585938 446.84375 93.046875 449.878906 93.046875 C 452.921875 93.046875 455.394531 90.585938 455.394531 87.535156 C 455.394531 84.5 452.921875 82.027344 449.878906 82.027344 C 446.84375 82.027344 444.371094 84.5 444.371094 87.535156 C 444.371094 90.585938 444.371094 84.5 444.371094 87.535156 Z M 457.085938 87.535156 C 457.085938 91.511719 453.855469 94.738281 449.878906 94.738281 C 445.90625 94.738281 442.679688 91.511719 442.679688 87.535156 C 442.679688 83.570312 445.90625 80.335938 449.878906 80.335938 C 453.855469 80.335938 457.085938 83.570312 457.085938 87.535156 C 457.085938 91.511719 457.085938 83.570312 457.085938 87.535156 " fill-opacity="1" fill-rule="nonzero"/><path fill="#2d4868" d="M 468.714844 253.738281 L 465.328125 253.738281 L 465.328125 198.234375 L 486.089844 166.210938 L 486.089844 128.269531 L 489.464844 128.269531 L 489.464844 167.199219 L 468.714844 199.238281 L 468.714844 253.738281 " fill-opacity="1" fill-rule="nonzero"/><path fill="#fabc18" d="M 494.128906 128.625 C 494.128906 125.117188 491.289062 122.269531 487.78125 122.269531 C 484.265625 122.269531 481.414062 125.117188 481.414062 128.625 C 481.414062 132.132812 484.265625 134.980469 487.78125 134.980469 C 491.289062 134.980469 494.128906 132.132812 494.128906 128.625 " fill-opacity="1" fill-rule="nonzero"/><path fill="#2d4868" d="M 482.265625 128.625 C 482.265625 131.667969 484.742188 134.140625 487.78125 134.140625 C 490.816406 134.140625 493.289062 131.667969 493.289062 128.625 C 493.289062 125.582031 490.816406 123.109375 487.78125 123.109375 C 484.742188 123.109375 482.265625 125.582031 482.265625 128.625 C 482.265625 131.667969 482.265625 125.582031 482.265625 128.625 Z M 494.972656 128.625 C 494.972656 132.601562 491.75 135.824219 487.78125 135.824219 C 483.808594 135.824219 480.570312 132.601562 480.570312 128.625 C 480.570312 124.648438 483.808594 121.429688 487.78125 121.429688 C 491.75 121.429688 494.972656 124.648438 494.972656 128.625 C 494.972656 132.601562 494.972656 124.648438 494.972656 128.625 " fill-opacity="1" fill-rule="nonzero"/><path fill="#2d4868" d="M 146.066406 504.292969 L 143.679688 501.90625 L 196.871094 448.730469 L 276.320312 448.730469 L 276.320312 452.113281 L 198.261719 452.113281 L 146.066406 504.292969 " fill-opacity="1" fill-rule="nonzero"/><path fill="#fabc18" d="M 140.636719 498.347656 C 138.148438 500.832031 138.148438 504.855469 140.636719 507.335938 C 143.117188 509.8125 147.140625 509.8125 149.628906 507.335938 C 152.109375 504.855469 152.109375 500.824219 149.628906 498.347656 C 147.140625 495.867188 143.117188 495.867188 140.636719 498.347656 " fill-opacity="1" fill-rule="nonzero"/><path fill="#2d4868" d="M 149.035156 506.730469 C 151.175781 504.585938 151.175781 501.09375 149.035156 498.949219 C 146.878906 496.792969 143.378906 496.792969 141.230469 498.949219 C 139.082031 501.09375 139.082031 504.585938 141.230469 506.730469 C 143.378906 508.886719 146.878906 508.878906 149.035156 506.730469 C 151.175781 504.585938 146.878906 508.878906 149.035156 506.730469 Z M 140.035156 497.75 C 142.839844 494.949219 147.410156 494.949219 150.222656 497.75 C 153.035156 500.554688 153.035156 505.125 150.222656 507.929688 C 147.410156 510.742188 142.847656 510.742188 140.035156 507.929688 C 137.230469 505.125 137.230469 500.554688 140.035156 497.75 C 142.839844 494.949219 137.230469 500.554688 140.035156 497.75 " fill-opacity="1" fill-rule="nonzero"/><path fill="#2d4868" d="M 166.222656 444.375 L 94.5 444.375 L 94.5 441 L 164.824219 441 L 196.871094 408.957031 L 276.320312 408.957031 L 276.320312 412.339844 L 198.261719 412.339844 L 166.222656 444.375 " fill-opacity="1" fill-rule="nonzero"/><path fill="#fabc18" d="M 94.863281 436.328125 C 91.347656 436.328125 88.496094 439.183594 88.496094 442.683594 C 88.496094 446.195312 91.347656 449.039062 94.863281 449.039062 C 98.371094 449.039062 101.214844 446.195312 101.214844 442.683594 C 101.214844 439.183594 98.371094 436.328125 94.863281 436.328125 " fill-opacity="1" fill-rule="nonzero"/><path fill="#2d4868" d="M 94.863281 448.195312 C 97.898438 448.195312 100.371094 445.726562 100.371094 442.683594 C 100.371094 439.640625 97.898438 437.175781 94.863281 437.175781 C 91.820312 437.175781 89.347656 439.640625 89.347656 442.683594 C 89.347656 445.726562 91.820312 448.195312 94.863281 448.195312 C 97.898438 448.195312 91.820312 448.195312 94.863281 448.195312 Z M 94.863281 435.484375 C 98.824219 435.484375 102.0625 438.710938 102.0625 442.683594 C 102.0625 446.652344 98.824219 449.886719 94.863281 449.886719 C 90.890625 449.886719 87.65625 446.652344 87.65625 442.683594 C 87.65625 438.710938 90.890625 435.484375 94.863281 435.484375 C 98.824219 435.484375 90.890625 435.484375 94.863281 435.484375 " fill-opacity="1" fill-rule="nonzero"/><path fill="#2d4868" d="M 165.410156 402.78125 L 42.367188 402.78125 L 42.367188 399.398438 L 164.011719 399.398438 L 196.050781 367.371094 L 275.507812 367.371094 L 275.507812 370.746094 L 197.457031 370.746094 L 165.410156 402.78125 " fill-opacity="1" fill-rule="nonzero"/><path fill="#fabc18" d="M 42.722656 394.742188 C 39.222656 394.742188 36.375 397.589844 36.375 401.097656 C 36.375 404.601562 39.222656 407.453125 42.722656 407.453125 C 46.246094 407.453125 49.089844 404.601562 49.089844 401.097656 C 49.089844 397.589844 46.246094 394.742188 42.722656 394.742188 " fill-opacity="1" fill-rule="nonzero"/><g clip-path="url(#f5d7858f2e)"><path fill="#2d4868" d="M 42.722656 406.601562 C 45.769531 406.601562 48.238281 404.140625 48.238281 401.097656 C 48.238281 398.054688 45.769531 395.589844 42.722656 395.589844 C 39.6875 395.589844 37.214844 398.054688 37.214844 401.097656 C 37.214844 404.140625 39.6875 406.601562 42.722656 406.601562 C 45.769531 406.601562 39.6875 406.601562 42.722656 406.601562 Z M 42.722656 393.898438 C 46.703125 393.898438 49.933594 397.121094 49.933594 401.097656 C 49.933594 405.066406 46.703125 408.300781 42.722656 408.300781 C 38.761719 408.300781 35.53125 405.066406 35.53125 401.097656 C 35.53125 397.121094 38.761719 393.898438 42.722656 393.898438 C 46.703125 393.898438 38.761719 393.898438 42.722656 393.898438 " fill-opacity="1" fill-rule="nonzero"/></g><path fill="#2d4868" d="M 272.402344 330.066406 L 193.152344 330.066406 L 161.101562 309.324219 L 105.769531 309.324219 L 105.769531 305.941406 L 162.105469 305.941406 L 194.152344 326.691406 L 272.402344 326.691406 L 272.402344 330.066406 " fill-opacity="1" fill-rule="nonzero"/><path fill="#fabc18" d="M 106.125 301.269531 C 102.621094 301.269531 99.777344 304.125 99.777344 307.640625 C 99.777344 311.136719 102.621094 313.988281 106.125 313.988281 C 109.640625 313.988281 112.484375 311.136719 112.484375 307.640625 C 112.484375 304.125 109.640625 301.269531 106.125 301.269531 " fill-opacity="1" fill-rule="nonzero"/><path fill="#2d4868" d="M 106.125 313.136719 C 109.171875 313.136719 111.652344 310.675781 111.652344 307.640625 C 111.652344 304.597656 109.171875 302.117188 106.125 302.117188 C 103.089844 302.117188 100.625 304.597656 100.625 307.640625 C 100.625 310.675781 103.089844 313.136719 106.125 313.136719 C 109.171875 313.136719 103.089844 313.136719 106.125 313.136719 Z M 106.125 300.433594 C 110.105469 300.433594 113.335938 303.664062 113.335938 307.640625 C 113.335938 311.601562 110.105469 314.828125 106.125 314.828125 C 102.164062 314.828125 98.925781 311.601562 98.925781 307.640625 C 98.925781 303.664062 102.164062 300.433594 106.125 300.433594 C 110.105469 300.433594 102.164062 300.433594 106.125 300.433594 " fill-opacity="1" fill-rule="nonzero"/><path fill="#2d4868" d="M 272.402344 292.179688 L 216.878906 292.179688 L 184.824219 271.4375 L 146.878906 271.4375 L 146.878906 268.054688 L 185.832031 268.054688 L 217.875 288.796875 L 272.402344 288.796875 L 272.402344 292.179688 " fill-opacity="1" fill-rule="nonzero"/><path fill="#fabc18" d="M 147.242188 263.398438 C 143.726562 263.398438 140.882812 266.238281 140.882812 269.753906 C 140.882812 273.257812 143.726562 276.109375 147.242188 276.109375 C 150.75 276.109375 153.59375 273.257812 153.59375 269.753906 C 153.59375 266.238281 150.75 263.398438 147.242188 263.398438 " fill-opacity="1" fill-rule="nonzero"/><path fill="#2d4868" d="M 147.242188 275.257812 C 150.277344 275.257812 152.75 272.789062 152.75 269.753906 C 152.75 266.710938 150.277344 264.238281 147.242188 264.238281 C 144.199219 264.238281 141.726562 266.710938 141.726562 269.753906 C 141.726562 272.789062 144.199219 275.257812 147.242188 275.257812 C 150.277344 275.257812 144.199219 275.257812 147.242188 275.257812 Z M 147.242188 262.546875 C 151.210938 262.546875 154.441406 265.785156 154.441406 269.753906 C 154.441406 273.714844 151.210938 276.949219 147.242188 276.949219 C 143.269531 276.949219 140.035156 273.714844 140.035156 269.753906 C 140.035156 265.785156 143.269531 262.546875 147.242188 262.546875 C 151.210938 262.546875 143.269531 262.546875 147.242188 262.546875 " fill-opacity="1" fill-rule="nonzero"/><path fill="#2d4868" d="M 570.898438 286.078125 L 491.449219 286.078125 L 491.449219 282.695312 L 569.5 282.695312 L 621.699219 230.515625 L 624.09375 232.910156 L 570.898438 286.078125 " fill-opacity="1" fill-rule="nonzero"/><path fill="#fabc18" d="M 627.132812 236.460938 C 629.621094 233.984375 629.621094 229.953125 627.132812 227.464844 C 624.652344 224.984375 620.625 224.984375 618.148438 227.464844 C 615.660156 229.953125 615.660156 233.984375 618.148438 236.460938 C 620.625 238.941406 624.652344 238.941406 627.132812 236.460938 " fill-opacity="1" fill-rule="nonzero"/><path fill="#2d4868" d="M 618.742188 228.074219 C 616.59375 230.222656 616.59375 233.710938 618.742188 235.859375 C 620.890625 238.015625 624.390625 238.015625 626.535156 235.859375 C 628.683594 233.710938 628.683594 230.222656 626.535156 228.074219 C 624.390625 225.921875 620.890625 225.921875 618.742188 228.074219 C 616.59375 230.222656 620.890625 225.921875 618.742188 228.074219 Z M 627.726562 237.054688 C 624.921875 239.859375 620.347656 239.859375 617.542969 237.054688 C 614.738281 234.253906 614.738281 229.679688 617.542969 226.878906 C 620.347656 224.066406 624.921875 224.066406 627.726562 226.878906 C 630.539062 229.679688 630.539062 234.253906 627.726562 237.054688 C 624.921875 239.859375 630.539062 234.253906 627.726562 237.054688 " fill-opacity="1" fill-rule="nonzero"/><path fill="#2d4868" d="M 570.898438 325.847656 L 491.449219 325.847656 L 491.449219 322.464844 L 569.5 322.464844 L 601.546875 290.433594 L 673.269531 290.433594 L 673.269531 293.816406 L 602.941406 293.816406 L 570.898438 325.847656 " fill-opacity="1" fill-rule="nonzero"/><path fill="#fabc18" d="M 672.898438 298.472656 C 676.421875 298.472656 679.261719 295.632812 679.261719 292.125 C 679.261719 288.613281 676.421875 285.761719 672.898438 285.761719 C 669.398438 285.761719 666.546875 288.613281 666.546875 292.125 C 666.546875 295.632812 669.398438 298.472656 672.898438 298.472656 " fill-opacity="1" fill-rule="nonzero"/><path fill="#2d4868" d="M 672.898438 286.609375 C 669.859375 286.609375 667.390625 289.082031 667.390625 292.125 C 667.390625 295.160156 669.859375 297.632812 672.898438 297.632812 C 675.949219 297.632812 678.414062 295.160156 678.414062 292.125 C 678.414062 289.082031 675.949219 286.609375 672.898438 286.609375 C 669.859375 286.609375 675.949219 286.609375 672.898438 286.609375 Z M 672.898438 299.324219 C 668.933594 299.324219 665.703125 296.085938 665.703125 292.125 C 665.703125 288.15625 668.933594 284.921875 672.898438 284.921875 C 676.875 284.921875 680.113281 288.15625 680.113281 292.125 C 680.113281 296.085938 676.875 299.324219 672.898438 299.324219 C 668.933594 299.324219 676.875 299.324219 672.898438 299.324219 " fill-opacity="1" fill-rule="nonzero"/><path fill="#2d4868" d="M 725.398438 398.710938 L 620.972656 398.710938 L 570.535156 367.433594 L 492.261719 367.433594 L 492.261719 364.058594 L 571.492188 364.058594 L 621.941406 395.328125 L 725.398438 395.328125 L 725.398438 398.710938 " fill-opacity="1" fill-rule="nonzero"/><path fill="#fabc18" d="M 725.035156 403.375 C 728.550781 403.375 731.394531 400.523438 731.394531 397.019531 C 731.394531 393.503906 728.550781 390.664062 725.035156 390.664062 C 721.527344 390.664062 718.6875 393.503906 718.6875 397.019531 C 718.6875 400.523438 721.527344 403.375 725.035156 403.375 " fill-opacity="1" fill-rule="nonzero"/><g clip-path="url(#447336ba9f)"><path fill="#2d4868" d="M 725.035156 391.503906 C 722 391.503906 719.527344 393.984375 719.527344 397.019531 C 719.527344 400.0625 722 402.53125 725.035156 402.53125 C 728.082031 402.53125 730.550781 400.0625 730.550781 397.019531 C 730.550781 393.984375 728.082031 391.503906 725.035156 391.503906 C 722 391.503906 728.082031 391.503906 725.035156 391.503906 Z M 725.035156 404.214844 C 721.066406 404.214844 717.835938 400.988281 717.835938 397.019531 C 717.835938 393.050781 721.066406 389.8125 725.035156 389.8125 C 729.015625 389.8125 732.246094 393.050781 732.246094 397.019531 C 732.246094 400.988281 729.015625 404.214844 725.035156 404.214844 C 721.066406 404.214844 729.015625 404.214844 725.035156 404.214844 " fill-opacity="1" fill-rule="nonzero"/></g><path fill="#2d4868" d="M 661.996094 428.859375 L 605.664062 428.859375 L 573.609375 408.117188 L 495.367188 408.117188 L 495.367188 404.742188 L 574.613281 404.742188 L 606.660156 425.484375 L 661.996094 425.484375 L 661.996094 428.859375 " fill-opacity="1" fill-rule="nonzero"/><path fill="#fabc18" d="M 661.632812 433.53125 C 665.148438 433.53125 667.992188 430.6875 667.992188 427.175781 C 667.992188 423.667969 665.148438 420.828125 661.632812 420.828125 C 658.125 420.828125 655.285156 423.667969 655.285156 427.175781 C 655.285156 430.6875 658.125 433.53125 661.632812 433.53125 " fill-opacity="1" fill-rule="nonzero"/><path fill="#2d4868" d="M 661.632812 421.660156 C 658.597656 421.660156 656.125 424.132812 656.125 427.175781 C 656.125 430.21875 658.597656 432.6875 661.632812 432.6875 C 664.675781 432.6875 667.148438 430.21875 667.148438 427.175781 C 667.148438 424.132812 664.675781 421.660156 661.632812 421.660156 C 658.597656 421.660156 664.675781 421.660156 661.632812 421.660156 Z M 661.632812 434.371094 C 657.664062 434.371094 654.433594 431.144531 654.433594 427.175781 C 654.433594 423.207031 657.664062 419.976562 661.632812 419.976562 C 665.613281 419.976562 668.839844 423.207031 668.839844 427.175781 C 668.839844 431.144531 665.613281 434.371094 661.632812 434.371094 C 657.664062 434.371094 665.613281 434.371094 661.632812 434.371094 " fill-opacity="1" fill-rule="nonzero"/><path fill="#2d4868" d="M 620.890625 466.753906 L 581.9375 466.753906 L 549.894531 446.011719 L 495.367188 446.011719 L 495.367188 442.621094 L 550.890625 442.621094 L 582.925781 463.371094 L 620.890625 463.371094 L 620.890625 466.753906 " fill-opacity="1" fill-rule="nonzero"/><path fill="#fabc18" d="M 620.527344 471.410156 C 624.035156 471.410156 626.882812 468.566406 626.882812 465.0625 C 626.882812 461.546875 624.035156 458.699219 620.527344 458.699219 C 617.019531 458.699219 614.167969 461.546875 614.167969 465.0625 C 614.167969 468.566406 617.019531 471.410156 620.527344 471.410156 " fill-opacity="1" fill-rule="nonzero"/><path fill="#2d4868" d="M 620.527344 459.554688 C 617.492188 459.554688 615.019531 462.019531 615.019531 465.0625 C 615.019531 468.089844 617.492188 470.566406 620.527344 470.566406 C 623.5625 470.566406 626.042969 468.089844 626.042969 465.0625 C 626.042969 462.019531 623.5625 459.554688 620.527344 459.554688 C 617.492188 459.554688 623.5625 459.554688 620.527344 459.554688 Z M 620.527344 472.25 C 616.554688 472.25 613.328125 469.03125 613.328125 465.0625 C 613.328125 461.085938 616.554688 457.855469 620.527344 457.855469 C 624.496094 457.855469 627.726562 461.085938 627.726562 465.0625 C 627.726562 469.03125 624.496094 472.25 620.527344 472.25 C 616.554688 472.25 624.496094 472.25 620.527344 472.25 " fill-opacity="1" fill-rule="nonzero"/><path fill="#2d4868" d="M 517.648438 602.921875 L 464.457031 549.753906 L 464.457031 470.335938 L 467.839844 470.335938 L 467.839844 548.355469 L 520.035156 600.53125 L 517.648438 602.921875 " fill-opacity="1" fill-rule="nonzero"/><path fill="#fabc18" d="M 514.09375 605.964844 C 516.582031 608.445312 520.605469 608.445312 523.085938 605.964844 C 525.566406 603.488281 525.566406 599.457031 523.085938 596.976562 C 520.605469 594.5 516.582031 594.5 514.09375 596.976562 C 511.613281 599.457031 511.613281 603.488281 514.09375 605.964844 " fill-opacity="1" fill-rule="nonzero"/><path fill="#2d4868" d="M 522.492188 597.578125 C 520.335938 595.425781 516.835938 595.425781 514.695312 597.578125 C 512.539062 599.71875 512.539062 603.214844 514.695312 605.363281 C 516.835938 607.527344 520.335938 607.527344 522.492188 605.363281 C 524.636719 603.214844 524.636719 599.71875 522.492188 597.578125 C 520.335938 595.425781 524.636719 599.71875 522.492188 597.578125 Z M 513.496094 606.5625 C 510.695312 603.757812 510.695312 599.1875 513.496094 596.382812 C 516.308594 593.578125 520.875 593.578125 523.679688 596.382812 C 526.492188 599.1875 526.492188 603.757812 523.679688 606.5625 C 520.875 609.371094 516.308594 609.371094 513.496094 606.5625 C 510.695312 603.757812 516.308594 609.371094 513.496094 606.5625 " fill-opacity="1" fill-rule="nonzero"/><path fill="#2d4868" d="M 460.097656 652.078125 L 456.722656 652.078125 L 456.722656 581.785156 L 424.671875 549.753906 L 424.671875 470.335938 L 428.054688 470.335938 L 428.054688 548.355469 L 460.097656 580.390625 L 460.097656 652.078125 " fill-opacity="1" fill-rule="nonzero"/><path fill="#fabc18" d="M 452.050781 651.714844 C 452.050781 655.226562 454.898438 658.070312 458.40625 658.070312 C 461.914062 658.070312 464.765625 655.226562 464.765625 651.714844 C 464.765625 648.207031 461.914062 645.359375 458.40625 645.359375 C 454.898438 645.359375 452.050781 648.207031 452.050781 651.714844 " fill-opacity="1" fill-rule="nonzero"/><path fill="#2d4868" d="M 463.914062 651.714844 C 463.914062 648.6875 461.453125 646.214844 458.40625 646.214844 C 455.371094 646.214844 452.890625 648.6875 452.890625 651.714844 C 452.890625 654.757812 455.371094 657.226562 458.40625 657.226562 C 461.453125 657.226562 463.914062 654.757812 463.914062 651.714844 C 463.914062 648.6875 463.914062 654.757812 463.914062 651.714844 Z M 451.207031 651.714844 C 451.207031 647.753906 454.4375 644.515625 458.40625 644.515625 C 462.378906 644.515625 465.609375 647.753906 465.609375 651.714844 C 465.609375 655.691406 462.378906 658.925781 458.40625 658.925781 C 454.4375 658.925781 451.207031 655.691406 451.207031 651.714844 C 451.207031 647.753906 451.207031 655.691406 451.207031 651.714844 " fill-opacity="1" fill-rule="nonzero"/><path fill="#2d4868" d="M 355.164062 704.195312 L 351.78125 704.195312 L 351.78125 599.820312 L 383.070312 549.382812 L 383.070312 471.148438 L 386.445312 471.148438 L 386.445312 550.339844 L 355.164062 600.777344 L 355.164062 704.195312 " fill-opacity="1" fill-rule="nonzero"/><path fill="#fabc18" d="M 347.113281 703.832031 C 347.113281 707.347656 349.957031 710.1875 353.480469 710.1875 C 356.980469 710.1875 359.832031 707.347656 359.832031 703.832031 C 359.832031 700.328125 356.980469 697.476562 353.480469 697.476562 C 349.957031 697.476562 347.113281 700.328125 347.113281 703.832031 " fill-opacity="1" fill-rule="nonzero"/><g clip-path="url(#5fc72f4a73)"><path fill="#2d4868" d="M 358.988281 703.832031 C 358.988281 700.796875 356.507812 698.328125 353.480469 698.328125 C 350.4375 698.328125 347.964844 700.796875 347.964844 703.832031 C 347.964844 706.867188 350.4375 709.339844 353.480469 709.339844 C 356.507812 709.339844 358.988281 706.867188 358.988281 703.832031 C 358.988281 700.796875 358.988281 706.867188 358.988281 703.832031 Z M 346.265625 703.832031 C 346.265625 699.863281 349.507812 696.636719 353.480469 696.636719 C 357.445312 696.636719 360.671875 699.863281 360.671875 703.832031 C 360.671875 707.800781 357.445312 711.039062 353.480469 711.039062 C 349.507812 711.039062 346.265625 707.800781 346.265625 703.832031 C 346.265625 699.863281 346.265625 707.800781 346.265625 703.832031 " fill-opacity="1" fill-rule="nonzero"/></g><path fill="#2d4868" d="M 324.988281 640.808594 L 321.613281 640.808594 L 321.613281 584.503906 L 342.363281 552.464844 L 342.363281 474.25 L 345.746094 474.25 L 345.746094 553.46875 L 324.988281 585.5 L 324.988281 640.808594 " fill-opacity="1" fill-rule="nonzero"/><path fill="#fabc18" d="M 316.945312 640.445312 C 316.945312 643.96875 319.796875 646.808594 323.304688 646.808594 C 326.8125 646.808594 329.664062 643.96875 329.664062 640.445312 C 329.664062 636.949219 326.8125 634.097656 323.304688 634.097656 C 319.796875 634.097656 316.945312 636.949219 316.945312 640.445312 " fill-opacity="1" fill-rule="nonzero"/><path fill="#2d4868" d="M 328.820312 640.445312 C 328.820312 637.410156 326.347656 634.941406 323.304688 634.941406 C 320.269531 634.941406 317.796875 637.410156 317.796875 640.445312 C 317.796875 643.488281 320.269531 645.96875 323.304688 645.96875 C 326.347656 645.96875 328.820312 643.488281 328.820312 640.445312 C 328.820312 637.410156 328.820312 643.488281 328.820312 640.445312 Z M 316.105469 640.445312 C 316.105469 636.484375 319.332031 633.25 323.304688 633.25 C 327.277344 633.25 330.503906 636.484375 330.503906 640.445312 C 330.503906 644.425781 327.277344 647.660156 323.304688 647.660156 C 319.332031 647.660156 316.105469 644.425781 316.105469 640.445312 C 316.105469 636.484375 316.105469 644.425781 316.105469 640.445312 " fill-opacity="1" fill-rule="nonzero"/><path fill="#2d4868" d="M 287.09375 599.71875 L 283.710938 599.71875 L 283.710938 560.78125 L 304.46875 528.75 L 304.46875 474.25 L 307.855469 474.25 L 307.855469 529.753906 L 287.09375 561.785156 L 287.09375 599.71875 " fill-opacity="1" fill-rule="nonzero"/><path fill="#fabc18" d="M 279.046875 599.363281 C 279.046875 602.878906 281.886719 605.710938 285.410156 605.710938 C 288.917969 605.710938 291.761719 602.878906 291.761719 599.363281 C 291.761719 595.847656 288.917969 593 285.410156 593 C 281.886719 593 279.046875 595.847656 279.046875 599.363281 " fill-opacity="1" fill-rule="nonzero"/><path fill="#2d4868" d="M 290.917969 599.363281 C 290.917969 596.320312 288.449219 593.847656 285.410156 593.847656 C 282.367188 593.847656 279.894531 596.320312 279.894531 599.363281 C 279.894531 602.398438 282.367188 604.871094 285.410156 604.871094 C 288.449219 604.871094 290.917969 602.398438 290.917969 599.363281 C 290.917969 596.320312 290.917969 602.398438 290.917969 599.363281 Z M 278.203125 599.363281 C 278.203125 595.394531 281.441406 592.164062 285.410156 592.164062 C 289.375 592.164062 292.613281 595.394531 292.613281 599.363281 C 292.613281 603.332031 289.375 606.5625 285.410156 606.5625 C 281.441406 606.5625 278.203125 603.332031 278.203125 599.363281 C 278.203125 595.394531 278.203125 603.332031 278.203125 599.363281 " fill-opacity="1" fill-rule="nonzero"/><path fill="#198788" d="M 318.058594 262.742188 L 296.019531 262.742188 L 296.019531 250.933594 L 318.058594 250.933594 L 318.058594 262.742188 " fill-opacity="1" fill-rule="nonzero"/><path fill="#198788" d="M 358.75 262.742188 L 336.707031 262.742188 L 336.707031 250.933594 L 358.75 250.933594 L 358.75 262.742188 " fill-opacity="1" fill-rule="nonzero"/><path fill="#198788" d="M 399.445312 262.742188 L 377.40625 262.742188 L 377.40625 250.933594 L 399.445312 250.933594 L 399.445312 262.742188 " fill-opacity="1" fill-rule="nonzero"/><path fill="#198788" d="M 440.152344 262.742188 L 418.105469 262.742188 L 418.105469 250.933594 L 440.152344 250.933594 L 440.152344 262.742188 " fill-opacity="1" fill-rule="nonzero"/><path fill="#198788" d="M 480.84375 262.742188 L 458.800781 262.742188 L 458.800781 250.933594 L 480.84375 250.933594 L 480.84375 262.742188 " fill-opacity="1" fill-rule="nonzero"/><path fill="#198788" d="M 318.058594 482.136719 L 296.019531 482.136719 L 296.019531 470.335938 L 318.058594 470.335938 L 318.058594 482.136719 " fill-opacity="1" fill-rule="nonzero"/><path fill="#198788" d="M 358.75 482.136719 L 336.707031 482.136719 L 336.707031 470.335938 L 358.75 470.335938 L 358.75 482.136719 " fill-opacity="1" fill-rule="nonzero"/><path fill="#198788" d="M 399.445312 482.136719 L 377.40625 482.136719 L 377.40625 470.335938 L 399.445312 470.335938 L 399.445312 482.136719 " fill-opacity="1" fill-rule="nonzero"/><path fill="#198788" d="M 440.152344 482.136719 L 418.105469 482.136719 L 418.105469 470.335938 L 440.152344 470.335938 L 440.152344 482.136719 " fill-opacity="1" fill-rule="nonzero"/><path fill="#198788" d="M 480.84375 482.136719 L 458.800781 482.136719 L 458.800781 470.335938 L 480.84375 470.335938 L 480.84375 482.136719 " fill-opacity="1" fill-rule="nonzero"/><path fill="#198788" d="M 503.253906 437.703125 L 503.253906 459.734375 L 491.449219 459.734375 L 491.449219 437.703125 L 503.253906 437.703125 " fill-opacity="1" fill-rule="nonzero"/><path fill="#198788" d="M 503.253906 397.019531 L 503.253906 419.050781 L 491.449219 419.050781 L 491.449219 397.019531 L 503.253906 397.019531 " fill-opacity="1" fill-rule="nonzero"/><path fill="#198788" d="M 503.253906 356.335938 L 503.253906 378.371094 L 491.449219 378.371094 L 491.449219 356.335938 L 503.253906 356.335938 " fill-opacity="1" fill-rule="nonzero"/><path fill="#198788" d="M 503.253906 315.65625 L 503.253906 337.6875 L 491.449219 337.6875 L 491.449219 315.65625 L 503.253906 315.65625 " fill-opacity="1" fill-rule="nonzero"/><path fill="#198788" d="M 503.253906 274.972656 L 503.253906 297.003906 L 491.449219 297.003906 L 491.449219 274.972656 L 503.253906 274.972656 " fill-opacity="1" fill-rule="nonzero"/><path fill="#198788" d="M 285.410156 437.703125 L 285.410156 459.734375 L 273.597656 459.734375 L 273.597656 437.703125 L 285.410156 437.703125 " fill-opacity="1" fill-rule="nonzero"/><path fill="#198788" d="M 285.410156 397.019531 L 285.410156 419.050781 L 273.597656 419.050781 L 273.597656 397.019531 L 285.410156 397.019531 " fill-opacity="1" fill-rule="nonzero"/><path fill="#198788" d="M 285.410156 356.335938 L 285.410156 378.371094 L 273.597656 378.371094 L 273.597656 356.335938 L 285.410156 356.335938 " fill-opacity="1" fill-rule="nonzero"/><path fill="#198788" d="M 285.410156 315.65625 L 285.410156 337.6875 L 273.597656 337.6875 L 273.597656 315.65625 L 285.410156 315.65625 " fill-opacity="1" fill-rule="nonzero"/><path fill="#198788" d="M 285.410156 274.972656 L 285.410156 297.003906 L 273.597656 297.003906 L 273.597656 274.972656 L 285.410156 274.972656 " fill-opacity="1" fill-rule="nonzero"/><path fill="#243952" d="M 497.359375 475.425781 L 279.5 475.425781 L 279.5 257.660156 L 497.359375 257.660156 L 497.359375 475.425781 " fill-opacity="1" fill-rule="nonzero"/><path fill="#2d4868" d="M 474.632812 452.699219 L 302.230469 452.699219 L 302.230469 280.378906 L 474.632812 280.378906 L 474.632812 452.699219 " fill-opacity="1" fill-rule="nonzero"/><path fill="#198788" d="M 337.9375 305.113281 C 337.9375 311.167969 333.03125 316.074219 326.972656 316.074219 C 320.925781 316.074219 316.011719 311.167969 316.011719 305.113281 C 316.011719 299.058594 320.925781 294.15625 326.972656 294.15625 C 333.03125 294.15625 337.9375 299.058594 337.9375 305.113281 " fill-opacity="1" fill-rule="nonzero"/><path fill="#198788" d="M 460.839844 427.964844 C 460.839844 434.011719 455.933594 438.921875 449.878906 438.921875 C 443.820312 438.921875 438.917969 434.011719 438.917969 427.964844 C 438.917969 421.910156 443.820312 417.003906 449.878906 417.003906 C 455.933594 417.003906 460.839844 421.910156 460.839844 427.964844 " fill-opacity="1" fill-rule="nonzero"/></svg>