<svg xmlns="http://www.w3.org/2000/svg" xmlns:xlink="http://www.w3.org/1999/xlink" width="1024" zoomAndPan="magnify" viewBox="0 0 768 767.999994" height="1024" preserveAspectRatio="xMidYMid meet" version="1.0"><defs><clipPath id="1511512185"><path d="M 0 376 L 324 376 L 324 658.523438 L 0 658.523438 Z M 0 376 " clip-rule="nonzero"/></clipPath><clipPath id="285165e3d8"><path d="M 323.855469 308 L 767.960938 308 L 767.960938 658.523438 L 323.855469 658.523438 Z M 323.855469 308 " clip-rule="nonzero"/></clipPath><clipPath id="26eb6db3df"><path d="M 316.300781 561.074219 L 331 561.074219 L 331 658.523438 L 316.300781 658.523438 Z M 316.300781 561.074219 " clip-rule="nonzero"/></clipPath><clipPath id="fc9c2ab5aa"><path d="M 323.855469 298 L 767.960938 298 L 767.960938 563.90625 L 323.855469 563.90625 Z M 323.855469 298 " clip-rule="nonzero"/></clipPath><clipPath id="3f4bc9b7a5"><path d="M 0 109.617188 L 767.960938 109.617188 L 767.960938 553.515625 L 0 553.515625 Z M 0 109.617188 " clip-rule="nonzero"/></clipPath></defs><g clip-path="url(#1511512185)"><path fill="#000000" d="M 323.867188 658.46875 C 320.695312 658.261719 317.609375 657.449219 315.09375 656.035156 L 4.296875 476.542969 C 2.472656 475.433594 0.34375 473.59375 0.0664062 471.34375 L 0.0664062 376.148438 C 0.695312 378.667969 2.070312 379.992188 4.296875 381.347656 L 315.09375 560.839844 C 317.609375 562.257812 320.695312 563.070312 323.867188 563.273438 L 323.867188 658.46875 " fill-opacity="1" fill-rule="evenodd"/></g><g clip-path="url(#285165e3d8)"><path fill="#333333" d="M 767.890625 308.425781 L 767.890625 403.753906 C 767.617188 406 765.488281 407.839844 763.664062 408.945312 L 335.917969 655.980469 C 332.550781 657.875 328.164062 658.6875 323.917969 658.417969 L 323.867188 658.414062 L 323.867188 563.09375 L 324.1875 563.113281 C 328.347656 563.335938 332.621094 562.515625 335.917969 560.660156 L 763.664062 313.625 C 765.890625 312.273438 767.265625 310.949219 767.890625 308.425781 " fill-opacity="1" fill-rule="evenodd"/></g><g clip-path="url(#26eb6db3df)"><path fill="#4d4d4d" d="M 330.949219 657.914062 C 326.304688 658.992188 320.996094 658.640625 316.789062 656.863281 L 316.789062 561.667969 C 320.996094 563.445312 326.304688 563.796875 330.949219 562.71875 L 330.949219 657.914062 " fill-opacity="1" fill-rule="evenodd"/></g><path fill="#cccccc" d="M 323.867188 563.574219 C 320.695312 563.367188 317.609375 562.554688 315.09375 561.140625 L 4.296875 381.644531 C 2.472656 380.535156 0.34375 378.699219 0.0664062 376.449219 L 0.0664062 365.957031 C 0.695312 368.476562 2.070312 369.800781 4.296875 371.152344 L 315.09375 550.648438 C 317.609375 552.0625 320.695312 552.875 323.867188 553.082031 L 323.867188 563.574219 " fill-opacity="1" fill-rule="evenodd"/><g clip-path="url(#fc9c2ab5aa)"><path fill="#e6e6e6" d="M 767.890625 298.417969 C 767.890625 300.375 768.125 308.421875 767.691406 309.71875 C 767.042969 311.675781 765.359375 313.078125 763.664062 314.105469 L 335.917969 561.140625 C 332.621094 562.992188 328.347656 563.808594 324.1875 563.59375 L 323.867188 563.574219 L 323.867188 553.082031 L 324.226562 553.105469 C 328.375 553.3125 332.632812 552.5 335.917969 550.648438 L 763.664062 303.617188 C 765.890625 302.261719 767.265625 300.933594 767.890625 298.417969 " fill-opacity="1" fill-rule="evenodd"/></g><path fill="#e6e6e6" d="M 330.949219 563.019531 C 326.304688 564.09375 320.996094 563.742188 316.789062 561.964844 L 316.789062 551.476562 C 320.996094 553.253906 326.304688 553.605469 330.949219 552.527344 L 330.949219 563.019531 " fill-opacity="1" fill-rule="evenodd"/><g clip-path="url(#3f4bc9b7a5)"><path fill="#f0f0f0" d="M 452.871094 112.09375 L 763.664062 291.585938 C 769.390625 294.894531 769.390625 300.308594 763.664062 303.617188 L 335.917969 550.648438 C 330.191406 553.957031 320.820312 553.957031 315.09375 550.648438 L 4.296875 371.152344 C -1.429688 367.847656 -1.429688 362.4375 4.296875 359.125 L 432.039062 112.09375 C 437.769531 108.789062 447.140625 108.789062 452.871094 112.09375 " fill-opacity="1" fill-rule="evenodd"/></g><path fill="#b3b3b3" d="M 549.464844 474.710938 C 553.644531 472.300781 557.027344 474.253906 557.027344 479.082031 C 557.027344 483.90625 553.644531 489.773438 549.464844 492.183594 C 545.289062 494.597656 541.898438 492.644531 541.898438 487.816406 C 541.898438 482.992188 545.289062 477.125 549.464844 474.710938 Z M 730.6875 370.050781 C 734.867188 367.636719 738.253906 369.59375 738.253906 374.417969 C 738.253906 379.246094 734.867188 385.113281 730.6875 387.527344 C 726.507812 389.941406 723.125 387.980469 723.125 383.15625 C 723.125 378.332031 726.507812 372.464844 730.6875 370.050781 Z M 368.242188 579.371094 C 372.417969 576.957031 375.804688 578.917969 375.804688 583.738281 C 375.804688 588.566406 372.417969 594.433594 368.242188 596.847656 C 364.0625 599.261719 360.675781 597.304688 360.675781 592.480469 C 360.675781 587.652344 364.0625 581.785156 368.242188 579.371094 " fill-opacity="1" fill-rule="evenodd"/><path fill="#666666" d="M 723.535156 385.726562 C 721.269531 379.863281 728.070312 369.160156 733.707031 369.023438 C 735.804688 374.964844 729.523438 385.261719 723.535156 385.726562 Z M 542.3125 490.386719 C 540.042969 484.539062 546.839844 473.824219 552.484375 473.6875 C 554.578125 479.628906 548.296875 489.921875 542.3125 490.386719 Z M 361.089844 595.046875 C 358.820312 589.1875 365.621094 578.484375 371.261719 578.347656 C 373.359375 584.285156 367.074219 594.582031 361.089844 595.046875 " fill-opacity="1" fill-rule="evenodd"/><path fill="#000000" d="M 63.605469 366.054688 C 63.605469 370.554688 63.988281 373.503906 58.046875 376.304688 C 49.089844 380.527344 33.800781 377.582031 33.464844 369.550781 C 33.261719 364.667969 33.566406 361.875 39.019531 359.304688 C 47.28125 355.410156 62.890625 357.414062 63.605469 366.054688 Z M 328.414062 515.421875 C 332.753906 518.195312 333.035156 520.015625 332.828125 525.070312 C 332.382812 535.875 306.289062 536.695312 302.960938 526.734375 C 302.519531 525.402344 302.359375 520.953125 303.308594 519.097656 C 306.6875 512.484375 320.433594 511.035156 328.414062 515.421875 Z M 470.191406 433.539062 C 474.535156 436.3125 474.8125 438.132812 474.609375 443.191406 C 474.160156 453.996094 448.066406 454.816406 444.742188 444.855469 C 444.296875 443.523438 444.140625 439.074219 445.085938 437.21875 C 448.464844 430.601562 462.210938 429.15625 470.191406 433.539062 Z M 719.46875 289.578125 C 724.128906 292.558594 723.882812 294.15625 723.882812 299.230469 C 723.882812 305.625 713.886719 308.085938 708.085938 307.925781 C 703.042969 307.785156 694.46875 305.4375 693.808594 300.0625 L 693.917969 296.941406 C 693.878906 296.820312 693.84375 296.695312 693.808594 296.566406 L 693.929688 296.566406 L 694.015625 294.074219 C 696.355469 287.074219 710.839844 284.839844 719.46875 289.578125 Z M 454.617188 140.226562 C 454.617188 144.726562 454.996094 147.675781 449.058594 150.476562 C 440.101562 154.695312 424.808594 151.753906 424.472656 143.722656 C 424.269531 138.835938 424.578125 136.042969 430.03125 133.472656 C 438.289062 129.582031 453.902344 131.585938 454.617188 140.226562 Z M 205.351562 284.175781 C 205.351562 288.675781 205.734375 291.625 199.792969 294.425781 C 190.835938 298.648438 175.542969 295.699219 175.210938 287.671875 C 175.007812 282.785156 175.3125 279.992188 180.765625 277.421875 C 189.023438 273.535156 204.636719 275.539062 205.351562 284.175781 " fill-opacity="1" fill-rule="evenodd"/><path fill="#4d4d4d" d="M 200.925781 278.082031 L 201.960938 278.742188 L 202.859375 279.449219 L 203.617188 280.191406 L 204.238281 280.964844 L 204.71875 281.761719 L 205.066406 282.578125 L 205.273438 283.402344 L 205.339844 284.242188 L 205.273438 285.074219 L 205.066406 285.902344 L 204.71875 286.714844 L 204.238281 287.511719 L 203.617188 288.289062 L 202.859375 289.027344 L 201.960938 289.734375 L 200.925781 290.394531 L 200.367188 290.699219 L 199.785156 290.992188 L 199.183594 291.261719 L 198.5625 291.507812 L 197.929688 291.738281 L 197.28125 291.949219 L 196.617188 292.136719 L 195.941406 292.304688 L 195.257812 292.457031 L 194.5625 292.585938 L 193.855469 292.691406 L 193.148438 292.785156 L 192.433594 292.855469 L 191.714844 292.902344 L 190.996094 292.933594 L 190.273438 292.945312 L 189.546875 292.933594 L 188.824219 292.902344 L 188.105469 292.855469 L 187.390625 292.785156 L 186.683594 292.691406 L 185.980469 292.585938 L 185.285156 292.457031 L 184.597656 292.304688 L 183.925781 292.136719 L 183.261719 291.949219 L 182.609375 291.738281 L 181.976562 291.507812 L 181.355469 291.261719 L 180.757812 290.992188 L 180.175781 290.699219 L 179.613281 290.394531 L 178.578125 289.734375 L 177.683594 289.027344 L 176.925781 288.289062 L 176.304688 287.511719 L 175.820312 286.714844 L 175.472656 285.902344 L 175.269531 285.074219 L 175.199219 284.242188 L 175.269531 283.402344 L 175.472656 282.578125 L 175.820312 281.761719 L 176.304688 280.964844 L 176.925781 280.191406 L 177.683594 279.449219 L 178.578125 278.742188 L 179.613281 278.082031 L 180.175781 277.777344 L 180.757812 277.484375 L 181.355469 277.214844 L 181.976562 276.96875 L 182.609375 276.738281 L 183.261719 276.53125 L 183.925781 276.339844 L 184.597656 276.171875 L 185.285156 276.023438 L 185.980469 275.894531 L 186.683594 275.785156 L 187.390625 275.695312 L 188.105469 275.625 L 188.824219 275.574219 L 189.546875 275.542969 L 190.273438 275.535156 L 190.996094 275.542969 L 191.714844 275.574219 L 192.433594 275.625 L 193.148438 275.695312 L 193.855469 275.785156 L 194.5625 275.894531 L 195.257812 276.023438 L 195.941406 276.171875 L 196.617188 276.339844 L 197.28125 276.53125 L 197.929688 276.738281 L 198.5625 276.96875 L 199.183594 277.214844 L 199.785156 277.484375 L 200.367188 277.777344 Z M 59.148438 359.964844 L 60.183594 360.628906 L 61.082031 361.328125 L 61.835938 362.070312 L 62.460938 362.84375 L 62.941406 363.640625 L 63.285156 364.457031 L 63.492188 365.285156 L 63.5625 366.121094 L 63.492188 366.953125 L 63.285156 367.78125 L 62.941406 368.597656 L 62.460938 369.394531 L 61.835938 370.167969 L 61.082031 370.910156 L 60.183594 371.609375 L 59.148438 372.273438 L 58.585938 372.582031 L 58.003906 372.867188 L 57.402344 373.140625 L 56.785156 373.390625 L 56.148438 373.617188 L 55.5 373.828125 L 54.835938 374.015625 L 54.160156 374.1875 L 53.480469 374.332031 L 52.78125 374.460938 L 52.082031 374.574219 L 51.371094 374.660156 L 50.652344 374.730469 L 49.9375 374.785156 L 49.214844 374.8125 L 48.492188 374.824219 L 47.769531 374.8125 L 47.046875 374.785156 L 46.328125 374.730469 L 45.613281 374.660156 L 44.902344 374.574219 L 44.199219 374.460938 L 43.507812 374.332031 L 42.820312 374.1875 L 42.144531 374.015625 L 41.480469 373.828125 L 40.832031 373.617188 L 40.199219 373.390625 L 39.582031 373.140625 L 38.980469 372.867188 L 38.398438 372.582031 L 37.832031 372.273438 L 36.800781 371.609375 L 35.90625 370.910156 L 35.144531 370.167969 L 34.527344 369.394531 L 34.042969 368.597656 L 33.699219 367.78125 L 33.488281 366.953125 L 33.421875 366.121094 L 33.488281 365.285156 L 33.699219 364.457031 L 34.042969 363.640625 L 34.527344 362.84375 L 35.144531 362.070312 L 35.90625 361.328125 L 36.800781 360.628906 L 37.832031 359.964844 L 38.398438 359.652344 L 38.980469 359.367188 L 39.582031 359.097656 L 40.199219 358.851562 L 40.832031 358.621094 L 41.480469 358.410156 L 42.144531 358.222656 L 42.820312 358.050781 L 43.507812 357.90625 L 44.199219 357.773438 L 44.902344 357.664062 L 45.613281 357.574219 L 46.328125 357.507812 L 47.046875 357.453125 L 47.769531 357.425781 L 48.492188 357.414062 L 49.214844 357.425781 L 49.9375 357.453125 L 50.652344 357.507812 L 51.371094 357.574219 L 52.082031 357.664062 L 52.78125 357.773438 L 53.480469 357.90625 L 54.160156 358.050781 L 54.835938 358.222656 L 55.5 358.410156 L 56.148438 358.621094 L 56.785156 358.851562 L 57.402344 359.097656 L 58.003906 359.367188 L 58.585938 359.652344 Z M 328.414062 515.472656 L 329.449219 516.132812 L 330.34375 516.835938 L 331.101562 517.578125 L 331.726562 518.351562 L 332.210938 519.148438 L 332.550781 519.964844 L 332.757812 520.792969 L 332.828125 521.625 L 332.757812 522.460938 L 332.550781 523.285156 L 332.210938 524.105469 L 331.726562 524.902344 L 331.101562 525.671875 L 330.34375 526.414062 L 329.449219 527.121094 L 328.414062 527.78125 L 327.851562 528.089844 L 327.269531 528.378906 L 326.667969 528.648438 L 326.050781 528.898438 L 325.414062 529.125 L 324.765625 529.332031 L 324.101562 529.523438 L 323.425781 529.691406 L 322.742188 529.84375 L 322.046875 529.972656 L 321.347656 530.082031 L 320.636719 530.171875 L 319.921875 530.242188 L 319.199219 530.289062 L 318.480469 530.316406 L 317.757812 530.328125 L 317.035156 530.316406 L 316.3125 530.289062 L 315.59375 530.242188 L 314.878906 530.171875 L 314.171875 530.082031 L 313.464844 529.972656 L 312.773438 529.84375 L 312.085938 529.691406 L 311.410156 529.523438 L 310.746094 529.332031 L 310.097656 529.125 L 309.464844 528.898438 L 308.84375 528.648438 L 308.246094 528.378906 L 307.664062 528.089844 L 307.101562 527.78125 L 306.066406 527.121094 L 305.171875 526.414062 L 304.410156 525.671875 L 303.789062 524.902344 L 303.308594 524.105469 L 302.960938 523.285156 L 302.753906 522.460938 L 302.683594 521.625 L 302.753906 520.792969 L 302.960938 519.964844 L 303.308594 519.148438 L 303.789062 518.351562 L 304.410156 517.578125 L 305.171875 516.835938 L 306.066406 516.132812 L 307.101562 515.472656 L 307.664062 515.164062 L 308.246094 514.875 L 308.84375 514.605469 L 309.464844 514.355469 L 310.097656 514.128906 L 310.746094 513.917969 L 311.410156 513.726562 L 312.085938 513.558594 L 312.773438 513.410156 L 313.464844 513.28125 L 314.171875 513.171875 L 314.878906 513.082031 L 315.59375 513.011719 L 316.3125 512.964844 L 317.035156 512.929688 L 317.753906 512.921875 L 318.480469 512.929688 L 319.199219 512.964844 L 319.921875 513.011719 L 320.636719 513.082031 L 321.347656 513.171875 L 322.046875 513.28125 L 322.742188 513.410156 L 323.425781 513.558594 L 324.101562 513.726562 L 324.765625 513.917969 L 325.414062 514.128906 L 326.050781 514.355469 L 326.667969 514.605469 L 327.269531 514.875 L 327.851562 515.164062 Z M 470.191406 433.589844 L 471.226562 434.253906 L 472.125 434.957031 L 472.882812 435.699219 L 473.5 436.46875 L 473.988281 437.265625 L 474.332031 438.082031 L 474.539062 438.910156 L 474.609375 439.746094 L 474.539062 440.578125 L 474.332031 441.410156 L 473.988281 442.226562 L 473.5 443.023438 L 472.882812 443.792969 L 472.125 444.535156 L 471.226562 445.238281 L 470.191406 445.902344 L 469.632812 446.210938 L 469.050781 446.496094 L 468.449219 446.765625 L 467.828125 447.015625 L 467.195312 447.246094 L 466.546875 447.453125 L 465.882812 447.644531 L 465.207031 447.808594 L 464.519531 447.960938 L 463.828125 448.089844 L 463.121094 448.203125 L 462.414062 448.289062 L 461.699219 448.359375 L 460.980469 448.410156 L 460.261719 448.441406 L 459.539062 448.449219 L 458.816406 448.441406 L 458.09375 448.410156 L 457.371094 448.359375 L 456.65625 448.289062 L 455.949219 448.203125 L 455.246094 448.089844 L 454.550781 447.960938 L 453.863281 447.808594 L 453.191406 447.644531 L 452.527344 447.453125 L 451.878906 447.246094 L 451.242188 447.015625 L 450.625 446.765625 L 450.023438 446.496094 L 449.441406 446.210938 L 448.878906 445.902344 L 447.847656 445.238281 L 446.945312 444.535156 L 446.191406 443.792969 L 445.570312 443.023438 L 445.085938 442.226562 L 444.742188 441.410156 L 444.535156 440.578125 L 444.464844 439.746094 L 444.535156 438.910156 L 444.742188 438.082031 L 445.085938 437.265625 L 445.570312 436.46875 L 446.191406 435.699219 L 446.945312 434.957031 L 447.847656 434.253906 L 448.878906 433.589844 L 449.441406 433.28125 L 450.023438 432.992188 L 450.625 432.726562 L 451.242188 432.476562 L 451.878906 432.25 L 452.527344 432.039062 L 453.191406 431.851562 L 453.863281 431.679688 L 454.550781 431.53125 L 455.246094 431.398438 L 455.949219 431.292969 L 456.65625 431.199219 L 457.371094 431.132812 L 458.09375 431.082031 L 458.816406 431.054688 L 459.539062 431.042969 L 460.261719 431.054688 L 460.980469 431.082031 L 461.699219 431.132812 L 462.414062 431.199219 L 463.121094 431.292969 L 463.828125 431.398438 L 464.519531 431.53125 L 465.207031 431.679688 L 465.882812 431.851562 L 466.546875 432.039062 L 467.195312 432.25 L 467.828125 432.476562 L 468.449219 432.726562 L 469.050781 432.992188 L 469.632812 433.28125 Z M 719.46875 289.628906 L 720.5 290.289062 L 721.398438 290.996094 L 722.15625 291.738281 L 722.777344 292.507812 L 723.261719 293.304688 L 723.605469 294.121094 L 723.8125 294.949219 L 723.882812 295.785156 L 723.8125 296.617188 L 723.605469 297.445312 L 723.261719 298.261719 L 722.777344 299.058594 L 722.15625 299.832031 L 721.398438 300.574219 L 720.5 301.277344 L 719.46875 301.9375 L 718.90625 302.246094 L 718.320312 302.535156 L 717.722656 302.804688 L 717.105469 303.050781 L 716.46875 303.285156 L 715.820312 303.492188 L 715.15625 303.679688 L 714.480469 303.847656 L 713.796875 304 L 713.101562 304.128906 L 712.398438 304.238281 L 711.691406 304.328125 L 710.976562 304.398438 L 710.253906 304.445312 L 709.53125 304.476562 L 708.808594 304.488281 L 708.085938 304.476562 L 707.367188 304.445312 L 706.648438 304.398438 L 705.933594 304.328125 L 705.222656 304.238281 L 704.519531 304.128906 L 703.828125 304 L 703.140625 303.847656 L 702.464844 303.679688 L 701.800781 303.492188 L 701.152344 303.285156 L 700.519531 303.050781 L 699.898438 302.804688 L 699.296875 302.535156 L 698.714844 302.246094 L 698.15625 301.9375 L 697.117188 301.277344 L 696.222656 300.574219 L 695.464844 299.832031 L 694.84375 299.058594 L 694.359375 298.261719 L 694.015625 297.445312 L 693.808594 296.617188 L 693.738281 295.785156 L 693.808594 294.949219 L 694.015625 294.121094 L 694.359375 293.304688 L 694.84375 292.507812 L 695.464844 291.738281 L 696.222656 290.996094 L 697.117188 290.289062 L 698.15625 289.628906 L 698.714844 289.320312 L 699.296875 289.03125 L 699.898438 288.761719 L 700.519531 288.511719 L 701.152344 288.285156 L 701.800781 288.078125 L 702.464844 287.886719 L 703.140625 287.714844 L 703.828125 287.566406 L 704.519531 287.4375 L 705.222656 287.328125 L 705.933594 287.238281 L 706.648438 287.167969 L 707.367188 287.117188 L 708.085938 287.089844 L 708.808594 287.082031 L 709.53125 287.089844 L 710.253906 287.117188 L 710.976562 287.167969 L 711.691406 287.238281 L 712.398438 287.328125 L 713.101562 287.4375 L 713.796875 287.566406 L 714.480469 287.714844 L 715.15625 287.886719 L 715.820312 288.078125 L 716.46875 288.285156 L 717.105469 288.511719 L 717.722656 288.761719 L 718.320312 289.03125 L 718.90625 289.320312 Z M 450.203125 134.121094 L 451.234375 134.78125 L 452.136719 135.488281 L 452.890625 136.226562 L 453.515625 137 L 453.996094 137.800781 L 454.339844 138.617188 L 454.546875 139.441406 L 454.617188 140.277344 L 454.546875 141.109375 L 454.339844 141.941406 L 453.996094 142.753906 L 453.515625 143.550781 L 452.890625 144.324219 L 452.136719 145.0625 L 451.234375 145.769531 L 450.203125 146.429688 L 449.636719 146.738281 L 449.058594 147.027344 L 448.457031 147.296875 L 447.839844 147.546875 L 447.203125 147.777344 L 446.554688 147.984375 L 445.890625 148.175781 L 445.214844 148.34375 L 444.53125 148.492188 L 443.835938 148.621094 L 443.132812 148.730469 L 442.425781 148.820312 L 441.707031 148.890625 L 440.988281 148.941406 L 440.269531 148.972656 L 439.546875 148.980469 L 438.820312 148.972656 L 438.101562 148.941406 L 437.382812 148.890625 L 436.667969 148.820312 L 435.957031 148.730469 L 435.253906 148.621094 L 434.558594 148.492188 L 433.875 148.34375 L 433.199219 148.175781 L 432.535156 147.984375 L 431.886719 147.777344 L 431.253906 147.546875 L 430.632812 147.296875 L 430.03125 147.027344 L 429.453125 146.738281 L 428.886719 146.429688 L 427.855469 145.769531 L 426.960938 145.0625 L 426.199219 144.324219 L 425.582031 143.550781 L 425.097656 142.753906 L 424.75 141.941406 L 424.542969 141.109375 L 424.472656 140.277344 L 424.542969 139.441406 L 424.75 138.617188 L 425.097656 137.800781 L 425.582031 137 L 426.199219 136.226562 L 426.960938 135.488281 L 427.855469 134.78125 L 428.886719 134.121094 L 429.453125 133.8125 L 430.03125 133.523438 L 430.632812 133.253906 L 431.253906 133.007812 L 431.886719 132.777344 L 432.535156 132.570312 L 433.199219 132.378906 L 433.875 132.210938 L 434.558594 132.058594 L 435.253906 131.929688 L 435.957031 131.824219 L 436.667969 131.730469 L 437.382812 131.660156 L 438.101562 131.613281 L 438.820312 131.582031 L 439.546875 131.574219 L 440.269531 131.582031 L 440.988281 131.613281 L 441.707031 131.660156 L 442.425781 131.730469 L 443.132812 131.824219 L 443.835938 131.929688 L 444.53125 132.058594 L 445.214844 132.210938 L 445.890625 132.378906 L 446.554688 132.570312 L 447.203125 132.777344 L 447.839844 133.007812 L 448.457031 133.253906 L 449.058594 133.523438 L 449.636719 133.8125 L 450.203125 134.121094 " fill-opacity="1" fill-rule="evenodd"/><path fill="#cccccc" d="M 286.027344 506.800781 L 370.800781 506.800781 L 428.507812 473.46875 L 428.507812 462.980469 L 370.800781 496.308594 L 286.027344 496.308594 L 80.21875 377.449219 L 80.21875 387.941406 Z M 418.363281 407.023438 C 440.898438 394.65625 477.257812 395.03125 500.179688 407.941406 L 511.996094 414.765625 L 584.835938 372.699219 C 607.214844 359.441406 628.597656 341.640625 638.914062 317.082031 C 643.355469 306.507812 645.472656 294.539062 644.53125 283.089844 L 643.832031 277.398438 L 643.832031 287.890625 C 644.0625 291.675781 644.769531 294.027344 644.769531 299.28125 C 644.769531 333.765625 619.582031 361.179688 592.09375 378.777344 L 584.835938 383.1875 L 511.996094 425.253906 C 496.964844 416.578125 490.058594 411.921875 472.511719 409.460938 C 454.203125 406.886719 433.65625 409.144531 417.285156 418.109375 C 417.109375 418.3125 416.910156 418.433594 416.695312 418.433594 C 407.433594 424.058594 399.945312 431.097656 399.476562 442.539062 C 399.476562 438.386719 399.074219 431.199219 400.078125 427.144531 C 401.96875 419.542969 408.335938 413.015625 414.828125 409.074219 L 414.839844 409.128906 C 415 405.929688 415.613281 403.132812 416.695312 403.132812 C 417.523438 403.132812 418.082031 404.796875 418.363281 407.023438 Z M 250.386719 279.519531 L 250.386719 290.007812 C 251.109375 272.34375 234.40625 264.9375 221.417969 257.441406 L 221.417969 246.949219 C 228.003906 250.753906 236.804688 255.136719 242.316406 260.539062 C 247.78125 265.90625 250.699219 271.835938 250.386719 279.519531 " fill-opacity="1" fill-rule="evenodd"/><path fill="#e6e6e6" d="M 584.835938 204.882812 L 592.09375 209.292969 L 598.882812 213.867188 L 605.203125 218.589844 L 611.058594 223.453125 L 616.441406 228.441406 L 621.359375 233.554688 L 625.804688 238.769531 L 629.785156 244.082031 L 633.296875 249.484375 L 636.339844 254.957031 L 638.914062 260.5 L 641.019531 266.09375 L 642.660156 271.730469 L 643.832031 277.398438 L 644.53125 283.089844 L 644.769531 288.789062 L 644.53125 294.488281 L 643.832031 300.183594 L 642.660156 305.851562 L 641.019531 311.484375 L 638.914062 317.082031 L 636.339844 322.621094 L 633.296875 328.09375 L 629.785156 333.496094 L 625.804688 338.8125 L 621.359375 344.03125 L 616.441406 349.140625 L 611.058594 354.132812 L 605.203125 358.992188 L 598.882812 363.714844 L 592.09375 368.285156 L 584.835938 372.699219 L 511.996094 414.765625 L 500.179688 407.941406 L 497.984375 406.738281 L 495.710938 405.609375 L 493.363281 404.558594 L 490.941406 403.589844 L 488.460938 402.695312 L 485.914062 401.878906 L 483.324219 401.140625 L 480.679688 400.484375 L 477.988281 399.902344 L 475.269531 399.394531 L 472.511719 398.96875 L 469.726562 398.617188 L 466.925781 398.34375 L 464.105469 398.152344 L 461.269531 398.035156 L 458.433594 397.996094 L 455.597656 398.035156 L 452.769531 398.152344 L 449.949219 398.34375 L 447.144531 398.617188 L 444.359375 398.96875 L 441.605469 399.394531 L 438.882812 399.902344 L 436.195312 400.484375 L 433.550781 401.140625 L 430.957031 401.878906 L 428.417969 402.695312 L 425.929688 403.589844 L 423.511719 404.558594 L 421.160156 405.609375 L 418.890625 406.738281 L 416.695312 407.941406 L 414.609375 409.207031 L 412.65625 410.523438 L 410.84375 411.875 L 409.160156 413.273438 L 407.613281 414.710938 L 406.203125 416.179688 L 404.921875 417.675781 L 403.777344 419.203125 L 402.769531 420.757812 L 401.898438 422.328125 L 401.15625 423.917969 L 400.550781 425.527344 L 400.078125 427.144531 L 399.746094 428.773438 L 399.542969 430.40625 L 399.476562 432.050781 L 399.542969 433.683594 L 399.746094 435.320312 L 400.078125 436.949219 L 400.550781 438.570312 L 401.15625 440.175781 L 401.894531 441.765625 L 402.769531 443.34375 L 403.777344 444.890625 L 404.921875 446.417969 L 406.203125 447.917969 L 407.613281 449.386719 L 409.160156 450.820312 L 410.84375 452.21875 L 412.65625 453.574219 L 414.609375 454.886719 L 416.695312 456.15625 L 428.507812 462.980469 L 370.800781 496.308594 L 286.027344 496.308594 L 80.21875 377.449219 L 80.21875 328.492188 L 137.933594 295.164062 L 149.75 301.988281 L 151.945312 303.191406 L 154.214844 304.316406 L 156.566406 305.371094 L 158.984375 306.339844 L 161.46875 307.230469 L 164.007812 308.046875 L 166.605469 308.785156 L 169.25 309.445312 L 171.9375 310.027344 L 174.660156 310.535156 L 177.414062 310.960938 L 180.199219 311.3125 L 183.003906 311.582031 L 185.824219 311.777344 L 188.652344 311.890625 L 191.488281 311.933594 L 194.328125 311.890625 L 197.15625 311.777344 L 199.980469 311.582031 L 202.78125 311.3125 L 205.566406 310.960938 L 208.320312 310.535156 L 211.042969 310.027344 L 213.734375 309.445312 L 216.375 308.785156 L 218.96875 308.046875 L 221.515625 307.230469 L 223.996094 306.339844 L 226.417969 305.371094 L 228.765625 304.316406 L 231.042969 303.191406 L 233.230469 301.988281 L 235.320312 300.71875 L 237.269531 299.40625 L 239.085938 298.050781 L 240.765625 296.65625 L 242.3125 295.21875 L 243.726562 293.75 L 245.003906 292.25 L 246.148438 290.726562 L 247.15625 289.171875 L 248.03125 287.601562 L 248.769531 286.007812 L 249.375 284.402344 L 249.847656 282.78125 L 250.183594 281.152344 L 250.386719 279.519531 L 250.453125 277.878906 L 250.386719 276.242188 L 250.183594 274.609375 L 249.847656 272.980469 L 249.375 271.359375 L 248.769531 269.753906 L 248.03125 268.160156 L 247.15625 266.585938 L 246.148438 265.039062 L 245.003906 263.511719 L 243.730469 262.007812 L 242.316406 260.539062 L 240.765625 259.109375 L 239.085938 257.710938 L 237.269531 256.351562 L 235.320312 255.039062 L 233.230469 253.773438 L 221.417969 246.949219 L 294.257812 204.882812 L 301.894531 200.691406 L 309.8125 196.769531 L 317.988281 193.117188 L 326.40625 189.742188 L 335.050781 186.628906 L 343.898438 183.792969 L 352.933594 181.21875 L 362.136719 178.925781 L 371.484375 176.894531 L 380.96875 175.136719 L 390.5625 173.648438 L 400.246094 172.433594 L 410.003906 171.488281 L 419.824219 170.8125 L 429.675781 170.40625 L 439.546875 170.269531 L 449.417969 170.40625 L 459.273438 170.8125 L 469.085938 171.488281 L 478.847656 172.433594 L 488.535156 173.648438 L 498.128906 175.136719 L 507.605469 176.894531 L 516.960938 178.925781 L 526.15625 181.21875 L 535.195312 183.792969 L 544.042969 186.628906 L 552.683594 189.742188 L 561.105469 193.117188 L 569.28125 196.769531 L 577.199219 200.691406 L 584.835938 204.882812 " fill-opacity="1" fill-rule="evenodd"/><path fill="#ffffff" d="M 450.597656 194.914062 L 588.992188 274.839844 L 401.792969 382.949219 L 263.40625 303.023438 L 450.597656 194.914062 " fill-opacity="1" fill-rule="evenodd"/><path fill="#6ce3b8" d="M 457.8125 220.710938 L 544.324219 270.671875 L 515.777344 287.160156 L 429.265625 237.199219 L 457.8125 220.710938 " fill-opacity="1" fill-rule="evenodd"/><path fill="#808080" d="M 374.769531 268.671875 L 372.574219 269.9375 L 444.21875 311.3125 L 446.410156 310.042969 Z M 370.164062 271.332031 L 367.96875 272.597656 L 449.972656 319.957031 L 452.167969 318.691406 Z M 365.558594 273.992188 L 363.363281 275.257812 L 412.875 303.851562 L 415.070312 302.582031 Z M 360.953125 276.652344 L 358.757812 277.917969 L 399.210938 301.28125 L 401.402344 300.011719 Z M 356.34375 279.3125 L 354.152344 280.578125 L 386.492188 299.257812 L 388.6875 297.988281 Z M 351.738281 281.972656 L 349.542969 283.238281 L 436.054688 333.203125 L 438.25 331.933594 Z M 419.722656 305.273438 L 417.53125 306.542969 L 449.875 325.222656 L 452.066406 323.953125 Z M 415.121094 307.933594 L 412.925781 309.203125 L 445.269531 327.882812 L 447.457031 326.613281 Z M 412.589844 306.476562 L 403.929688 301.472656 L 401.734375 302.738281 L 410.398438 307.742188 Z M 379.375 266.011719 L 465.886719 315.972656 L 463.691406 317.238281 L 377.179688 267.277344 L 379.375 266.011719 " fill-opacity="1" fill-rule="evenodd"/><path fill="#333333" d="M 417.5625 243.957031 L 504.074219 293.917969 L 501.226562 295.5625 L 414.71875 245.597656 L 417.5625 243.957031 " fill-opacity="1" fill-rule="evenodd"/><path fill="#333333" d="M 337.367188 290.273438 L 423.875 340.234375 L 421.03125 341.875 L 334.523438 291.914062 L 337.367188 290.273438 " fill-opacity="1" fill-rule="evenodd"/><path fill="#333333" d="M 322.34375 298.945312 L 408.855469 348.910156 L 394.582031 357.152344 L 308.070312 307.191406 L 322.34375 298.945312 " fill-opacity="1" fill-rule="evenodd"/><path fill="#1a1a1a" d="M 128.050781 468.933594 L 74.683594 438.105469 L 74.683594 477.402344 L 128.050781 508.226562 Z M 290.535156 562.769531 L 145.0625 478.753906 L 145.0625 518.046875 L 290.539062 602.066406 Z M 23.796875 428.367188 L 23.796875 448.011719 L 69.058594 474.15625 L 69.058594 434.855469 L 23.796875 408.71875 L 23.796875 428.367188 " fill-opacity="1" fill-rule="evenodd"/><path fill="#333333" d="M 23.796875 448.011719 L 57.816406 428.367188 L 69.058594 434.855469 L 69.058594 474.15625 L 23.796875 448.011719 " fill-opacity="1" fill-rule="evenodd"/><path fill="#333333" d="M 74.683594 477.402344 L 108.703125 457.753906 L 128.050781 468.933594 L 128.050781 508.226562 L 74.683594 477.402344 " fill-opacity="1" fill-rule="evenodd"/><path fill="#333333" d="M 145.0625 518.046875 L 179.082031 498.402344 L 290.535156 562.769531 L 290.539062 602.066406 L 145.0625 518.046875 " fill-opacity="1" fill-rule="evenodd"/><path fill="#e6e6e6" d="M 28.34375 421.125 L 36.808594 416.238281 L 41.824219 419.132812 L 33.355469 424.023438 L 28.34375 421.125 " fill-opacity="1" fill-rule="evenodd"/><path fill="#b3b3b3" d="M 33.355469 424.023438 L 41.824219 419.132812 L 46.835938 422.027344 L 33.355469 429.8125 L 33.355469 424.023438 " fill-opacity="1" fill-rule="evenodd"/><path fill="#e6e6e6" d="M 59.5 453.058594 L 69.058594 447.539062 L 69.058594 453.328125 L 64.511719 455.957031 L 59.5 453.058594 " fill-opacity="1" fill-rule="evenodd"/><path fill="#b3b3b3" d="M 64.511719 455.957031 L 69.058594 453.328125 L 69.058594 459.121094 L 64.511719 461.75 L 64.511719 455.957031 " fill-opacity="1" fill-rule="evenodd"/><path fill="#e6e6e6" d="M 49.113281 447.0625 L 69.058594 435.542969 L 69.058594 441.335938 L 54.125 449.957031 L 49.113281 447.0625 " fill-opacity="1" fill-rule="evenodd"/><path fill="#b3b3b3" d="M 54.125 449.957031 L 69.058594 441.335938 L 69.058594 447.125 L 54.125 455.75 L 54.125 449.957031 " fill-opacity="1" fill-rule="evenodd"/><path fill="#e6e6e6" d="M 38.726562 441.066406 L 59.265625 429.203125 L 64.277344 432.101562 L 43.742188 443.960938 L 38.726562 441.066406 " fill-opacity="1" fill-rule="evenodd"/><path fill="#b3b3b3" d="M 43.742188 443.960938 L 64.277344 432.101562 L 69.058594 434.855469 L 69.058594 435.128906 L 43.742188 449.75 L 43.742188 443.960938 " fill-opacity="1" fill-rule="evenodd"/><path fill="#e6e6e6" d="M 28.34375 435.066406 L 48.878906 423.207031 L 53.894531 426.101562 L 33.355469 437.964844 L 28.34375 435.066406 " fill-opacity="1" fill-rule="evenodd"/><path fill="#b3b3b3" d="M 33.355469 437.964844 L 53.894531 426.101562 L 58.910156 429 L 33.355469 443.753906 L 33.355469 437.964844 " fill-opacity="1" fill-rule="evenodd"/><path fill="#e6e6e6" d="M 59.5 439.117188 L 67.960938 434.226562 L 69.058594 434.855469 L 69.058594 439.386719 L 64.511719 442.015625 L 59.5 439.117188 " fill-opacity="1" fill-rule="evenodd"/><path fill="#b3b3b3" d="M 64.511719 442.015625 L 69.058594 439.386719 L 69.058594 445.179688 L 64.511719 447.804688 L 64.511719 442.015625 " fill-opacity="1" fill-rule="evenodd"/><path fill="#e6e6e6" d="M 49.113281 433.121094 L 57.582031 428.230469 L 62.59375 431.128906 L 54.125 436.015625 L 49.113281 433.121094 " fill-opacity="1" fill-rule="evenodd"/><path fill="#b3b3b3" d="M 54.125 436.015625 L 62.59375 431.128906 L 67.605469 434.019531 L 54.125 441.808594 L 54.125 436.015625 " fill-opacity="1" fill-rule="evenodd"/><path fill="#e6e6e6" d="M 38.726562 427.125 L 47.195312 422.230469 L 52.210938 425.128906 L 43.742188 430.019531 L 38.726562 427.125 " fill-opacity="1" fill-rule="evenodd"/><path fill="#b3b3b3" d="M 43.742188 430.019531 L 52.210938 425.128906 L 57.222656 428.023438 L 43.742188 435.808594 L 43.742188 430.019531 " fill-opacity="1" fill-rule="evenodd"/><path fill="#cccccc" d="M 38.726562 427.125 L 43.742188 430.019531 L 43.742188 435.808594 L 38.726562 432.917969 Z M 49.113281 433.121094 L 54.125 436.015625 L 54.125 441.808594 L 49.113281 438.910156 Z M 59.5 439.117188 L 64.511719 442.015625 L 64.511719 447.804688 L 59.5 444.910156 Z M 28.34375 435.066406 L 33.355469 437.964844 L 33.355469 443.753906 L 28.34375 440.859375 Z M 38.726562 441.066406 L 43.742188 443.960938 L 43.742188 449.75 L 38.726562 446.855469 Z M 49.113281 447.0625 L 54.125 449.957031 L 54.125 455.75 L 49.113281 452.855469 Z M 59.5 453.058594 L 64.511719 455.957031 L 64.511719 461.75 L 59.5 458.851562 Z M 28.34375 421.125 L 33.355469 424.023438 L 33.355469 429.8125 L 28.34375 426.917969 L 28.34375 421.125 " fill-opacity="1" fill-rule="evenodd"/><path fill="#333333" d="M 123.828125 477.246094 L 128.050781 474.640625 L 128.050781 468.933594 L 87.632812 445.585938 L 78.628906 451.144531 L 123.828125 477.246094 " fill-opacity="1" fill-rule="evenodd"/><path fill="#1a1a1a" d="M 123.828125 484.640625 L 128.050781 482.035156 L 128.050781 474.640625 L 123.828125 477.246094 L 123.828125 484.640625 " fill-opacity="1" fill-rule="evenodd"/><path fill="#333333" d="M 268.710938 560.921875 L 277.707031 555.363281 L 166.152344 490.929688 L 157.148438 496.492188 L 268.710938 560.921875 " fill-opacity="1" fill-rule="evenodd"/><path fill="#1a1a1a" d="M 268.710938 568.316406 L 283.898438 558.933594 L 277.707031 555.363281 L 268.710938 560.921875 L 268.710938 568.316406 " fill-opacity="1" fill-rule="evenodd"/><path fill="#000000" d="M 268.710938 560.921875 L 157.148438 496.492188 L 157.148438 503.882812 L 268.710938 568.316406 Z M 123.828125 477.246094 L 78.628906 451.144531 L 78.628906 458.539062 L 123.828125 484.640625 L 123.828125 477.246094 " fill-opacity="1" fill-rule="evenodd"/><path fill="#fefefe" d="M 304.441406 351.816406 C 322.476562 362.238281 322.476562 379.121094 304.441406 389.539062 C 286.402344 399.957031 257.160156 399.957031 239.125 389.542969 C 221.085938 379.121094 221.085938 362.238281 239.125 351.816406 C 257.160156 341.402344 286.40625 341.402344 304.441406 351.816406 " fill-opacity="1" fill-rule="evenodd"/></svg>